<svg xmlns="http://www.w3.org/2000/svg" xmlns:xlink="http://www.w3.org/1999/xlink" xmlns:inkscape="http://www.inkscape.org/namespaces/inkscape" version="1.1" width="176" height="61" viewBox="0 0 176 61">
<defs>
<path id="font_1_4" d="M.33399964 .30233766C.33999635 .32835389 .36299134 .42037965 .43299867 .42037965 .43798829 .42037965 .46199037 .42037965 .48298646 .40734864 .45498658 .402359 .43499757 .37734986 .43499757 .35334779 .43499757 .33735658 .44599916 .31835938 .47299195 .31835938 .49499513 .31835938 .5269928 .3363495 .5269928 .37635804 .5269928 .42837525 .46798707 .4423828 .43399049 .4423828 .37599183 .4423828 .34098817 .38935853 .32899476 .36634828 .3039856 .43237306 .25 .4423828 .22099304 .4423828 .116989139 .4423828 .05999756 .3133545 .05999756 .28834535 .05999756 .27833558 .069992069 .27833558 .07199097 .27833558 .07998657 .27833558 .08299255 .28033448 .084991458 .28933717 .11898804 .39535523 .18499756 .42037965 .21899414 .42037965 .23799134 .42037965 .272995 .4113617 .272995 .35334779 .272995 .32235719 .2559967 .25532533 .21899414 .11528015 .20298767 .053268434 .16799927 .011245728 .12399292 .011245728 .117996219 .011245728 .09498596 .011245728 .07398987 .024276734 .09899902 .029266358 .12098694 .05027771 .12098694 .07827759 .12098694 .105270389 .09899902 .11328125 .083999637 .11328125 .053985597 .11328125 .0289917 .08728027 .0289917 .055267335 .0289917 .009246826 .07899475-.0107421879 .12298584-.0107421879 .18899536-.0107421879 .22499085 .059280397 .22799683 .0652771 .23999024 .028274537 .27598573-.0107421879 .33599855-.0107421879 .43899537-.0107421879 .49598695 .118270877 .49598695 .14328003 .49598695 .1532898 .4869995 .1532898 .48399354 .1532898 .47499085 .1532898 .47299195 .14929199 .47099305 .14228821 .43798829 .03527832 .36999513 .011245728 .33799745 .011245728 .29899598 .011245728 .2829895 .043273927 .2829895 .07727051 .2829895 .09927368 .2889862 .121276859 .2999878 .16529846L.33399964 .30233766Z"/>
<path id="font_2_1" d="M.31399537 .63708499C.31399537 .664032 .31199647 .66503909 .2849884 .66503909 .24398804 .6251831 .19099427 .6013489 .09599304 .6013489V.5683594C.12298584 .5683594 .1769867 .5683594 .23498535 .5953522V.08203125C.23498535 .04499817 .23199463 .032989503 .13699341 .032989503H.101989749V0C.14299011 .0029907227 .22898865 .0029907227 .27398683 .0029907227 .31900025 .0029907227 .4059906 .0029907227 .44699098 0V.032989503H.4119873C.31698609 .032989503 .31399537 .04499817 .31399537 .08203125V.63708499Z"/>
<path id="font_2_2" d="M.28199769 .20405579C.2979889 .21907044 .33999635 .2520752 .35598756 .26608277 .41799928 .32312013 .47698976 .3781433 .47698976 .46917726 .47698976 .588089 .3769989 .66503909 .2519989 .66503909 .13198853 .66503909 .052993776 .57411196 .052993776 .48516847 .052993776 .4361725 .09199524 .4291687 .10598755 .4291687 .1269989 .4291687 .1579895 .4441681 .1579895 .48217774 .1579895 .5341797 .10798645 .5341797 .09599304 .5341797 .125 .6070709 .19198609 .6320343 .24099732 .6320343 .33399964 .6320343 .38198854 .55314639 .38198854 .46917726 .38198854 .36514283 .30899049 .28910829 .19099427 .16804505L.06498718 .037994386C.052993776 .026992798 .052993776 .024993897 .052993776 0H.44799806L.47698976 .17904663H.44599916C.44299317 .1590271 .43499757 .10900879 .4229889 .08999634 .4169922 .08198547 .34098817 .08198547 .32499696 .08198547H.14698792L.28199769 .20405579Z"/>
<path id="font_3_88" d="M.19198609 .052993776C.19198609 .08198547 .16799927 .10598755 .13899231 .10598755 .10998535 .10598755 .085998538 .08198547 .085998538 .052993776 .085998538 .023986817 .10998535 0 .13899231 0 .16799927 0 .19198609 .023986817 .19198609 .052993776Z"/>
<path id="font_4_1" d="M.19999695 .16429138C.20298767 .17929077 .21299744 .21731568 .21598816 .23231507 .22999573 .28634645 .22999573 .28733827 .25299073 .32035829 .28599549 .36938478 .33299256 .4133911 .3999939 .4133911 .43598939 .4133911 .45700074 .39239503 .45700074 .34536744 .45700074 .29034425 .4149933 .17630005 .3959961 .12727356 .3829956 .09425354 .3829956 .088256839 .3829956 .07525635 .3829956 .018234253 .42999269-.009765625 .47299195-.009765625 .57099917-.009765625 .6119995 .13027954 .6119995 .14328003 .6119995 .1532898 .60398867 .15628052 .5970001 .15628052 .58499148 .15628052 .58299258 .14927674 .5799866 .13928223 .55599978 .057250978 .5139923 .018234253 .47599793 .018234253 .45999146 .018234253 .45199586 .02822876 .45199586 .051239015 .45199586 .07424927 .45999146 .0962677 .46998597 .121276859 .4850006 .1592865 .5289917 .27433778 .5289917 .33036805 .5289917 .4053955 .47698976 .44140626 .40499879 .44140626 .32398988 .44140626 .27198792 .39239503 .24299622 .35437013 .23599243 .4093933 .19198609 .44140626 .14099121 .44140626 .10499573 .44140626 .07998657 .418396 .06399536 .38739015 .039993287 .34036256 .02999878 .29034425 .02999878 .28834535 .02999878 .27934266 .036987306 .27534486 .04499817 .27534486 .057998659 .27534486 .05899048 .27934266 .06599426 .3053589 .07798767 .35437013 .09599304 .4133911 .13798523 .4133911 .1639862 .4133911 .16999817 .38838197 .16999817 .36637879 .16999817 .3483734 .16499329 .32936097 .15699768 .29634095 .15499878 .28834535 .13999939 .22932434 .13598633 .21531677L.09899902 .06524658C.09498596 .050247194 .08898926 .025222779 .08898926 .021224976 .08898926-.0017700195 .10798645-.009765625 .12098694-.009765625 .13899231-.009765625 .1539917 .0022277833 .16099549 .014221191 .1639862 .020233155 .17199707 .054244996 .1769867 .07525635L.19999695 .16429138Z"/>
<path id="font_1_3" d="M.36698915 .3996582H.45298768C.47299195 .3996582 .48298646 .3996582 .48298646 .41966249 .48298646 .43066407 .47299195 .43066407 .45599366 .43066407H.37298585L.3939972 .5449524C.397995 .5660095 .4119873 .6370239 .41799928 .6490326 .4269867 .66804507 .44400025 .68307498 .46499635 .68307498 .46899415 .68307498 .49499513 .68307498 .5139923 .66503909 .46998597 .661026 .45999146 .6260376 .45999146 .6110382 .45999146 .58802798 .47799684 .57603457 .49699403 .57603457 .522995 .57603457 .5519867 .5980377 .5519867 .6360321 .5519867 .6820679 .5059967 .7050781 .46499635 .7050781 .43099977 .7050781 .36799623 .68707278 .33799745 .58802798 .33198548 .56700137 .32899476 .5569763 .30499269 .43066407H.23599243C.21699524 .43066407 .20599365 .43066407 .20599365 .4116516 .20599365 .3996582 .21499634 .3996582 .23399353 .3996582H.2999878L.22499085 .0048828127C.20698548-.09207153 .18998719-.18309021 .13798523-.18309021 .13398743-.18309021 .10899353-.18309021 .08999634-.16506958 .13598633-.1620636 .14498902-.12606812 .14498902-.111068729 .14498902-.08807373 .1269989-.07606506 .10798645-.07606506 .08198547-.07606506 .052993776-.09806824 .052993776-.13606262 .052993776-.18109131 .09700012-.20507813 .13798523-.20507813 .19299317-.20507813 .23298645-.14607239 .25099183-.108062747 .2829895-.04508972 .30599977 .07583618 .30699159 .082839969L.36698915 .3996582Z"/>
<path id="font_5_1" d="M.33099366-.2400055C.33099366-.23701477 .33099366-.23500061 .31399537-.21800232 .18899536-.0920105 .15699768 .09700012 .15699768 .25 .15699768 .42399598 .19499207 .59799197 .31799317 .72299197 .33099366 .73498538 .33099366 .7369995 .33099366 .73999026 .33099366 .746994 .32699586 .75 .32099916 .75 .31098939 .75 .22099304 .6819916 .1619873 .5549927 .11099243 .44499208 .09899902 .33399964 .09899902 .25 .09899902 .17199707 .10998535 .050994874 .16499329-.06201172 .22499085-.18501282 .31098939-.25 .32099916-.25 .32699586-.25 .33099366-.24700928 .33099366-.2400055Z"/>
<path id="font_1_2" d="M.20298767 .0009918213C.20298767 .066986087 .17799378 .10598755 .13899231 .10598755 .10598755 .10598755 .085998538 .08099365 .085998538 .052993776 .085998538 .025985718 .10598755 0 .13899231 0 .15098572 0 .1639862 .0039978029 .17399597 .0129852299 .1769867 .01499939 .17799378 .015991211 .1789856 .015991211 .17999268 .015991211 .18099976 .01499939 .18099976 .0009918213 .18099976-.07316589 .1459961-.13328552 .11299133-.16635132 .101989749-.17736817 .101989749-.17936707 .101989749-.18237305 .101989749-.18936157 .10699463-.19335938 .11199951-.19335938 .12298584-.19335938 .20298767-.116256717 .20298767 .0009918213Z"/>
<path id="font_1_1" d="M.19198609 .052993776C.19198609 .08198547 .16799927 .10598755 .13899231 .10598755 .10998535 .10598755 .085998538 .08198547 .085998538 .052993776 .085998538 .023986817 .10998535 0 .13899231 0 .16799927 0 .19198609 .023986817 .19198609 .052993776Z"/>
<path id="font_5_2" d="M.2889862 .25C.2889862 .32798768 .27799989 .44898988 .22299195 .56199648 .16299439 .68499758 .07699585 .75 .066986087 .75 .06098938 .75 .056991579 .74598696 .056991579 .73999026 .056991579 .7369995 .056991579 .73498538 .07598877 .71699526 .17399597 .6179962 .23098755 .45899964 .23098755 .25 .23098755 .07899475 .19400025-.09700012 .069992069-.2230072 .056991579-.23500061 .056991579-.23701477 .056991579-.2400055 .056991579-.2460022 .06098938-.25 .066986087-.25 .07699585-.25 .16699219-.18200684 .22599793-.055007936 .2769928 .054992677 .2889862 .16600037 .2889862 .25Z"/>
</defs>
<use data-text="x" xlink:href="#font_1_4" transform="matrix(10.909644,0,0,-10.9091,2.1091538,15.066998)"/>
<use data-text="1" xlink:href="#font_2_1" transform="matrix(7.970498,0,0,-7.9701,8.344463,16.703999)"/>
<use data-text="x" xlink:href="#font_1_4" transform="matrix(10.909644,0,0,-10.9091,2.1091538,26.405999)"/>
<use data-text="2" xlink:href="#font_2_2" transform="matrix(7.970498,0,0,-7.9701,8.344463,28.043)"/>
<use data-text="." xlink:href="#font_3_88" transform="matrix(10.909644,0,0,-10.9091,10.043552,34.379)"/>
<use data-text="." xlink:href="#font_3_88" transform="matrix(10.909644,0,0,-10.9091,10.043552,38.364004)"/>
<use data-text="." xlink:href="#font_3_88" transform="matrix(10.909644,0,0,-10.9091,10.043552,42.349004)"/>
<use data-text="x" xlink:href="#font_1_4" transform="matrix(10.909644,0,0,-10.9091,1.2051087,49.084)"/>
<use data-text="n" xlink:href="#font_4_1" transform="matrix(7.970498,0,0,-7.9701,7.4404184,50.721)"/>
<use data-text="f" xlink:href="#font_1_3" transform="matrix(10.909644,0,0,-10.9091,51.92464,33.273)"/>
<use data-text="f" xlink:href="#font_1_3" transform="matrix(10.909644,0,0,-10.9091,97.2879,33.273)"/>
<use data-text="(" xlink:href="#font_5_1" transform="matrix(10.909644,0,0,-10.9091,103.80423,33.273)"/>
<use data-text="x" xlink:href="#font_1_4" transform="matrix(10.909644,0,0,-10.9091,108.04645,33.273)"/>
<use data-text="1" xlink:href="#font_2_1" transform="matrix(7.970498,0,0,-7.9701,114.28175,34.91)"/>
<use data-text="," xlink:href="#font_1_2" transform="matrix(10.909644,0,0,-10.9091,119.01399,33.273)"/>
<use data-text="x" xlink:href="#font_1_4" transform="matrix(10.909644,0,0,-10.9091,123.84696,33.273)"/>
<use data-text="2" xlink:href="#font_2_2" transform="matrix(7.970498,0,0,-7.9701,130.09754,34.91)"/>
<use data-text="," xlink:href="#font_1_2" transform="matrix(10.909644,0,0,-10.9091,134.83078,33.273)"/>
<use data-text="." xlink:href="#font_1_1" transform="matrix(10.909644,0,0,-10.9091,139.66376,33.273)"/>
<use data-text="." xlink:href="#font_1_1" transform="matrix(10.909644,0,0,-10.9091,144.50763,33.273)"/>
<use data-text="." xlink:href="#font_1_1" transform="matrix(10.909644,0,0,-10.9091,149.3406,33.273)"/>
<use data-text="," xlink:href="#font_1_2" transform="matrix(10.909644,0,0,-10.9091,154.18451,33.273)"/>
<use data-text="x" xlink:href="#font_1_4" transform="matrix(10.909644,0,0,-10.9091,159.02838,33.273)"/>
<use data-text="n" xlink:href="#font_4_1" transform="matrix(7.970498,0,0,-7.9701,165.3093,34.91)"/>
<use data-text=")" xlink:href="#font_5_2" transform="matrix(10.909644,0,0,-10.9091,170.94559,33.273)"/>
<path transform="matrix(1.00005,0,0,-1,2.738186,58.892)" stroke-width=".3985" stroke-linecap="butt" stroke-miterlimit="10" stroke-linejoin="miter" fill="none" stroke="#000000" d="M28.3468 0V56.69362H76.53629V0ZM76.53629 56.69362"/>
<path transform="matrix(1.00005,0,0,-1,2.738186,58.892)" stroke-width=".3985" stroke-linecap="butt" stroke-miterlimit="10" stroke-linejoin="miter" fill="none" stroke="#000000" d="M14.17339 45.35506H27.88852"/>
<path transform="matrix(1.00005,0,0,-1,30.628098,13.536938)" stroke-width=".31879" stroke-linecap="round" stroke-linejoin="round" fill="none" stroke="#000000" d="M-1.19551 1.59401C-1.09587 .99626 0 .09961 .29886 0 0-.09961-1.09587-.99626-1.19551-1.59401"/>
<path transform="matrix(1.00005,0,0,-1,2.738186,58.892)" stroke-width=".3985" stroke-linecap="butt" stroke-miterlimit="10" stroke-linejoin="miter" fill="none" stroke="#000000" d="M14.17339 34.01608H27.88852"/>
<path transform="matrix(1.00005,0,0,-1,30.628098,24.87592)" stroke-width=".31879" stroke-linecap="round" stroke-linejoin="round" fill="none" stroke="#000000" d="M-1.19551 1.59401C-1.09587 .99626 0 .09961 .29886 0 0-.09961-1.09587-.99626-1.19551-1.59401"/>
<path transform="matrix(1.00005,0,0,-1,2.738186,58.892)" stroke-width=".3985" stroke-linecap="butt" stroke-miterlimit="10" stroke-linejoin="miter" fill="none" stroke="#000000" d="M14.17339 11.33855H27.88852"/>
<path transform="matrix(1.00005,0,0,-1,30.628098,47.553449)" stroke-width=".31879" stroke-linecap="round" stroke-linejoin="round" fill="none" stroke="#000000" d="M-1.19551 1.59401C-1.09587 .99626 0 .09961 .29886 0 0-.09961-1.09587-.99626-1.19551-1.59401"/>
<path transform="matrix(1.00005,0,0,-1,2.738186,58.892)" stroke-width=".3985" stroke-linecap="butt" stroke-miterlimit="10" stroke-linejoin="miter" fill="none" stroke="#000000" d="M76.53629 28.3468H90.25142"/>
<path transform="matrix(1.00005,0,0,-1,92.99411,30.545199)" stroke-width=".31879" stroke-linecap="round" stroke-linejoin="round" fill="none" stroke="#000000" d="M-1.19551 1.59401C-1.09587 .99626 0 .09961 .29886 0 0-.09961-1.09587-.99626-1.19551-1.59401"/>
</svg>
