<svg xmlns="http://www.w3.org/2000/svg" xmlns:xlink="http://www.w3.org/1999/xlink" xmlns:inkscape="http://www.inkscape.org/namespaces/inkscape" version="1.1" width="222" height="218" viewBox="0 0 222 218">
<defs>
<path id="font_1_4" d="M.48599244 .38136292C.48999024 .39537049 .48999024 .39736939 .48999024 .40437318 .48999024 .42237855 .47599793 .43138124 .46099855 .43138124 .45098878 .43138124 .43499757 .42536927 .42599488 .41036988 .42399598 .405365 .41600038 .37435914 .4119873 .35635377 .40499879 .33035279 .397995 .30334474 .3919983 .27633668L.34700013 .09628296C.34298707 .08126831 .2999878 .011245728 .23399353 .011245728 .18299866 .011245728 .17199707 .055267335 .17199707 .0922699 .17199707 .1382904 .18899536 .20030213 .22299195 .28833009 .23899842 .3293457 .24299622 .3403473 .24299622 .36035157 .24299622 .405365 .21099854 .4423828 .16099549 .4423828 .06599426 .4423828 .0289917 .29733277 .0289917 .28833009 .0289917 .27833558 .038986207 .27833558 .040985109 .27833558 .050994874 .27833558 .051986696 .28033448 .056991579 .29634095 .083999637 .3903656 .12399292 .42037965 .1579895 .42037965 .1659851 .42037965 .18299866 .42037965 .18299866 .3883667 .18299866 .36335755 .17298889 .3373413 .1659851 .31834413 .12599182 .21231079 .10798645 .1552887 .10798645 .10827637 .10798645 .019256592 .17098999-.0107421879 .22999573-.0107421879 .2689972-.0107421879 .30299378 .0062561037 .33099366 .03425598 .31799317-.017745972 .30599977-.06674194 .2659912-.11973572 .23999024-.15385437 .20199585-.18309021 .1559906-.18309021 .14199829-.18309021 .09700012-.18005371 .07998657-.14074707 .09599304-.14074707 .10899353-.14074707 .12298584-.1287384 .1329956-.11973572 .14299011-.10673523 .14299011-.08773804 .14299011-.056747438 .115997318-.052734376 .10598755-.052734376 .08299255-.052734376 .049987794-.068740848 .049987794-.11773682 .049987794-.16796875 .09399414-.20507813 .1559906-.20507813 .25898744-.20507813 .3619995-.11373901 .3899994-.00074768069L.48599244 .38136292Z"/>
<path id="font_1_3" d="M.33399964 .30233766C.33999635 .32835389 .36299134 .42037965 .43299867 .42037965 .43798829 .42037965 .46199037 .42037965 .48298646 .40734864 .45498658 .402359 .43499757 .37734986 .43499757 .35334779 .43499757 .33735658 .44599916 .31835938 .47299195 .31835938 .49499513 .31835938 .5269928 .3363495 .5269928 .37635804 .5269928 .42837525 .46798707 .4423828 .43399049 .4423828 .37599183 .4423828 .34098817 .38935853 .32899476 .36634828 .3039856 .43237306 .25 .4423828 .22099304 .4423828 .116989139 .4423828 .05999756 .3133545 .05999756 .28834535 .05999756 .27833558 .069992069 .27833558 .07199097 .27833558 .07998657 .27833558 .08299255 .28033448 .084991458 .28933717 .11898804 .39535523 .18499756 .42037965 .21899414 .42037965 .23799134 .42037965 .272995 .4113617 .272995 .35334779 .272995 .32235719 .2559967 .25532533 .21899414 .11528015 .20298767 .053268434 .16799927 .011245728 .12399292 .011245728 .117996219 .011245728 .09498596 .011245728 .07398987 .024276734 .09899902 .029266358 .12098694 .05027771 .12098694 .07827759 .12098694 .105270389 .09899902 .11328125 .083999637 .11328125 .053985597 .11328125 .0289917 .08728027 .0289917 .055267335 .0289917 .009246826 .07899475-.0107421879 .12298584-.0107421879 .18899536-.0107421879 .22499085 .059280397 .22799683 .0652771 .23999024 .028274537 .27598573-.0107421879 .33599855-.0107421879 .43899537-.0107421879 .49598695 .118270877 .49598695 .14328003 .49598695 .1532898 .4869995 .1532898 .48399354 .1532898 .47499085 .1532898 .47299195 .14929199 .47099305 .14228821 .43798829 .03527832 .36999513 .011245728 .33799745 .011245728 .29899598 .011245728 .2829895 .043273927 .2829895 .07727051 .2829895 .09927368 .2889862 .121276859 .2999878 .16529846L.33399964 .30233766Z"/>
<path id="font_2_1" d="M.45999146 .31976319C.45999146 .39982606 .45498658 .47988893 .41999818 .5539398 .37399293 .65000918 .2919922 .6660156 .25 .6660156 .18998719 .6660156 .116989139 .64001467 .07598877 .54693606 .04399109 .47789 .038986207 .39982606 .038986207 .31976319 .038986207 .24472046 .042999269 .15464783 .083999637 .07859802 .1269989-.0024719239 .19999695-.022460938 .24899292-.022460938 .30299378-.022460938 .3789978-.0014648438 .4229889 .09359741 .45498658 .16265869 .45999146 .2407074 .45999146 .31976319M.24899292-.00047302247C.20999146-.00047302247 .15098572 .024551392 .1329956 .12062073 .12199402 .18066406 .12199402 .2727356 .12199402 .3317871 .12199402 .39582826 .12199402 .46188355 .12998963 .5159149 .14898682 .63500979 .22399903 .64401248 .24899292 .64401248 .28199769 .64401248 .34799195 .6259918 .36698915 .52693179 .3769989 .47088624 .3769989 .39482118 .3769989 .3317871 .3769989 .25672914 .3769989 .18867493 .3659973 .12461853 .35099793 .029556275 .2939911-.00047302247 .24899292-.00047302247Z"/>
<path id="font_3_82" d="M.4189911 0V.0309906H.3869934C.29699708 .0309906 .2939911 .041992189 .2939911 .07902527V.64012148C.2939911 .6640167 .2939911 .6660156 .2709961 .6660156 .20899964 .60227969 .12098694 .60227969 .08898926 .60227969V.57128909C.10899353 .57128909 .16799927 .57128909 .21998596 .5972748V.07902527C.21998596 .042999269 .21699524 .0309906 .1269989 .0309906H.09498596V0C.12998963 .0029907227 .21699524 .0029907227 .25698854 .0029907227 .29699708 .0029907227 .38398744 .0029907227 .4189911 0Z"/>
<path id="font_1_1" d="M.6049957 .37234498C.6049957 .4173584 .58699038 .4423523 .5649872 .4423523 .5389862 .4423523 .5119934 .41835023 .5119934 .39533998 .5119934 .38534547 .5169983 .37434388 .5269928 .3653412 .5439911 .35032655 .56199648 .32331849 .56199648 .28131105 .56199648 .24130249 .54299929 .1842804 .5119934 .13827515 .48199464 .09526062 .44499208 .06124878 .397995 .06124878 .34098817 .06124878 .30999757 .09725952 .30099488 .15127564 .31199647 .17727661 .33499146 .24130249 .33499146 .26930238 .33499146 .28131105 .32998658 .2913208 .31698609 .2913208 .30899049 .2913208 .2979889 .2893219 .2899933 .27430726 .2789917 .25430299 .2669983 .18928528 .2669983 .15327454 .23399353 .10626221 .19400025 .06124878 .1309967 .06124878 .06498718 .06124878 .04399109 .120269779 .04399109 .17628479 .04399109 .3013153 .1459961 .40634156 .1459961 .4193573 .1459961 .4303589 .13798523 .4383545 .1269989 .4383545 .11399841 .4383545 .10699463 .425354 .100997928 .41635133 .049987794 .34233094 .011993408 .22329712 .011993408 .13226319 .011993408 .06324768 .034988405-.0107421879 .116989139-.0107421879 .18798828-.0107421879 .23498535 .039245607 .2709961 .09425354 .27999879 .036254884 .31900025-.0107421879 .3809967-.0107421879 .45899964-.0107421879 .5069885 .050247194 .54299929 .12527466 .5669861 .17428589 .6049957 .310318 .6049957 .37234498Z"/>
<path id="font_1_2" d="M.28399659 .6252594C.28399659 .6452637 .269989 .6612549 .24699402 .6612549 .21998596 .6612549 .19299317 .6352539 .19299317 .6082611 .19299317 .5892639 .20698548 .5722656 .23098755 .5722656 .2539978 .5722656 .28399659 .5952606 .28399659 .6252594M.20799256 .24932862C.21998596 .27833558 .21998596 .28033448 .22999573 .30734254 .23799134 .3273468 .24299622 .34135438 .24299622 .36035157 .24299622 .405365 .21099854 .4423828 .16099549 .4423828 .066986087 .4423828 .0289917 .29733277 .0289917 .28833009 .0289917 .27833558 .038986207 .27833558 .040985109 .27833558 .050994874 .27833558 .051986696 .28033448 .056991579 .29634095 .083999637 .3903656 .12399292 .42037965 .1579895 .42037965 .1659851 .42037965 .18299866 .42037965 .18299866 .3883667 .18299866 .36735536 .17599488 .346344 .17199707 .3363495 .1639862 .31033326 .11898804 .19430542 .102996829 .1512909 .09298706 .12528992 .07998657 .0922699 .07998657 .0712738 .07998657 .024261475 .11399841-.0107421879 .1619873-.0107421879 .2559967-.0107421879 .29299928 .1342926 .29299928 .14329529 .29299928 .1532898 .28399659 .1532898 .2809906 .1532898 .2709961 .1532898 .2709961 .15029907 .2659912 .13528443 .24798584 .072265628 .21499634 .011245728 .1639862 .011245728 .14698792 .011245728 .13999939 .021255494 .13999939 .044265748 .13999939 .0692749 .1459961 .08326721 .16899109 .14428711L.20799256 .24932862Z"/>
<path id="font_4_1" d="M.25299073 .33370973C.33198548 .33370973 .38198854 .27557374 .38198854 .17037964 .38198854 .045440675 .31098939 .008514404 .2579956 .008514404 .20298767 .008514404 .12799073 .0284729 .09298706 .08137512 .1289978 .08137512 .1539917 .10437012 .1539917 .13737488 .1539917 .16937256 .1309967 .19238281 .09899902 .19238281 .07199097 .19238281 .04399109 .17536927 .04399109 .13537598 .04399109 .04045105 .1459961-.021484375 .2599945-.021484375 .3929901-.021484375 .48599244 .070388797 .48599244 .17037964 .48599244 .25352479 .41999818 .32969667 .31799317 .3517456 .39698792 .37982179 .45599366 .4479828 .45599366 .52804568 .45599366 .6080475 .3659973 .66503909 .2619934 .66503909 .15499878 .66503909 .07398987 .6070404 .07398987 .53105166 .07398987 .49404908 .09899902 .4780426 .125 .4780426 .1559906 .4780426 .17599488 .5000458 .17599488 .52905276 .17599488 .56604006 .14399719 .5800476 .12199402 .5810547 .1639862 .6360321 .24099732 .6390381 .25898744 .6390381 .2849884 .6390381 .36099244 .6310272 .36099244 .52804568 .36099244 .45799256 .33198548 .41589356 .31799317 .39985658 .28799439 .36878968 .2649994 .36679078 .20399475 .3627777 .18499756 .36177064 .1769867 .36076356 .1769867 .3477478 .1769867 .33370973 .18598938 .33370973 .20298767 .33370973H.25299073Z"/>
<path id="font_5_1" d="M.6589966 .23046875C.6759949 .23046875 .69400027 .23046875 .69400027 .25045777 .69400027 .27046205 .6759949 .27046205 .6589966 .27046205H.117996219C.100997928 .27046205 .08299255 .27046205 .08299255 .25045777 .08299255 .23046875 .100997928 .23046875 .117996219 .23046875H.6589966Z"/>
<path id="font_2_2" d="M.2939911 .64004519C.2939911 .66400149 .2939911 .6660156 .2709961 .6660156 .20899964 .60227969 .12098694 .60227969 .08898926 .60227969V.57128909C.10899353 .57128909 .16799927 .57128909 .21998596 .5972748V.07902527C.21998596 .042999269 .21699524 .0309906 .1269989 .0309906H.09498596V0C.12998963 .0029907227 .21699524 .0029907227 .25698854 .0029907227 .29699708 .0029907227 .38398744 .0029907227 .4189911 0V.0309906H.3869934C.29699708 .0309906 .2939911 .041992189 .2939911 .07902527V.64004519Z"/>
<path id="font_4_2" d="M.13999939 .5618439C.15299988 .55784609 .19299317 .54785159 .23498535 .54785159 .3600006 .54785159 .43598939 .6358948 .43598939 .6510315 .43598939 .6620331 .42900086 .66503909 .42399598 .66503909 .42199708 .66503909 .41999818 .66503909 .41099549 .6600342 .37199403 .6450348 .32598878 .632843 .27198792 .632843 .21299744 .632843 .1639862 .6480255 .1329956 .6600342 .12298584 .66503909 .12098694 .66503909 .11999512 .66503909 .10699463 .66503909 .10699463 .6540375 .10699463 .6358948V.34292604C.10699463 .32492066 .10699463 .312912 .12298584 .312912 .1309967 .312912 .13398743 .3169098 .13899231 .32492066 .15098572 .33992005 .18899536 .39093019 .27398683 .39093019 .32998658 .39093019 .35699464 .34492494 .3659973 .32591249 .3829956 .28990174 .3849945 .24389649 .3849945 .20487976 .3849945 .1678772 .38398744 .11387634 .35598756 .069732669 .33699037 .039611818 .29699708 .008514404 .24398804 .008514404 .1789856 .008514404 .114990238 .0496521 .09199524 .11488342 .09498596 .11387634 .100997928 .11387634 .101989749 .11387634 .12998963 .11387634 .1519928 .13188172 .1519928 .16288758 .1519928 .19989014 .12298584 .21289063 .102996829 .21289063 .084991458 .21289063 .052993776 .20288086 .052993776 .15988159 .052993776 .069732669 .1309967-.021484375 .24598694-.021484375 .37098695-.021484375 .47698976 .07574463 .47698976 .19989014 .47698976 .31591798 .3929901 .4189453 .2749939 .4189453 .22499085 .4189453 .17799378 .40293885 .13999939 .368927V.5618439Z"/>
<path id="font_4_3" d="M.5059967 .608551C.5149994 .6195526 .5149994 .6215515 .5149994 .6435547H.26098634C.23599243 .6435547 .20498657 .64456179 .17999268 .64660647 .12799073 .65068057 .1269989 .6597748 .12399292 .67578127H.09298706L.05899048 .46453858H.08999634C.09199524 .47953797 .102996829 .54855349 .116989139 .5565491 .12799073 .56155398 .20298767 .56155398 .21798706 .56155398H.42999269L.32699586 .4235382C.21299744 .27153016 .18899536 .11351013 .18899536 .03451538 .18899536 .024505616 .18899536-.021484375 .23599243-.021484375 .2829895-.021484375 .2829895 .023513794 .2829895 .035507204V.08351135C.2829895 .2275238 .30699159 .34553529 .35598756 .41053773L.5059967 .608551Z"/>
</defs>
<path transform="matrix(1.00003,0,0,-1.00005,108.69753,114.34691)" stroke-width=".3985" stroke-linecap="butt" stroke-miterlimit="10" stroke-linejoin="miter" fill="none" stroke="#000000" d="M-102.05423 0H101.59595"/>
<path transform="matrix(1.00003,0,0,-1.00005,210.29654,114.34691)" stroke-width=".31879" stroke-linecap="round" stroke-linejoin="round" fill="none" stroke="#000000" d="M-1.19551 1.59401C-1.09587 .99626 0 .09961 .29886 0 0-.09961-1.09587-.99626-1.19551-1.59401"/>
<path transform="matrix(1.00003,0,0,-1.00005,108.69753,114.34691)" stroke-width=".3985" stroke-linecap="butt" stroke-miterlimit="10" stroke-linejoin="miter" fill="none" stroke="#000000" d="M0-102.05423V101.59595"/>
<path transform="matrix(0,-1.00005,-1.00003,-0,108.69753,12.745888)" stroke-width=".31879" stroke-linecap="round" stroke-linejoin="round" fill="none" stroke="#000000" d="M-1.19551 1.59401C-1.09587 .99626 0 .09961 .29886 0 0-.09961-1.09587-.99626-1.19551-1.59401"/>
<use data-text="y" xlink:href="#font_1_4" transform="matrix(10.909428,0,0,-10.909644,105.827449,6.330513)"/>
<use data-text="x" xlink:href="#font_1_3" transform="matrix(10.909428,0,0,-10.909644,214.58972,116.69603)"/>
<use data-text="0" xlink:href="#font_2_1" transform="matrix(10.909428,0,0,-10.909644,112.532649,125.213459)"/>
<path transform="matrix(1.00003,0,0,-1.00005,108.69753,114.34691)" stroke-width=".3985" stroke-linecap="butt" stroke-miterlimit="10" stroke-linejoin="miter" fill="none" stroke="#000000" d="M90.71013 0C90.71013 50.09845 50.09845 90.71013 0 90.71013-50.09845 90.71013-90.71013 50.09845-90.71013 0-90.71013-50.09845-50.09845-90.71013 0-90.71013 50.09845-90.71013 90.71013-50.09845 90.71013 0ZM0 0"/>
<path transform="matrix(1.00003,0,0,-1.00005,108.69753,114.34691)" d="M92.98276 0C92.98276 1.25252 91.9674 2.26787 90.71487 2.26787 89.46236 2.26787 88.447 1.25252 88.447 0 88.447-1.25252 89.46236-2.26787 90.71487-2.26787 91.9674-2.26787 92.98276-1.25252 92.98276 0ZM90.71487 0"/>
<path transform="matrix(1.00003,0,0,-1.00005,108.69753,114.34691)" stroke-width=".3985" stroke-linecap="butt" stroke-miterlimit="10" stroke-linejoin="miter" fill="none" stroke="#000000" d="M92.98276 0C92.98276 1.25252 91.9674 2.26787 90.71487 2.26787 89.46236 2.26787 88.447 1.25252 88.447 0 88.447-1.25252 89.46236-2.26787 90.71487-2.26787 91.9674-2.26787 92.98276-1.25252 92.98276 0ZM90.71487 0"/>
<path transform="matrix(1.00003,0,0,-1.00005,108.69753,114.34691)" d="M66.41304 64.14517C66.41304 65.39769 65.39769 66.41304 64.14517 66.41304 62.89264 66.41304 61.87729 65.39769 61.87729 64.14517 61.87729 62.89264 62.89264 61.87729 64.14517 61.87729 65.39769 61.87729 66.41304 62.89264 66.41304 64.14517ZM64.14517 64.14517"/>
<path transform="matrix(1.00003,0,0,-1.00005,108.69753,114.34691)" stroke-width=".3985" stroke-linecap="butt" stroke-miterlimit="10" stroke-linejoin="miter" fill="none" stroke="#000000" d="M66.41304 64.14517C66.41304 65.39769 65.39769 66.41304 64.14517 66.41304 62.89264 66.41304 61.87729 65.39769 61.87729 64.14517 61.87729 62.89264 62.89264 61.87729 64.14517 61.87729 65.39769 61.87729 66.41304 62.89264 66.41304 64.14517ZM64.14517 64.14517"/>
<path transform="matrix(1.00003,0,0,-1.00005,108.69753,114.34691)" d="M2.26787 90.71487C2.26787 91.9674 1.25252 92.98276 0 92.98276-1.25252 92.98276-2.26787 91.9674-2.26787 90.71487-2.26787 89.46236-1.25252 88.447 0 88.447 1.25252 88.447 2.26787 89.46236 2.26787 90.71487ZM0 90.71487"/>
<path transform="matrix(1.00003,0,0,-1.00005,108.69753,114.34691)" stroke-width=".3985" stroke-linecap="butt" stroke-miterlimit="10" stroke-linejoin="miter" fill="none" stroke="#000000" d="M2.26787 90.71487C2.26787 91.9674 1.25252 92.98276 0 92.98276-1.25252 92.98276-2.26787 91.9674-2.26787 90.71487-2.26787 89.46236-1.25252 88.447 0 88.447 1.25252 88.447 2.26787 89.46236 2.26787 90.71487ZM0 90.71487"/>
<path transform="matrix(1.00003,0,0,-1.00005,108.69753,114.34691)" d="M-61.87729 64.14517C-61.87729 65.39769-62.89264 66.41304-64.14517 66.41304-65.39769 66.41304-66.41304 65.39769-66.41304 64.14517-66.41304 62.89264-65.39769 61.87729-64.14517 61.87729-62.89264 61.87729-61.87729 62.89264-61.87729 64.14517ZM-64.14517 64.14517"/>
<path transform="matrix(1.00003,0,0,-1.00005,108.69753,114.34691)" stroke-width=".3985" stroke-linecap="butt" stroke-miterlimit="10" stroke-linejoin="miter" fill="none" stroke="#000000" d="M-61.87729 64.14517C-61.87729 65.39769-62.89264 66.41304-64.14517 66.41304-65.39769 66.41304-66.41304 65.39769-66.41304 64.14517-66.41304 62.89264-65.39769 61.87729-64.14517 61.87729-62.89264 61.87729-61.87729 62.89264-61.87729 64.14517ZM-64.14517 64.14517"/>
<path transform="matrix(1.00003,0,0,-1.00005,108.69753,114.34691)" d="M-88.447 0C-88.447 1.25252-89.46236 2.26787-90.71487 2.26787-91.9674 2.26787-92.98276 1.25252-92.98276 0-92.98276-1.25252-91.9674-2.26787-90.71487-2.26787-89.46236-2.26787-88.447-1.25252-88.447 0ZM-90.71487 0"/>
<path transform="matrix(1.00003,0,0,-1.00005,108.69753,114.34691)" stroke-width=".3985" stroke-linecap="butt" stroke-miterlimit="10" stroke-linejoin="miter" fill="none" stroke="#000000" d="M-88.447 0C-88.447 1.25252-89.46236 2.26787-90.71487 2.26787-91.9674 2.26787-92.98276 1.25252-92.98276 0-92.98276-1.25252-91.9674-2.26787-90.71487-2.26787-89.46236-2.26787-88.447-1.25252-88.447 0ZM-90.71487 0"/>
<path transform="matrix(1.00003,0,0,-1.00005,108.69753,114.34691)" d="M-61.87729-64.14517C-61.87729-62.89264-62.89264-61.87729-64.14517-61.87729-65.39769-61.87729-66.41304-62.89264-66.41304-64.14517-66.41304-65.39769-65.39769-66.41304-64.14517-66.41304-62.89264-66.41304-61.87729-65.39769-61.87729-64.14517ZM-64.14517-64.14517"/>
<path transform="matrix(1.00003,0,0,-1.00005,108.69753,114.34691)" stroke-width=".3985" stroke-linecap="butt" stroke-miterlimit="10" stroke-linejoin="miter" fill="none" stroke="#000000" d="M-61.87729-64.14517C-61.87729-62.89264-62.89264-61.87729-64.14517-61.87729-65.39769-61.87729-66.41304-62.89264-66.41304-64.14517-66.41304-65.39769-65.39769-66.41304-64.14517-66.41304-62.89264-66.41304-61.87729-65.39769-61.87729-64.14517ZM-64.14517-64.14517"/>
<path transform="matrix(1.00003,0,0,-1.00005,108.69753,114.34691)" d="M2.26787-90.71487C2.26787-89.46236 1.25252-88.447 0-88.447-1.25252-88.447-2.26787-89.46236-2.26787-90.71487-2.26787-91.9674-1.25252-92.98276 0-92.98276 1.25252-92.98276 2.26787-91.9674 2.26787-90.71487ZM0-90.71487"/>
<path transform="matrix(1.00003,0,0,-1.00005,108.69753,114.34691)" stroke-width=".3985" stroke-linecap="butt" stroke-miterlimit="10" stroke-linejoin="miter" fill="none" stroke="#000000" d="M2.26787-90.71487C2.26787-89.46236 1.25252-88.447 0-88.447-1.25252-88.447-2.26787-89.46236-2.26787-90.71487-2.26787-91.9674-1.25252-92.98276 0-92.98276 1.25252-92.98276 2.26787-91.9674 2.26787-90.71487ZM0-90.71487"/>
<path transform="matrix(1.00003,0,0,-1.00005,108.69753,114.34691)" d="M66.41304-64.14517C66.41304-62.89264 65.39769-61.87729 64.14517-61.87729 62.89264-61.87729 61.87729-62.89264 61.87729-64.14517 61.87729-65.39769 62.89264-66.41304 64.14517-66.41304 65.39769-66.41304 66.41304-65.39769 66.41304-64.14517ZM64.14517-64.14517"/>
<path transform="matrix(1.00003,0,0,-1.00005,108.69753,114.34691)" stroke-width=".3985" stroke-linecap="butt" stroke-miterlimit="10" stroke-linejoin="miter" fill="none" stroke="#000000" d="M66.41304-64.14517C66.41304-62.89264 65.39769-61.87729 64.14517-61.87729 62.89264-61.87729 61.87729-62.89264 61.87729-64.14517 61.87729-65.39769 62.89264-66.41304 64.14517-66.41304 65.39769-66.41304 66.41304-65.39769 66.41304-64.14517ZM64.14517-64.14517"/>
<use data-text="1" xlink:href="#font_3_82" transform="matrix(10.909428,0,0,-10.909644,203.25037,110.51172)"/>
<use data-text="&#x03c9;" xlink:href="#font_1_1" transform="matrix(10.909428,0,0,-10.909644,176.67958,46.36351)"/>
<use data-text="i" xlink:href="#font_1_2" transform="matrix(10.909428,0,0,-10.909644,101.1033,19.792183)"/>
<use data-text="&#x03c9;" xlink:href="#font_1_1" transform="matrix(10.909428,0,0,-10.909644,28.800133,46.36351)"/>
<use data-text="3" xlink:href="#font_4_1" transform="matrix(7.9703395,0,0,-7.970498,35.981348,42.40531)"/>
<use data-text="&#x2212;" xlink:href="#font_5_1" transform="matrix(10.909428,0,0,-10.909644,.20426941,109.60267)"/>
<use data-text="1" xlink:href="#font_2_2" transform="matrix(10.909428,0,0,-10.909644,8.688507,109.60267)"/>
<use data-text="&#x03c9;" xlink:href="#font_1_1" transform="matrix(10.909428,0,0,-10.909644,28.800133,191.42676)"/>
<use data-text="5" xlink:href="#font_4_2" transform="matrix(7.9703395,0,0,-7.970498,35.981348,187.46857)"/>
<use data-text="&#x2212;" xlink:href="#font_5_1" transform="matrix(10.909428,0,0,-10.909644,92.61805,216.09699)"/>
<use data-text="i" xlink:href="#font_1_2" transform="matrix(10.909428,0,0,-10.909644,101.10229,216.09699)"/>
<use data-text="&#x03c9;" xlink:href="#font_1_1" transform="matrix(10.909428,0,0,-10.909644,176.67958,191.42676)"/>
<use data-text="7" xlink:href="#font_4_3" transform="matrix(7.9703395,0,0,-7.970498,183.8608,187.46857)"/>
</svg>
