<svg xmlns="http://www.w3.org/2000/svg" xmlns:xlink="http://www.w3.org/1999/xlink" xmlns:inkscape="http://www.inkscape.org/namespaces/inkscape" version="1.1" width="158" height="72" viewBox="0 0 158 72">
<defs>
<path id="font_1_1" d="M.644989 .69506838C.644989 .69807437 .6429901 .7050781 .6339874 .7050781 .6289978 .7050781 .6279907 .70407107 .6159973 .6900635L.56799319 .6330414C.5419922 .68006899 .48999024 .7050781 .4249878 .7050781 .2979889 .7050781 .17799378 .58999636 .17799378 .4689026 .17799378 .38783265 .23098755 .34179688 .28199769 .32678224L.3889923 .2987671C.42599488 .2897644 .48098756 .27474977 .48098756 .19267273 .48098756 .1026001 .39898683 .008529663 .30099488 .008529663 .23699951 .008529663 .12599182 .030548096 .12599182 .15464783 .12599182 .17866516 .1309967 .2026825 .13198853 .20869446 .1329956 .21269226 .13398743 .21369934 .13398743 .21569824 .13398743 .22570801 .1269989 .22669983 .12199402 .22669983 .116989139 .22669983 .114990238 .22570801 .11199951 .22270203 .10798645 .21870423 .051986696-.009475708 .051986696-.012466431 .051986696-.018463135 .056991579-.022460938 .06298828-.022460938 .067993167-.022460938 .068984989-.021469117 .08099365-.007461548L.12998963 .049560548C.17298889-.008468628 .24099732-.022460938 .29899598-.022460938 .43499757-.022460938 .5529938 .11061096 .5529938 .2347107 .5529938 .30377198 .5189972 .33779908 .5039978 .35180665 .48098756 .37483216 .46598817 .37882997 .3769989 .40185548 .35499574 .40785218 .31900025 .41786195 .30999757 .41986085 .2829895 .42886354 .24899292 .457901 .24899292 .51094058 .24899292 .59199526 .32899476 .677063 .42399598 .677063 .5069885 .677063 .56799319 .6340332 .56799319 .52194216 .56799319 .48991395 .56399539 .47190858 .56399539 .4658966 .56399539 .4649048 .56399539 .45588685 .57598879 .45588685 .58599856 .45588685 .58699038 .45889283 .59098818 .47590638L.644989 .69506838Z"/>
<path id="font_2_1" d="M.25299073 .33370973C.33198548 .33370973 .38198854 .27557374 .38198854 .17037964 .38198854 .045440675 .31098939 .008514404 .2579956 .008514404 .20298767 .008514404 .12799073 .0284729 .09298706 .08137512 .1289978 .08137512 .1539917 .10437012 .1539917 .13737488 .1539917 .16937256 .1309967 .19238281 .09899902 .19238281 .07199097 .19238281 .04399109 .17536927 .04399109 .13537598 .04399109 .04045105 .1459961-.021484375 .2599945-.021484375 .3929901-.021484375 .48599244 .070388797 .48599244 .17037964 .48599244 .25352479 .41999818 .32969667 .31799317 .3517456 .39698792 .37982179 .45599366 .4479828 .45599366 .52804568 .45599366 .6080475 .3659973 .66503909 .2619934 .66503909 .15499878 .66503909 .07398987 .6070404 .07398987 .53105166 .07398987 .49404908 .09899902 .4780426 .125 .4780426 .1559906 .4780426 .17599488 .5000458 .17599488 .52905276 .17599488 .56604006 .14399719 .5800476 .12199402 .5810547 .1639862 .6360321 .24099732 .6390381 .25898744 .6390381 .2849884 .6390381 .36099244 .6310272 .36099244 .52804568 .36099244 .45799256 .33198548 .41589356 .31799317 .39985658 .28799439 .36878968 .2649994 .36679078 .20399475 .3627777 .18499756 .36177064 .1769867 .36076356 .1769867 .3477478 .1769867 .33370973 .18598938 .33370973 .20298767 .33370973H.25299073Z"/>
<path id="font_3_1" d="M.2919922 .5760956C.2919922 .63604739 .2919922 .65904238 .32499696 .6890259 .34498597 .7060089 .375 .7220001 .42099 .72499087 .43199159 .7259979 .43998719 .7259979 .43998719 .7369995 .43998719 .75 .43099977 .75 .41799928 .75 .31999208 .75 .22200012 .7030029 .22099304 .62405398V.3682251C.21998596 .33424378 .19099427 .2682953 .085998538 .2632904 .07699585 .26229859 .07299805 .25630189 .07299805 .25028993 .07299805 .23829651 .08299255 .23730469 .09098816 .23730469 .16099549 .2342987 .20899964 .1942749 .21899414 .14723206 .22099304 .13822937 .22099304 .13623047 .22099304 .10121155V-.09692383C.22099304-.13595581 .22099304-.1849823 .29100038-.2210083 .34399415-.24900818 .40699769-.25 .41799928-.25 .43099977-.25 .43998719-.25 .43998719-.23701477 .43998719-.22601319 .42999269-.2250061 .4249878-.2250061 .33299256-.2190094 .3019867-.16897583 .29499818-.14195252 .2919922-.12994385 .2919922-.12794495 .2919922-.091918949V.058181764C.2919922 .08720398 .2919922 .13623047 .29100038 .14523316 .2809906 .20127869 .23199463 .2342987 .17599488 .25028993 .2919922 .28327943 .2919922 .3522339 .2919922 .39620973V.5760956Z"/>
<path id="font_4_2" d="M.18399048 .4423828 .039993287 .43138124V.40037538C.10398865 .40037538 .11299133 .3943634 .11299133 .34532167V.077041629C.11299133 .0309906 .101989749 .0309906 .035995485 .0309906V0C.08099365 .0019989014 .101989749 .0029907227 .1459961 .0029907227 .1619873 .0029907227 .20399475 .0029907227 .25299073 0V.0309906C.18798828 .0309906 .18399048 .035995485 .18399048 .075042728V.4423828M.18699646 .615921C.18699646 .6459198 .16299439 .6699219 .1329956 .6699219 .101989749 .6699219 .07899475 .6449127 .07899475 .615921 .07899475 .58691409 .101989749 .56192019 .1329956 .56192019 .16299439 .56192019 .18699646 .585907 .18699646 .615921Z"/>
<path id="font_4_1" d="M.3889923 .120285037C.3889923 .10227966 .3889923 .09927368 .37399293 .07827759 .34298707 .0332489 .29699708 .014251709 .25698854 .014251709 .21398926 .014251709 .17399597 .038253786 .147995 .08027649 .12199402 .123291019 .11999512 .18229676 .11999512 .21430969 .11999512 .26132203 .12599182 .3143463 .1519928 .35435487 .17399597 .3863678 .21499634 .41737367 .2679901 .41737367 .30999757 .41737367 .34999085 .39637757 .3769989 .35835267 .3889923 .3423462 .3889923 .34135438 .3889923 .32234193V.120285037M.3919983 .38336183C.3869934 .38937379 .34199525 .4423828 .2639923 .4423828 .14099121 .4423828 .033996583 .34436036 .033996583 .21531677 .033996583 .090270999 .13398743-.0107421879 .25299073-.0107421879 .32598878-.0107421879 .37098695 .03225708 .3889923 .053268434V-.011001587L.5399933 0V.0309906C.47200013 .0309906 .46299745 .037994386 .46299745 .087020877V.69433596L.31498719 .68333438V.6523285C.3829956 .6523285 .3919983 .6453247 .3919983 .5962982V.38336183Z"/>
<path id="font_5_3" d="M.18199158 .015991211C.18199158-.017044068 .18199158-.09921265 .10798645-.17036438 .101989749-.17636109 .101989749-.17736817 .101989749-.18136597 .101989749-.18836975 .10899353-.19335938 .114990238-.19335938 .12599182-.19335938 .20698548-.115249637 .20698548 .0019989014 .20698548 .06399536 .18499756 .10798645 .14199829 .10798645 .10798645 .10798645 .08799744 .08198547 .08799744 .053985597 .08799744 .025985718 .10798645 0 .14199829 0 .15699768 0 .17199707 .004989624 .18199158 .015991211Z"/>
<path id="font_5_2" d="M.034988405-.16481018C.0309906-.17881775 .0309906-.18081665 .0309906-.18682862 .0309906-.2038269 .042999269-.21582031 .06199646-.21582031 .07798767-.21582031 .09199524-.2058258 .099990848-.19082642 .101989749-.18682862 .13699341-.043762208 .14199829-.024749756 .1519928 .01524353 .1519928 .01725769 .16299439 .053268434 .17799378 .023254395 .20999146-.0107421879 .2639923-.0107421879 .38598634-.0107421879 .5159912 .13128662 .5159912 .2773285 .5159912 .37435914 .45599366 .4423828 .36999513 .4423828 .272995 .4423828 .1639862 .34835816 .13198853 .22032166L.034988405-.16481018M.2630005 .014251709C.19099427 .014251709 .17399597 .0942688 .17399597 .10227966 .17399597 .10827637 .19898987 .2033081 .20298767 .21731568 .25099183 .4033661 .34599305 .41737367 .36898805 .41737367 .4149933 .41737367 .44099427 .3753662 .44099427 .3193512 .44099427 .28633119 .42099 .16830445 .37799073 .09628296 .35398866 .055267335 .30799867 .014251709 .2630005 .014251709Z"/>
<path id="font_6_1" d="M.35899354 .6349335C.35899354 .66503909 .35499574 .66503909 .32499696 .66503909 .25898744 .60058596 .15699768 .60058596 .12098694 .60058596V.5615845C.14698792 .5615845 .21299744 .5615845 .272995 .58958438V.08496094C.272995 .051986696 .272995 .038986207 .16999817 .038986207H.1269989V0C.18199158 .0039978029 .2599945 .0039978029 .31599427 .0039978029 .37199403 .0039978029 .44999696 .0039978029 .5049896 0V.038986207H.46199037C.35899354 .038986207 .35899354 .051986696 .35899354 .08496094V.6349335Z"/>
<path id="font_6_2" d="M.5379944 .18702698H.5009918C.49899293 .17301941 .4889984 .10699463 .47399903 .09599304 .46699525 .08999634 .38598634 .08999634 .37199403 .08999634H.18499756L.31298829 .19403076C.34700013 .22103882 .43598939 .28504945 .46699525 .31506349 .49699403 .3450775 .5379944 .39608766 .5379944 .46710206 .5379944 .5920563 .4249878 .66503909 .29100038 .66503909 .1619873 .66503909 .07199097 .58006289 .07199097 .48609925 .07199097 .43510438 .114990238 .42910768 .12599182 .42910768 .15098572 .42910768 .17999268 .44709779 .17999268 .48310853 .17999268 .50509646 .16699219 .5371094 .12298584 .5371094 .1459961 .5880585 .20698548 .6260376 .27598573 .6260376 .3809967 .6260376 .43699647 .5480957 .43699647 .46710206 .43699647 .39608766 .3899994 .32305909 .31999208 .25904847L.08299255 .041992189C.07299805 .03199768 .07199097 .0309906 .07199097 0H.5069885L.5379944 .18702698Z"/>
<path id="font_3_2" d="M.2919922 .13223267C.29299928 .1662445 .32199098 .2322998 .4269867 .23730469 .43598939 .23829651 .43998719 .24429322 .43998719 .25028993 .43998719 .26229859 .42999269 .2632904 .42199708 .2632904 .35198976 .2662964 .3039856 .3062744 .2939911 .35324098 .2919922 .3622284 .2919922 .3642273 .2919922 .3992157V.5970764C.2919922 .63604739 .2919922 .6850281 .22200012 .72099307 .16899109 .74798586 .10598755 .75 .09498596 .75 .08299255 .75 .07299805 .75 .07299805 .7369995 .07299805 .7259979 .08299255 .72499087 .08799744 .72499087 .17999268 .71899417 .21099854 .66903689 .21798706 .64204409 .22099304 .63005068 .22099304 .62805178 .22099304 .5920868V.44218446C.22099304 .41319276 .22099304 .3642273 .22200012 .35523988 .23199463 .29927064 .2809906 .2662964 .33699037 .25028993 .22099304 .21728516 .22099304 .14823914 .22099304 .10420227V-.075912479C.22099304-.13595581 .22099304-.15896607 .18798828-.1889801 .16799927-.20599365 .13798523-.22200012 .09199524-.2250061 .08099365-.22601319 .07299805-.22601319 .07299805-.23701477 .07299805-.25 .08299255-.25 .09498596-.25 .19299317-.25 .29100038-.20298767 .2919922-.12394714V.13223267Z"/>
<path id="font_5_1" d="M.23699951 .35734559C.24198914 .37535096 .25099183 .4093628 .25099183 .41337586 .25099183 .42938233 .23799134 .4423828 .21998596 .4423828 .18798828 .4423828 .17999268 .41337586 .17799378 .4033661L.034988405-.16481018C.0309906-.17881775 .0309906-.18081665 .0309906-.18682862 .0309906-.2038269 .042999269-.21582031 .06199646-.21582031 .09399414-.21582031 .101989749-.18582154 .10499573-.17082215L.15299988 .019256592C.1789856-.0017547608 .21899414-.0107421879 .2519989-.0107421879 .28799439-.0107421879 .33599855 .00024414063 .3880005 .061264039 .3999939 .008255005 .44699098-.0107421879 .48098756-.0107421879 .5099945-.0107421879 .5349884 .002243042 .5569916 .044265748 .57499697 .07727051 .58898928 .13928223 .58898928 .14329529 .58898928 .14828491 .58599856 .1552887 .57598879 .1552887 .56399539 .1552887 .5629883 .15028382 .5589905 .13128662 .5369873 .044265748 .5149994 .014251709 .48399354 .014251709 .45899964 .014251709 .45298768 .038253786 .45298768 .060256959 .45298768 .07926941 .45799256 .09927368 .46699525 .1342926L.49198915 .23731995 .5149994 .32633973C.5209961 .35235597 .5329895 .3983612 .5329895 .40237428 .5329895 .41537477 .5239868 .43138124 .5019989 .43138124 .46998597 .43138124 .46299745 .40437318 .45599366 .37635804L.43499757 .29333497C.4249878 .25332643 .3959961 .13728333 .3889923 .11128235 .3880005 .107284549 .33898927 .014251709 .2559967 .014251709 .18099976 .014251709 .18099976 .08427429 .18099976 .10227966 .18099976 .12528992 .18399048 .14329529 .19499207 .18930054L.23699951 .35734559Z"/>
<path id="font_6_3" d="M.2939911 .33203126C.3789978 .33203126 .43598939 .274765 .43598939 .17237854 .43598939 .062408449 .36999513 .014511108 .29699708 .014511108 .269989 .014511108 .16699219 .020492554 .12199402 .07836914 .16099549 .0823822 .1769867 .10836792 .1769867 .13537598 .1769867 .16937256 .15299988 .19238281 .11999512 .19238281 .09298706 .19238281 .06298828 .17536927 .06298828 .13337708 .06298828 .034469606 .17298889-.021484375 .2999878-.021484375 .44799806-.021484375 .5469971 .07337952 .5469971 .17237854 .5469971 .24562073 .4909973 .3229828 .37199403 .35302735 .45098878 .37902833 .5149994 .44306947 .5149994 .5251007 .5149994 .60505679 .42099 .66503909 .30099488 .66503909 .18399048 .66503909 .09498596 .61105349 .09498596 .5290985 .09498596 .48609925 .12799073 .47409059 .147995 .47409059 .17399597 .47409059 .20098877 .49209596 .20098877 .5270996 .20098877 .5580902 .1789856 .5760956 .1519928 .5800934 .19898987 .6320343 .2899933 .6320343 .29899598 .6320343 .34999085 .6320343 .4139862 .60806277 .4139862 .5251007 .4139862 .47009278 .3829956 .37402345 .2829895 .36802674 .2649994 .36701966 .23799134 .36502076 .22898865 .36502076 .21899414 .36402894 .20799256 .36302186 .20799256 .34802247 .20799256 .33203126 .21899414 .33203126 .23599243 .33203126H.2939911Z"/>
</defs>
<use data-text="S" xlink:href="#font_1_1" transform="matrix(10.910082,0,0,-10.909644,76.47258,9.090654)"/>
<use data-text="3" xlink:href="#font_2_1" transform="matrix(7.970817,0,0,-7.970498,83.16218,10.726736)"/>
<use data-text="{" xlink:href="#font_3_1" transform="matrix(8.967207,0,0,-8.966848,1.2057991,38.18911)"/>
<use data-text="i" xlink:href="#font_4_2" transform="matrix(8.967207,0,0,-8.966848,5.8132097,38.18911)"/>
<use data-text="d" xlink:href="#font_4_1" transform="matrix(8.967207,0,0,-8.966848,8.368866,38.18911)"/>
<use data-text="," xlink:href="#font_5_3" transform="matrix(8.967207,0,0,-8.966848,13.493904,38.18911)"/>
<use data-text="&#x03c1;" xlink:href="#font_5_2" transform="matrix(8.967207,0,0,-8.966848,17.582955,38.18911)"/>
<use data-text="1" xlink:href="#font_6_1" transform="matrix(5.978138,0,0,-5.9778988,22.3377,39.185159)"/>
<use data-text="," xlink:href="#font_5_3" transform="matrix(8.967207,0,0,-8.966848,26.489075,38.18911)"/>
<use data-text="&#x03c1;" xlink:href="#font_5_2" transform="matrix(8.967207,0,0,-8.966848,30.578125,38.18911)"/>
<use data-text="2" xlink:href="#font_6_2" transform="matrix(5.978138,0,0,-5.9778988,35.33187,39.185159)"/>
<use data-text="}" xlink:href="#font_3_2" transform="matrix(8.967207,0,0,-8.966848,39.483247,38.18911)"/>
<use data-text="{" xlink:href="#font_3_1" transform="matrix(8.967207,0,0,-8.966848,46.99092,38.18911)"/>
<use data-text="i" xlink:href="#font_4_2" transform="matrix(8.967207,0,0,-8.966848,51.59833,38.18911)"/>
<use data-text="d" xlink:href="#font_4_1" transform="matrix(8.967207,0,0,-8.966848,54.153989,38.18911)"/>
<use data-text="," xlink:href="#font_5_3" transform="matrix(8.967207,0,0,-8.966848,59.279027,38.18911)"/>
<use data-text="&#x00b5;" xlink:href="#font_5_1" transform="matrix(8.967207,0,0,-8.966848,63.368078,38.18911)"/>
<use data-text="1" xlink:href="#font_6_1" transform="matrix(5.978138,0,0,-5.9778988,68.926898,39.185159)"/>
<use data-text="}" xlink:href="#font_3_2" transform="matrix(8.967207,0,0,-8.966848,73.07927,38.18911)"/>
<use data-text="{" xlink:href="#font_3_1" transform="matrix(8.967207,0,0,-8.966848,86.6805,38.18911)"/>
<use data-text="i" xlink:href="#font_4_2" transform="matrix(8.967207,0,0,-8.966848,91.2879,38.18911)"/>
<use data-text="d" xlink:href="#font_4_1" transform="matrix(8.967207,0,0,-8.966848,93.84356,38.18911)"/>
<use data-text="," xlink:href="#font_5_3" transform="matrix(8.967207,0,0,-8.966848,98.9686,38.18911)"/>
<use data-text="&#x00b5;" xlink:href="#font_5_1" transform="matrix(8.967207,0,0,-8.966848,103.05765,38.18911)"/>
<use data-text="2" xlink:href="#font_6_2" transform="matrix(5.978138,0,0,-5.9778988,108.61647,39.185159)"/>
<use data-text="}" xlink:href="#font_3_2" transform="matrix(8.967207,0,0,-8.966848,112.768848,38.18911)"/>
<use data-text="{" xlink:href="#font_3_1" transform="matrix(8.967207,0,0,-8.966848,126.370059,38.18911)"/>
<use data-text="i" xlink:href="#font_4_2" transform="matrix(8.967207,0,0,-8.966848,130.97748,38.18911)"/>
<use data-text="d" xlink:href="#font_4_1" transform="matrix(8.967207,0,0,-8.966848,133.53313,38.18911)"/>
<use data-text="," xlink:href="#font_5_3" transform="matrix(8.967207,0,0,-8.966848,138.65818,38.18911)"/>
<use data-text="&#x00b5;" xlink:href="#font_5_1" transform="matrix(8.967207,0,0,-8.966848,142.74723,38.18911)"/>
<use data-text="3" xlink:href="#font_6_3" transform="matrix(5.978138,0,0,-5.9778988,148.30603,39.185159)"/>
<use data-text="}" xlink:href="#font_3_2" transform="matrix(8.967207,0,0,-8.966848,152.4584,38.18911)"/>
<use data-text="{" xlink:href="#font_3_1" transform="matrix(8.967207,0,0,-8.966848,73.73633,67.9546)"/>
<use data-text="i" xlink:href="#font_4_2" transform="matrix(8.967207,0,0,-8.966848,78.343738,67.9546)"/>
<use data-text="d" xlink:href="#font_4_1" transform="matrix(8.967207,0,0,-8.966848,80.8994,67.9546)"/>
<use data-text="}" xlink:href="#font_3_2" transform="matrix(8.967207,0,0,-8.966848,86.02443,67.9546)"/>
<path transform="matrix(1.00009,0,0,-1.00005,22.64973,35.946996)" stroke-width=".3985" stroke-linecap="butt" stroke-miterlimit="10" stroke-linejoin="miter" fill="none" stroke="#000000" d="M0 5.57912 52.5552 24.18541"/>
<path transform="matrix(1.00009,0,0,-1.00005,22.64973,35.946996)" stroke-width=".3985" stroke-linecap="butt" stroke-miterlimit="10" stroke-linejoin="miter" fill="none" stroke="#000000" d="M39.68607 5.57912 56.04216 24.18541"/>
<path transform="matrix(1.00009,0,0,-1.00005,22.64973,35.946996)" stroke-width=".3985" stroke-linecap="butt" stroke-miterlimit="10" stroke-linejoin="miter" fill="none" stroke="#000000" d="M79.37216 5.57912 63.01607 24.18541"/>
<path transform="matrix(1.00009,0,0,-1.00005,22.64973,35.946996)" stroke-width=".3985" stroke-linecap="butt" stroke-miterlimit="10" stroke-linejoin="miter" fill="none" stroke="#000000" d="M119.05826 5.57912 66.50302 24.18541"/>
<path transform="matrix(1.00009,0,0,-1.00005,22.64973,35.946996)" stroke-width=".3985" stroke-linecap="butt" stroke-miterlimit="10" stroke-linejoin="miter" fill="none" stroke="#000000" d="M52.5552-24.18541 0-5.57912"/>
<path transform="matrix(1.00009,0,0,-1.00005,22.64973,35.946996)" stroke-width=".3985" stroke-linecap="butt" stroke-miterlimit="10" stroke-linejoin="miter" fill="none" stroke="#000000" d="M56.04216-24.18541 39.68607-5.57912"/>
<path transform="matrix(1.00009,0,0,-1.00005,22.64973,35.946996)" stroke-width=".3985" stroke-linecap="butt" stroke-miterlimit="10" stroke-linejoin="miter" fill="none" stroke="#000000" d="M63.01607-24.18541 79.37216-5.57912"/>
<path transform="matrix(1.00009,0,0,-1.00005,22.64973,35.946996)" stroke-width=".3985" stroke-linecap="butt" stroke-miterlimit="10" stroke-linejoin="miter" fill="none" stroke="#000000" d="M66.50302-24.18541 119.05826-5.57912"/>
</svg>
