<svg xmlns="http://www.w3.org/2000/svg" xmlns:xlink="http://www.w3.org/1999/xlink" xmlns:inkscape="http://www.inkscape.org/namespaces/inkscape" version="1.1" width="144" height="148" viewBox="0 0 144 148">
<defs>
<path id="font_1_95" d="M.72299197 .091537479C.72299197 .09854126 .72099307 .104537967 .70799258 .104537967 .69499209 .104537967 .69400027 .09954834 .69099429 .08753967 .673996 .031539918 .6439972-.00047302247 .61299136-.00047302247 .58299258-.00047302247 .5799866 .026535035 .5799866 .058532716 .5799866 .08454895 .58299258 .108551029 .58599856 .134552 .58898928 .157547 .59399417 .20155335 .59399417 .2225647 .59399417 .27856446 .5589905 .3205719 .5079956 .33857728 .6499939 .37457276 .71798709 .46159364 .71798709 .5345917 .71798709 .6136017 .6419983 .6826172 .5169983 .6826172H.25299073C.23699951 .6826172 .22599793 .6826172 .22599793 .66360476 .22599793 .6516113 .23399353 .6516113 .25299073 .6516113 .28399659 .6516113 .31098939 .6516113 .31098939 .63461306 .31098939 .63160708 .31098939 .62960818 .30699159 .6156006L.17199707 .07254028C.1639862 .038986207 .1579895 .0309906 .08999634 .0309906 .07398987 .0309906 .06298828 .0309906 .06298828 .011993408 .06298828 0 .07398987 0 .07699585 0 .114990238 0 .15499878 .0029907227 .19299317 .0029907227 .23199463 .0029907227 .272995 0 .31199647 0 .31900025 0 .33099366 0 .33099366 .017990113 .33099366 .0309906 .32398988 .0309906 .3039856 .0309906 .24598694 .0309906 .24598694 .038986207 .24598694 .047973634 .24598694 .051956178 .24598694 .053955079 .25 .06793213L.31498719 .3305359H.4229889C.46499635 .3305359 .5169983 .31455995 .5169983 .24266052 .5169983 .22868347 .5139923 .21969605 .5 .16378784 .4889984 .116867069 .4850006 .102874759 .4850006 .08390808 .4850006 .009536743 .54599-.022460938 .60899356-.022460938 .69299319-.022460938 .72299197 .08352661 .72299197 .091537479M.6279907 .55758669C.6279907 .5515747 .6239929 .45855714 .56999209 .40454103 .5399933 .37553407 .48999024 .35253907 .42199708 .35253907H.32099916L.38598634 .6156006C.3929901 .64559939 .40098573 .6476135 .4079895 .6496124 .4149933 .6516113 .44699098 .6516113 .46598817 .6516113 .5299988 .6516113 .6279907 .6516113 .6279907 .55758669Z"/>
<path id="font_1_66" d="M.33099366 .14329529C.33099366 .1532898 .32299806 .1532898 .31599427 .1532898 .30299378 .1532898 .30299378 .1512909 .29899598 .1362915 .29100038 .107284549 .2639923 .011245728 .20599365 .011245728 .19799805 .011245728 .18399048 .012252808 .18399048 .039260866 .18399048 .06526184 .19699097 .09828186 .20999146 .13528443L.27398683 .30633546C.28399659 .3353424 .28599549 .34335328 .28599549 .36235047 .28599549 .41737367 .24798584 .4423828 .21099854 .4423828 .116989139 .4423828 .08299255 .29333497 .08299255 .28833009 .08299255 .27833558 .09298706 .27833558 .09799194 .27833558 .11099243 .27833558 .11199951 .28033448 .115997318 .29434205 .125 .3273468 .15098572 .42037965 .20899964 .42037965 .21998596 .42037965 .23098755 .41537477 .23098755 .3923645 .23098755 .36836244 .21998596 .33935548 .21299744 .32034303L.18299866 .23731995 .1459961 .1382904C.13198853 .10028076 .12799073 .089279178 .12799073 .0692749 .12799073 .030258179 .1519928-.0107421879 .20399475-.0107421879 .2979889-.0107421879 .33099366 .13928223 .33099366 .14329529M.35798646 .61128237C.35798646 .6322937 .34298707 .6542969 .31298829 .6542969 .2809906 .6542969 .24899292 .623291 .24899292 .59129336 .24899292 .56929019 .2649994 .54829409 .2939911 .54829409 .32598878 .54829409 .35798646 .57928469 .35798646 .61128237Z"/>
<path id="font_1_77" d="M.58599856 .14329529C.58599856 .1532898 .5779877 .1532898 .57099917 .1532898 .55799868 .1532898 .55799868 .1512909 .55400088 .1362915 .54599 .10928345 .5189972 .011245728 .46099855 .011245728 .43998719 .011245728 .43899537 .026260376 .43899537 .040252687 .43899537 .06526184 .44898988 .091278079 .45700074 .11528015 .47698976 .16830445 .5179901 .28033448 .5179901 .3383484 .5179901 .42037965 .46299745 .4423828 .4139862 .4423828 .33198548 .4423828 .28399659 .38235475 .2709961 .36335755 .2639923 .41236878 .22999573 .4423828 .18699646 .4423828 .15098572 .4423828 .1309967 .41937257 .114990238 .38935853 .09599304 .34934999 .08299255 .28833009 .08299255 .28833009 .08299255 .27833558 .09298706 .27833558 .09799194 .27833558 .11099243 .27833558 .11199951 .2793274 .116989139 .30133058 .1349945 .37135316 .1539917 .42037965 .18499756 .42037965 .21099854 .42037965 .21099854 .39135743 .21099854 .38035584 .21099854 .36434938 .20799256 .34535218 .20399475 .3293457L.1289978 .029251099C.1269989 .023254395 .12599182 .018249512 .12599182 .015258789 .12599182 .004257202 .13398743-.0107421879 .1539917-.0107421879 .1659851-.0107421879 .18299866-.003753662 .18998719 .015258789L.22999573 .17529297C.23498535 .1973114 .24099732 .2183075 .24598694 .24032593 .25898744 .29133607 .25898744 .29232789 .27598573 .3213501 .2899933 .34535218 .33499146 .42037965 .41099549 .42037965 .45498658 .42037965 .45700074 .3753662 .45700074 .35435487 .45700074 .29232789 .41299439 .17329407 .39898683 .13328552 .38598634 .09927368 .3829956 .090270999 .3829956 .0692749 .3829956 .025253296 .41099549-.0107421879 .45899964-.0107421879 .5519867-.0107421879 .58599856 .1382904 .58599856 .14329529Z"/>
<path id="font_1_59" d="M.37399293-.06303406 .48298646 .3753357C.4869995 .39035035 .4869995 .39234925 .4869995 .39634706 .4869995 .41737367 .46998597 .42237855 .45999146 .42237855 .44799806 .42237855 .4249878 .41436769 .42099 .38534547 .40699769 .41436769 .37998963 .4423828 .33699037 .4423828 .22499085 .4423828 .10998535 .2942505 .10998535 .15312195 .10998535 .06803894 .15699768 0 .23199463 0 .2829895 0 .32598878 .041015626 .33799745 .053024293L.31698609-.031021119C.30499269-.08103943 .29899598-.10205078 .2709961-.13606262 .23098755-.18309021 .19099427-.18309021 .17599488-.18309021 .16299439-.18309021 .13198853-.18309021 .10499573-.17208863 .125-.16407776 .13699341-.1430664 .13699341-.12606812 .13699341-.11305237 .12799073-.094055179 .101989749-.094055179 .083999637-.094055179 .052993776-.108047489 .052993776-.14706421 .052993776-.18708802 .08999634-.20507813 .17399597-.20507813 .2789917-.20507813 .35499574-.1390686 .37399293-.06303406M.35798646 .13209534C.34999085 .10006714 .2889862 .021987915 .23399353 .021987915 .17999268 .021987915 .17799378 .09806824 .17799378 .109069827 .17799378 .15711975 .20799256 .27423097 .22898865 .3212738 .2539978 .3753357 .2979889 .42037965 .33699037 .42037965 .39698792 .42037965 .4059906 .33628846 .4059906 .3282776L.40299989 .31427003 .35798646 .13209534Z"/>
<path id="font_1_98" d="M.3929901 .15733338C.3929901 .24420166 .31498719 .2621765 .27398683 .27116395 .24598694 .2771454 .20999146 .285141 .20999146 .32810975 .20999146 .35211183 .23098755 .42037965 .31098939 .42037965 .33799745 .42037965 .375 .4103241 .38598634 .371109 .35398866 .3671112 .34599305 .34010316 .34599305 .33010865 .34599305 .31910707 .35198976 .30210877 .37599183 .30210877 .3929901 .30210877 .4189911 .31410218 .4189911 .3571167 .4189911 .4032898 .37799073 .4423828 .31199647 .4423828 .19499207 .4423828 .1539917 .3461151 .1539917 .29412843 .1539917 .21723938 .21899414 .20326233 .24699402 .19728089 .29100038 .18728638 .33599855 .17730713 .33599855 .12335205 .33599855 .09135437 .30899049 .011245728 .20599365 .011245728 .18399048 .011245728 .12599182 .01626587 .10998535 .067352298 .16099549 .07235718 .16099549 .11634827 .16099549 .11634827 .16099549 .13534546 .147995 .14834595 .1269989 .14834595 .10398865 .14834595 .07598877 .13134766 .07598877 .08634949 .07598877 .025268555 .13398743-.0107421879 .20498657-.0107421879 .35499574-.0107421879 .3929901 .11135864 .3929901 .15733338Z"/>
<path id="font_1_42" d="M.80999758 .68107607C.8109894 .68507388 .81199648 .69107058 .81199648 .69506838 .81199648 .69506838 .8109894 .7050781 .8009949 .7050781 .8009949 .7050781 .7939911 .7050781 .7849884 .69407656L.7220001 .62002566C.67900088 .68907168 .62098696 .7050781 .57099917 .7050781 .36499024 .7050781 .1499939 .47990418 .1499939 .24472046 .1499939 .080596927 .25698854-.022460938 .394989-.022460938 .58999636-.022460938 .69898989 .19168091 .69898989 .23971558 .69898989 .24972534 .68899539 .24972534 .6839905 .24972534 .6779938 .24972534 .67099 .24972534 .66799929 .24171448 .61698916 .07258606 .49198915 .008529663 .40899659 .008529663 .32499696 .008529663 .23699951 .064575199 .23699951 .20669556 .23699951 .2687378 .2619934 .4258728 .34199525 .5359497 .4099884 .6280365 .5019989 .67407229 .57899478 .67407229 .68499758 .67407229 .72099307 .5779877 .72099307 .49092103 .72099307 .4649048 .71598818 .4328766 .71598818 .4298706 .71598818 .41986085 .7259979 .41986085 .73098757 .41986085 .74198916 .41986085 .7449951 .42086793 .7489929 .43788148L.80999758 .68107607Z"/>
<path id="font_1_81" d="M.5089874 .27833558C.5089874 .37335206 .44999696 .4423828 .36299134 .4423828 .23899842 .4423828 .10998535 .30033876 .10998535 .15429688 .10998535 .05126953 .17298889-.0107421879 .2559967-.0107421879 .37998963-.0107421879 .5089874 .13128662 .5089874 .27833558M.43899537 .31733705C.43899537 .2743225 .4169922 .17129517 .3849945 .11128235 .35598756 .056259157 .30499269 .011245728 .2559967 .011245728 .21699524 .011245728 .17999268 .042266847 .17999268 .11428833 .17999268 .16429138 .20599365 .2753296 .23799134 .3293457 .2749939 .3903656 .32299806 .42037965 .3619995 .42037965 .41099549 .42037965 .43899537 .37635804 .43899537 .31733705Z"/>
<path id="font_1_75" d="M.84199526 .14329529C.84199526 .1532898 .83399966 .1532898 .82699587 .1532898 .81399539 .1532898 .81399539 .1512909 .80999758 .1362915 .8019867 .10928345 .7749939 .011245728 .71699526 .011245728 .69599917 .011245728 .69499209 .026260376 .69499209 .040252687 .69499209 .06526184 .7049866 .091278079 .71299746 .11528015 .73298647 .16830445 .7739868 .28033448 .7739868 .3383484 .7739868 .42237855 .71598818 .4423828 .6689911 .4423828 .598999 .4423828 .548996 .3983612 .5189972 .35435487 .5109863 .42337037 .45899964 .4423828 .4139862 .4423828 .35398866 .4423828 .30499269 .4093628 .2709961 .36335755 .2639923 .41236878 .22999573 .4423828 .18699646 .4423828 .15098572 .4423828 .1309967 .41937257 .114990238 .38935853 .09599304 .34934999 .08299255 .28833009 .08299255 .28833009 .08299255 .27833558 .09298706 .27833558 .09799194 .27833558 .11099243 .27833558 .11199951 .2793274 .116989139 .30133058 .1349945 .37135316 .1539917 .42037965 .18499756 .42037965 .21099854 .42037965 .21099854 .39135743 .21099854 .38035584 .21099854 .36434938 .20799256 .34535218 .20399475 .3293457L.1289978 .029251099C.1269989 .023254395 .12599182 .018249512 .12599182 .015258789 .12599182 .004257202 .13398743-.0107421879 .1539917-.0107421879 .1659851-.0107421879 .18299866-.003753662 .18998719 .015258789L.22999573 .17529297C.23498535 .1973114 .24099732 .2183075 .24598694 .24032593 .25898744 .28933717 .25898744 .29133607 .2709961 .3123474 .2999878 .36235047 .34298707 .42037965 .4119873 .42037965 .45799256 .42037965 .45799256 .36935426 .45799256 .35435487 .45799256 .3273468 .45098878 .29833985 .44898988 .28933717L.38398744 .029251099C.38198854 .023254395 .3809967 .018249512 .3809967 .015258789 .3809967 .004257202 .3889923-.0107421879 .40899659-.0107421879 .42099-.0107421879 .43798829-.003753662 .44499208 .015258789L.4850006 .17529297C.48999024 .1973114 .49598695 .2183075 .5009918 .24032593 .5139923 .28933717 .5139923 .29133607 .526001 .3123474 .5549927 .36235047 .59799197 .42037965 .6669922 .42037965 .71299746 .42037965 .71299746 .36935426 .71299746 .35435487 .71299746 .29232789 .6689911 .17329407 .6549988 .13328552 .6419983 .09927368 .6389923 .090270999 .6389923 .0692749 .6389923 .025253296 .6669922-.0107421879 .71499636-.0107421879 .80799868-.0107421879 .84199526 .1382904 .84199526 .14329529Z"/>
<path id="font_1_109" d="M.5609894 .14329529C.5609894 .1532898 .5529938 .1532898 .54599 .1532898 .5339966 .1532898 .5329895 .15229798 .5269928 .13027954 .5130005 .07426453 .49398805 .011245728 .45999146 .011245728 .43399049 .011245728 .43399049 .038253786 .43399049 .052261354 .43399049 .059265138 .43399049 .07527161 .44099427 .103271488L.5130005 .39135743C.5149994 .39736939 .5159912 .40237428 .5159912 .405365 .5159912 .41636659 .5079956 .43138124 .48799134 .43138124 .45799256 .43138124 .45098878 .40237428 .44898988 .3943634L.37599183 .10227966C.37098695 .08427429 .37098695 .08227539 .3619995 .0692749 .34298707 .041259767 .31399537 .011245728 .269989 .011245728 .22499085 .011245728 .21598816 .055267335 .21598816 .088272098 .21598816 .14929199 .24899292 .23931885 .27398683 .30734254 .28199769 .32833863 .2869873 .3423462 .2869873 .36135865 .2869873 .41137696 .2539978 .4423828 .21099854 .4423828 .117996219 .4423828 .08299255 .29434205 .08299255 .28833009 .08299255 .27833558 .09298706 .27833558 .09799194 .27833558 .11099243 .27833558 .11199951 .28033448 .115997318 .29434205 .12399292 .3253479 .15098572 .42037965 .20899964 .42037965 .21998596 .42037965 .23098755 .41737367 .23098755 .39135743 .23098755 .36735536 .22099304 .3403473 .20698548 .30133058 .18099976 .23132324 .15499878 .1572876 .15499878 .105285648 .15499878 .018249512 .21299744-.0107421879 .2669983-.0107421879 .31999208-.0107421879 .35398866 .019256592 .37799073 .04925537 .3959961-.0047454836 .43899537-.0107421879 .45799256-.0107421879 .49499513-.0107421879 .5159912 .014251709 .5309906 .04525757 .548996 .08326721 .5609894 .14329529 .5609894 .14329529Z"/>
<path id="font_1_105" d="M.35598756 .14305115C.35598756 .1530304 .34799195 .1530304 .34098817 .1530304 .32899476 .1530304 .32899476 .15203858 .32099916 .13406372 .30299378 .086135867 .2630005 .011245728 .20599365 .011245728 .1789856 .011245728 .1789856 .036209108 .1789856 .05218506 .1789856 .059173585 .1789856 .075149539 .18598938 .10310364L.2599945 .3996582H.34498597C.3619995 .3996582 .37298585 .3996582 .37298585 .4186554 .37298585 .43066407 .3639984 .43066407 .34799195 .43066407H.2679901L.30499269 .57888796C.30899049 .59291079 .30899049 .5949249 .30899049 .5999298 .30899049 .6209564 .2919922 .62597659 .28199769 .62597659 .25698854 .62597659 .24699402 .6049347 .24299622 .5899048L.20399475 .43066407H.11898804C.101989749 .43066407 .09098816 .43066407 .09098816 .4116516 .09098816 .3996582 .099990848 .3996582 .115997318 .3996582H.19599915L.12399292 .113098148C.12298584 .10910034 .11898804 .09312439 .11898804 .07914734 .11898804 .029220581 .1519928-.0107421879 .20399475-.0107421879 .30499269-.0107421879 .35598756 .13806153 .35598756 .14305115Z"/>
<path id="font_1_28" d="M.5249939 .14329529C.5249939 .1532898 .5169983 .1532898 .5099945 .1532898 .49798585 .1532898 .49699403 .15229798 .4909973 .13027954 .47698976 .07426453 .45799256 .011245728 .42399598 .011245728 .397995 .011245728 .397995 .038253786 .397995 .052261354 .397995 .059265138 .397995 .07527161 .40499879 .103271488L.47299195 .3753662C.47698976 .38935853 .47698976 .39135743 .47698976 .3963623 .47698976 .41737367 .45999146 .42237855 .44999696 .42237855 .41799928 .42237855 .41099549 .3883667 .4099884 .38336183 .3909912 .42637635 .35899354 .4423828 .32699586 .4423828 .21598816 .4423828 .09799194 .29032899 .09799194 .14428711 .09799194 .059265138 .14399719-.0107421879 .21899414-.0107421879 .25498963-.0107421879 .29899598 .010253906 .33898927 .059265138 .34999085 .010253906 .3869934-.0107421879 .42199708-.0107421879 .45899964-.0107421879 .47999574 .014251709 .49499513 .04525757 .5130005 .08326721 .5249939 .14329529 .5249939 .14329529M.34599305 .12428284C.33799745 .0922699 .27598573 .011245728 .22099304 .011245728 .17399597 .011245728 .1659851 .07026672 .1659851 .10028076 .1659851 .15029907 .19699097 .26733399 .21499634 .30934144 .23999024 .37036134 .28599549 .42037965 .32699586 .42037965 .37098695 .42037965 .3959961 .36836244 .3959961 .32633973 .3959961 .32633973 .394989 .31933595 .3929901 .31333924L.34599305 .12428284Z"/>
<path id="font_1_112" d="M.49299623 .37635804C.49299623 .41137696 .48098756 .4423828 .45199586 .4423828 .42900086 .4423828 .4039917 .41937257 .4039917 .3963623 .4039917 .38336183 .41099549 .37635804 .4169922 .36935426 .44099427 .34335328 .44400025 .31134034 .44400025 .29032899 .44400025 .2623291 .39698792 .011245728 .28199769 .011245728 .22799683 .011245728 .21699524 .061264039 .21699524 .0942688 .21699524 .15229798 .24899292 .23931885 .27598573 .31134034 .2809906 .3273468 .2869873 .3423462 .2869873 .36135865 .2869873 .41137696 .2539978 .4423828 .21099854 .4423828 .117996219 .4423828 .08299255 .29434205 .08299255 .28833009 .08299255 .27833558 .09298706 .27833558 .09799194 .27833558 .11099243 .27833558 .11199951 .28033448 .115997318 .29434205 .12399292 .3253479 .15098572 .42037965 .20899964 .42037965 .21998596 .42037965 .23098755 .41737367 .23098755 .39135743 .23098755 .36735536 .22099304 .3403473 .20698548 .30133058 .17599488 .2163086 .1559906 .15629578 .1559906 .10928345 .1559906 .018249512 .21998596-.0107421879 .2789917-.0107421879 .44699098-.0107421879 .49299623 .35035707 .49299623 .37635804Z"/>
<path id="font_1_50" d="M.46798707 .10432434C.46798707 .10932922 .45999146 .12034607 .45199586 .12034607 .44799806 .12034607 .44699098 .11933899 .43899537 .10932922 .36499024 .015258789 .27598573 .011245728 .25898744 .011245728 .19400025 .011245728 .18299866 .08230591 .18299866 .12133789 .18299866 .15937805 .19299317 .204422 .19999695 .23144531H.23899842C.2689972 .23144531 .33599855 .23443604 .38398744 .25343324 .46299745 .2854309 .46299745 .35040284 .46299745 .35740663 .46299745 .40338136 .42599488 .4423828 .3619995 .4423828 .25698854 .4423828 .11399841 .34140016 .11399841 .16438294 .11399841 .0743103 .1619873-.0107421879 .25698854-.0107421879 .3849945-.0107421879 .46798707 .08930969 .46798707 .10432434M.4249878 .35940553C.4249878 .25343324 .2599945 .25343324 .22698975 .25343324H.20599365C.24899292 .41737367 .35198976 .42037965 .3619995 .42037965 .4019928 .42037965 .4249878 .39338685 .4249878 .35940553Z"/>
<path id="font_1_114" d="M.69699099 .37635804C.69699099 .41137696 .68499758 .4423828 .6559906 .4423828 .6329956 .4423828 .60798647 .41937257 .60798647 .3963623 .60798647 .38336183 .61499026 .37635804 .62098696 .36935426 .644989 .34335328 .647995 .31134034 .647995 .29032899 .647995 .25032044 .6159973 .14529419 .598999 .104278568 .57699587 .052261354 .54499819 .011245728 .49899293 .011245728 .44898988 .011245728 .43299867 .052261354 .43299867 .0942688 .43299867 .103271488 .43399049 .12728882 .44499208 .17129517L.4869995 .33935548C.49299623 .36135865 .5029907 .4013672 .5029907 .405365 .5029907 .41636659 .49499513 .43138124 .47499085 .43138124 .44599916 .43138124 .43899537 .40437318 .43699647 .3963623L.37998963 .16830445C.37298585 .1402893 .37199403 .119277957 .37199403 .105285648 .37199403 .0942688 .34098817 .011245728 .28799439 .011245728 .21798706 .011245728 .21798706 .08526611 .21798706 .09828186 .21798706 .15229798 .24398804 .22631836 .2749939 .30833436 .28199769 .3273468 .2869873 .3423462 .2869873 .36135865 .2869873 .41137696 .2539978 .4423828 .21099854 .4423828 .117996219 .4423828 .08299255 .29434205 .08299255 .28833009 .08299255 .27833558 .09298706 .27833558 .09799194 .27833558 .11099243 .27833558 .11199951 .28033448 .115997318 .29434205 .12399292 .3253479 .15098572 .42037965 .20899964 .42037965 .21998596 .42037965 .23098755 .41737367 .23098755 .39135743 .23098755 .36735536 .22099304 .3403473 .20698548 .30133058 .15699768 .16529846 .15699768 .13928223 .15699768 .11227417 .15699768 .07827759 .16499329 .044265748 .19099427 .020248414 .22299195-.007751465 .2679901-.0107421879 .2849884-.0107421879 .31698609-.0107421879 .35198976 .002243042 .38198854 .053268434 .39698792 .01625061 .43699647-.0107421879 .49598695-.0107421879 .55599978-.0107421879 .59799197 .030258179 .6279907 .10127258 .6579895 .16929627 .69699099 .323349 .69699099 .37635804Z"/>
<path id="font_1_63" d="M.5349884 .14329529C.5349884 .1532898 .5269928 .1532898 .519989 .1532898 .5069885 .1532898 .5069885 .1512909 .5029907 .1362915 .49499513 .10928345 .46798707 .011245728 .4099884 .011245728 .3889923 .011245728 .3880005 .026260376 .3880005 .040252687 .3880005 .06526184 .397995 .091278079 .4059906 .11528015 .42599488 .16830445 .46699525 .28033448 .46699525 .3383484 .46699525 .42037965 .4119873 .4423828 .36299134 .4423828 .29599 .4423828 .26098634 .4073639 .22999573 .3773651L.30299378 .6693268C.3039856 .67233279 .30599977 .6823273 .30599977 .6823273 .30599977 .69132998 .2999878 .69433596 .2919922 .69433596 .2889862 .69433596 .2789917 .69332888 .27598573 .6923218L.1769867 .6843262C.16499329 .68333438 .1539917 .6823273 .1539917 .6633301 .1539917 .6523285 .1639862 .6523285 .17799378 .6523285 .22599793 .6523285 .22799683 .6453247 .22799683 .6353302 .22799683 .6323395 .22499085 .6183319 .22499085 .6183319L.07699585 .028259278C.07598877 .026260376 .07499695 .015258789 .07499695 .015258789 .07499695 .004257202 .083999637-.0107421879 .102996829-.0107421879 .12399292-.0107421879 .13699341 .0062561037 .13999939 .01725769L.18299866 .19030762C.18798828 .21231079 .19400025 .23332215 .19898987 .25532533 .20799256 .29133607 .20899964 .29333497 .22698975 .3253479 .24699402 .35736085 .2899933 .42037965 .3600006 .42037965 .4039917 .42037965 .4059906 .3753662 .4059906 .35435487 .4059906 .29232789 .3619995 .17329407 .34799195 .13328552 .33499146 .09927368 .33198548 .090270999 .33198548 .0692749 .33198548 .025253296 .3600006-.0107421879 .4079895-.0107421879 .5009918-.0107421879 .5349884 .1382904 .5349884 .14329529Z"/>
<path id="font_1_65" d="M.33799745 .018997193C.33799745 .0309906 .32998658 .0309906 .30999757 .0309906 .24798584 .0309906 .24798584 .037994386 .24798584 .048980714 .24798584 .048980714 .24798584 .05596924 .2519989 .07096863L.3869934 .6106262C.394989 .64260867 .40098573 .6516113 .46998597 .6516113 .4909973 .6516113 .5009918 .6516113 .5009918 .6706085 .5009918 .6826172 .4909973 .6826172 .4869995 .6826172 .44699098 .6826172 .40499879 .6796112 .3639984 .6796112 .32299806 .6796112 .27999879 .6826172 .23899842 .6826172 .23199463 .6826172 .21998596 .6826172 .21998596 .6646118 .21998596 .6516113 .22698975 .6516113 .24699402 .6516113 .2809906 .6516113 .30999757 .6516113 .30999757 .63461306 .30999757 .6316223 .30799867 .6186218 .30699159 .6156311L.17098999 .07196045C.16299439 .038986207 .1539917 .0309906 .08699036 .0309906 .06599426 .0309906 .056991579 .0309906 .056991579 .0129852299 .056991579 .0019989014 .06399536 0 .070999149 0 .11099243 0 .15299988 .0029907227 .19400025 .0029907227 .23498535 .0029907227 .27799989 0 .31799317 0 .32499696 0 .33799745 0 .33799745 .018997193Z"/>
<path id="font_1_47" d="M.5349884 .14329529C.5349884 .1532898 .5269928 .1532898 .519989 .1532898 .5079956 .1532898 .5069885 .15229798 .5009918 .13027954 .4869995 .07426453 .46798707 .011245728 .43399049 .011245728 .4079895 .011245728 .4079895 .038253786 .4079895 .052261354 .4079895 .059265138 .4079895 .07426453 .4139862 .09828186L.5569916 .6693268C.55799868 .67233279 .55999758 .6823273 .55999758 .6823273 .55999758 .69132998 .55400088 .69433596 .54599 .69433596 .54299929 .69433596 .5329895 .69332888 .5299988 .6923218L.43099977 .6843262C.4189911 .68333438 .4079895 .6823273 .4079895 .6633301 .4079895 .6523285 .41799928 .6523285 .43199159 .6523285 .47999574 .6523285 .48199464 .6453247 .48199464 .6353302 .48199464 .6323395 .47898866 .6183319 .47898866 .6183319L.42099 .3843689C.4059906 .41537477 .3789978 .4423828 .33699037 .4423828 .22599793 .4423828 .10798645 .29032899 .10798645 .14428711 .10798645 .059265138 .1539917-.0107421879 .22898865-.0107421879 .2649994-.0107421879 .30899049 .010253906 .34899903 .059265138 .3600006 .010253906 .39698792-.0107421879 .43199159-.0107421879 .46899415-.0107421879 .48999024 .014251709 .5049896 .04525757 .522995 .08326721 .5349884 .14329529 .5349884 .14329529M.35499574 .122283939C.34700013 .091278079 .28599549 .011245728 .23098755 .011245728 .18399048 .011245728 .17599488 .07026672 .17599488 .10028076 .17599488 .15029907 .20698548 .26733399 .22499085 .30934144 .25 .37036134 .29599 .42037965 .33699037 .42037965 .34498597 .42037965 .36799623 .41937257 .38598634 .39135743 .3959961 .3753662 .4059906 .346344 .4059906 .3273468 .4059906 .32434083 .40499879 .32034303 .40299989 .3143463L.35499574 .122283939Z"/>
<path id="font_1_118" d="M.4149933-.002746582 .5130005 .39135743C.5139923 .39736939 .5159912 .40237428 .5159912 .405365 .5159912 .41636659 .5079956 .43138124 .48799134 .43138124 .45799256 .43138124 .45098878 .40237428 .44898988 .3943634L.37599183 .10028076C.36898805 .0712738 .32899476 .011245728 .269989 .011245728 .22499085 .011245728 .21598816 .055267335 .21598816 .088272098 .21598816 .14929199 .24899292 .23931885 .27398683 .30734254 .28199769 .32833863 .2869873 .3423462 .2869873 .36135865 .2869873 .41137696 .2539978 .4423828 .21099854 .4423828 .117996219 .4423828 .08299255 .29434205 .08299255 .28833009 .08299255 .27833558 .09298706 .27833558 .09799194 .27833558 .11099243 .27833558 .11199951 .28033448 .115997318 .29434205 .12399292 .3253479 .15098572 .42037965 .20899964 .42037965 .21998596 .42037965 .23098755 .41737367 .23098755 .39135743 .23098755 .36735536 .22099304 .3403473 .20698548 .30133058 .18099976 .23132324 .15499878 .1572876 .15499878 .105285648 .15499878 .018249512 .21299744-.0107421879 .2669983-.0107421879 .31298829-.0107421879 .34399415 .013244629 .35699464 .026260376 .31900025-.13865662 .24499512-.18261719 .19499207-.18261719 .14698792-.18261719 .1329956-.14465332 .1329956-.1396637 .1329956-.1396637 .13398743-.1376648 .14099121-.13665772 .17199707-.13166809 .18399048-.10467529 .18399048-.08869934 .18399048-.06770325 .16799927-.05671692 .1499939-.05671692 .13798523-.056625368 .09899902-.06262207 .09899902-.118621829 .09899902-.17062378 .13999939-.20462036 .19499207-.20462036 .29899598-.20462036 .3899994-.101623538 .4149933-.0026245118V-.002746582Z"/>
<path id="font_1_96" d="M.4889984 .37927247C.4889984 .43138124 .42399598 .4423828 .3909912 .4423828 .32199098 .4423828 .28599549 .39227296 .269989 .37026979 .25898744 .42337037 .21998596 .4423828 .18699646 .4423828 .15098572 .4423828 .1309967 .41937257 .114990238 .38926698 .09599304 .34925843 .08299255 .28826905 .08299255 .28826905 .08299255 .27825929 .09298706 .27825929 .09799194 .27825929 .11099243 .27825929 .11199951 .27926637 .116989139 .30126954 .1349945 .3712616 .1539917 .42037965 .18499756 .42037965 .21099854 .42037965 .21099854 .39126588 .21099854 .38026429 .21099854 .36427308 .20799256 .34526063 .20399475 .3292694L.1289978 .029251099C.1269989 .023254395 .12599182 .018249512 .12599182 .015258789 .12599182 .004257202 .13398743-.0107421879 .1539917-.0107421879 .18399048-.0107421879 .19099427 .018249512 .19299317 .026245118L.2579956 .28826905C.25898744 .29125978 .3039856 .42037965 .3899994 .42037965 .394989 .42037965 .4229889 .42037965 .44299317 .40628053 .4079895 .39526368 .40499879 .363266 .40499879 .3582611 .40499879 .34526063 .4139862 .32626344 .43998719 .32626344 .45799256 .32626344 .4889984 .340271 .4889984 .37927247Z"/>
<path id="font_1_72" d="M.27999879 .14326477C.27999879 .15327454 .27198792 .15327454 .2649994 .15327454 .2599945 .15327454 .2539978 .15327454 .25099183 .14826966L.24398804 .1232605C.22698975 .053253175 .20799256 .011245728 .17999268 .011245728 .1539917 .011245728 .1539917 .038253786 .1539917 .052261354 .1539917 .059249879 .1539917 .07426453 .1599884 .0982666L.30299378 .6693268C.3039856 .67233279 .30599977 .6823273 .30599977 .6823273 .30599977 .69132998 .2999878 .69433596 .2919922 .69433596 .2889862 .69433596 .2789917 .69332888 .27598573 .6923218L.1769867 .6843262C.16499329 .68333438 .1539917 .6823273 .1539917 .6633301 .1539917 .6523285 .1639862 .6523285 .17799378 .6523285 .22599793 .6523285 .22799683 .6453247 .22799683 .6353302 .22799683 .6323242 .22499085 .61831668 .22499085 .61831668L.099990848 .118255618C.09899902 .11425781 .09399414 .09425354 .09399414 .07925415 .09399414 .026245118 .12998963-.0107421879 .17799378-.0107421879 .21598816-.0107421879 .23599243 .01625061 .24899292 .041259767 .2659912 .07626343 .27999879 .14025879 .27999879 .14326477Z"/>
<path id="font_1_46" d="M.7749939 .43774415C.7749939 .5806427 .69400027 .6826172 .5649872 .6826172H.25299073C.23699951 .6826172 .22599793 .6826172 .22599793 .66360476 .22599793 .6516113 .23399353 .6516113 .25299073 .6516113 .28399659 .6516113 .31098939 .6516113 .31098939 .63461306 .31098939 .6316223 .31098939 .6296234 .30699159 .6156311L.17199707 .07296753C.1639862 .038986207 .1579895 .0309906 .08999634 .0309906 .07398987 .0309906 .06298828 .0309906 .06298828 .011993408 .06298828 0 .07199097 0 .08799744 0H.394989C.58399966 0 .7749939 .21287537 .7749939 .43774415M.69200137 .475708C.69200137 .41674806 .6629944 .22987366 .5779877 .12992859 .5289917 .07296753 .45799256 .0309906 .37799073 .0309906H.2749939C.24398804 .0309906 .24398804 .033996583 .24398804 .040985109 .24398804 .04698181 .24699402 .05697632 .24798584 .06297302L.38598634 .6156311C.394989 .65060427 .4019928 .6516113 .43499757 .6516113H.5319977C.61299136 .6516113 .69200137 .6066284 .69200137 .475708Z"/>
<path id="font_1_54" d="M.70700076 .4769745 .7299957 .6536865C.73298647 .6796875 .72698977 .6796875 .70599368 .6796875H.25099183C.23399353 .6796875 .22399903 .6796875 .22399903 .6616821 .22399903 .64868167 .23098755 .64868167 .25099183 .64868167 .30899049 .64868167 .30899049 .6407013 .30899049 .63171389 .30899049 .63171389 .30899049 .62371829 .30499269 .6087494L.17098999 .073013309C.16299439 .039001466 .15699768 .0309906 .08898926 .0309906 .07299805 .0309906 .06199646 .0309906 .06199646 .011993408 .06199646 0 .07299805 0 .07598877 0 .115997318 0 .1579895 .0029907227 .19799805 .0029907227 .24398804 .0029907227 .29100038 0 .33599855 0 .34498597 0 .35699464 0 .35699464 .018997193 .35699464 .0309906 .34799195 .0309906 .33198548 .0309906H.32199098C.24899292 .0309906 .24899292 .039001466 .24899292 .052001954 .24899292 .056015016 .24899292 .058013917 .25299073 .073013309L.31599427 .3251953H.39898683C.46398927 .3251953 .47299195 .31018067 .47299195 .28315736 .47299195 .2661438 .46899415 .25013734 .46499635 .23413086 .46299745 .22712708 .46199037 .22311402 .46199037 .22012329 .46199037 .20811463 .47299195 .20811463 .47698976 .20811463 .48799134 .20811463 .4909973 .20910645 .49598695 .2281189L.5509949 .44802857C.5519867 .45202638 .5529938 .457016 .5529938 .46200563 .5529938 .47299195 .54100039 .47299195 .5379944 .47299195 .5249939 .47299195 .5239868 .46998597 .5189972 .45202638 .5009918 .3811493 .4850006 .3561859 .4019928 .3561859H.32398988L.3880005 .6147461C.3959961 .6476898 .40299989 .64868167 .43598939 .64868167H.5529938C.6599884 .64868167 .6819916 .6177368 .6819916 .54885867 .6819916 .52490237 .67900088 .50593569 .6759949 .4829712L.6749878 .46699525C.6749878 .4550171 .6859894 .4550171 .6899872 .4550171 .70399478 .4550171 .7049866 .4590149 .70700076 .4769745Z"/>
</defs>
<use data-text="R" xlink:href="#font_1_95" transform="matrix(9.963397,0,0,-9.9626,61.753297,8.440002)"/>
<use data-text="i" xlink:href="#font_1_66" transform="matrix(9.963397,0,0,-9.9626,68.76753,8.440002)"/>
<use data-text="n" xlink:href="#font_1_77" transform="matrix(9.963397,0,0,-9.9626,71.826297,8.440002)"/>
<use data-text="g" xlink:href="#font_1_59" transform="matrix(9.963397,0,0,-9.9626,77.42572,8.440002)"/>
<use data-text="s" xlink:href="#font_1_98" transform="matrix(9.963397,0,0,-9.9626,82.00888,8.440002)"/>
<use data-text="C" xlink:href="#font_1_42" transform="matrix(9.963397,0,0,-9.9626,.20436859,47.132005)"/>
<use data-text="o" xlink:href="#font_1_81" transform="matrix(9.963397,0,0,-9.9626,7.3381655,47.132005)"/>
<use data-text="m" xlink:href="#font_1_75" transform="matrix(9.963397,0,0,-9.9626,12.429466,47.132005)"/>
<use data-text="m" xlink:href="#font_1_75" transform="matrix(9.963397,0,0,-9.9626,20.579522,47.132005)"/>
<use data-text="u" xlink:href="#font_1_109" transform="matrix(9.963397,0,0,-9.9626,28.729592,47.132005)"/>
<use data-text="t" xlink:href="#font_1_105" transform="matrix(9.963397,0,0,-9.9626,34.079935,47.132005)"/>
<use data-text="a" xlink:href="#font_1_28" transform="matrix(9.963397,0,0,-9.9626,37.387796,47.132005)"/>
<use data-text="t" xlink:href="#font_1_105" transform="matrix(9.963397,0,0,-9.9626,42.479074,47.132005)"/>
<use data-text="i" xlink:href="#font_1_66" transform="matrix(9.963397,0,0,-9.9626,45.786935,47.132005)"/>
<use data-text="v" xlink:href="#font_1_112" transform="matrix(9.963397,0,0,-9.9626,48.845697,47.132005)"/>
<use data-text="e" xlink:href="#font_1_50" transform="matrix(9.963397,0,0,-9.9626,53.428857,47.132005)"/>
<use data-text="R" xlink:href="#font_1_95" transform="matrix(9.963397,0,0,-9.9626,16.393654,60.681)"/>
<use data-text="i" xlink:href="#font_1_66" transform="matrix(9.963397,0,0,-9.9626,23.397927,60.681)"/>
<use data-text="n" xlink:href="#font_1_77" transform="matrix(9.963397,0,0,-9.9626,26.456688,60.681)"/>
<use data-text="g" xlink:href="#font_1_59" transform="matrix(9.963397,0,0,-9.9626,32.05613,60.681)"/>
<use data-text="s" xlink:href="#font_1_98" transform="matrix(9.963397,0,0,-9.9626,36.63929,60.681)"/>
<use data-text="R" xlink:href="#font_1_95" transform="matrix(9.963397,0,0,-9.9626,96.260059,47.078004)"/>
<use data-text="i" xlink:href="#font_1_66" transform="matrix(9.963397,0,0,-9.9626,103.274288,47.078004)"/>
<use data-text="n" xlink:href="#font_1_77" transform="matrix(9.963397,0,0,-9.9626,106.333049,47.078004)"/>
<use data-text="g" xlink:href="#font_1_59" transform="matrix(9.963397,0,0,-9.9626,111.93249,47.078004)"/>
<use data-text="s" xlink:href="#font_1_98" transform="matrix(9.963397,0,0,-9.9626,116.51565,47.078004)"/>
<use data-text="w" xlink:href="#font_1_114" transform="matrix(9.963397,0,0,-9.9626,124.217357,47.078004)"/>
<use data-text="i" xlink:href="#font_1_66" transform="matrix(9.963397,0,0,-9.9626,130.83307,47.078004)"/>
<use data-text="t" xlink:href="#font_1_105" transform="matrix(9.963397,0,0,-9.9626,133.89182,47.078004)"/>
<use data-text="h" xlink:href="#font_1_63" transform="matrix(9.963397,0,0,-9.9626,137.19968,47.078004)"/>
<use data-text="I" xlink:href="#font_1_65" transform="matrix(9.963397,0,0,-9.9626,102.45755,60.627)"/>
<use data-text="d" xlink:href="#font_1_47" transform="matrix(9.963397,0,0,-9.9626,106.30341,60.627)"/>
<use data-text="e" xlink:href="#font_1_50" transform="matrix(9.963397,0,0,-9.9626,111.39472,60.627)"/>
<use data-text="n" xlink:href="#font_1_77" transform="matrix(9.963397,0,0,-9.9626,115.97788,60.627)"/>
<use data-text="t" xlink:href="#font_1_105" transform="matrix(9.963397,0,0,-9.9626,121.57731,60.627)"/>
<use data-text="i" xlink:href="#font_1_66" transform="matrix(9.963397,0,0,-9.9626,124.88517,60.627)"/>
<use data-text="t" xlink:href="#font_1_105" transform="matrix(9.963397,0,0,-9.9626,127.94393,60.627)"/>
<use data-text="y" xlink:href="#font_1_118" transform="matrix(9.963397,0,0,-9.9626,131.25177,60.627)"/>
<use data-text="I" xlink:href="#font_1_65" transform="matrix(9.963397,0,0,-9.9626,12.178337,93.401)"/>
<use data-text="n" xlink:href="#font_1_77" transform="matrix(9.963397,0,0,-9.9626,16.024216,93.401)"/>
<use data-text="t" xlink:href="#font_1_105" transform="matrix(9.963397,0,0,-9.9626,21.62365,93.401)"/>
<use data-text="e" xlink:href="#font_1_50" transform="matrix(9.963397,0,0,-9.9626,24.931496,93.401)"/>
<use data-text="g" xlink:href="#font_1_59" transform="matrix(9.963397,0,0,-9.9626,29.006524,93.401)"/>
<use data-text="r" xlink:href="#font_1_96" transform="matrix(9.963397,0,0,-9.9626,33.589685,93.401)"/>
<use data-text="a" xlink:href="#font_1_28" transform="matrix(9.963397,0,0,-9.9626,37.286127,93.401)"/>
<use data-text="l" xlink:href="#font_1_72" transform="matrix(9.963397,0,0,-9.9626,42.377435,93.401)"/>
<use data-text="D" xlink:href="#font_1_46" transform="matrix(9.963397,0,0,-9.9626,9.2591099,106.95)"/>
<use data-text="o" xlink:href="#font_1_81" transform="matrix(9.963397,0,0,-9.9626,16.781479,106.95)"/>
<use data-text="m" xlink:href="#font_1_75" transform="matrix(9.963397,0,0,-9.9626,21.872765,106.95)"/>
<use data-text="a" xlink:href="#font_1_28" transform="matrix(9.963397,0,0,-9.9626,30.022835,106.95)"/>
<use data-text="i" xlink:href="#font_1_66" transform="matrix(9.963397,0,0,-9.9626,35.114114,106.95)"/>
<use data-text="n" xlink:href="#font_1_77" transform="matrix(9.963397,0,0,-9.9626,38.172876,106.95)"/>
<use data-text="s" xlink:href="#font_1_98" transform="matrix(9.963397,0,0,-9.9626,43.772317,106.95)"/>
<use data-text="D" xlink:href="#font_1_46" transform="matrix(9.963397,0,0,-9.9626,101.251468,92.380008)"/>
<use data-text="i" xlink:href="#font_1_66" transform="matrix(9.963397,0,0,-9.9626,108.773838,92.380008)"/>
<use data-text="v" xlink:href="#font_1_112" transform="matrix(9.963397,0,0,-9.9626,111.832599,92.380008)"/>
<use data-text="i" xlink:href="#font_1_66" transform="matrix(9.963397,0,0,-9.9626,116.41576,92.380008)"/>
<use data-text="s" xlink:href="#font_1_98" transform="matrix(9.963397,0,0,-9.9626,119.47452,92.380008)"/>
<use data-text="i" xlink:href="#font_1_66" transform="matrix(9.963397,0,0,-9.9626,123.549549,92.380008)"/>
<use data-text="o" xlink:href="#font_1_81" transform="matrix(9.963397,0,0,-9.9626,126.60832,92.380008)"/>
<use data-text="n" xlink:href="#font_1_77" transform="matrix(9.963397,0,0,-9.9626,131.6996,92.380008)"/>
<use data-text="R" xlink:href="#font_1_95" transform="matrix(9.963397,0,0,-9.9626,107.11494,105.929)"/>
<use data-text="i" xlink:href="#font_1_66" transform="matrix(9.963397,0,0,-9.9626,114.1192,105.929)"/>
<use data-text="n" xlink:href="#font_1_77" transform="matrix(9.963397,0,0,-9.9626,117.17796,105.929)"/>
<use data-text="g" xlink:href="#font_1_59" transform="matrix(9.963397,0,0,-9.9626,122.77739,105.929)"/>
<use data-text="s" xlink:href="#font_1_98" transform="matrix(9.963397,0,0,-9.9626,127.36055,105.929)"/>
<use data-text="F" xlink:href="#font_1_54" transform="matrix(9.963397,0,0,-9.9626,60.98123,145.533)"/>
<use data-text="i" xlink:href="#font_1_66" transform="matrix(9.963397,0,0,-9.9626,67.48733,145.533)"/>
<use data-text="e" xlink:href="#font_1_50" transform="matrix(9.963397,0,0,-9.9626,70.54609,145.533)"/>
<use data-text="l" xlink:href="#font_1_72" transform="matrix(9.963397,0,0,-9.9626,75.12926,145.533)"/>
<use data-text="d" xlink:href="#font_1_47" transform="matrix(9.963397,0,0,-9.9626,77.679889,145.533)"/>
<use data-text="s" xlink:href="#font_1_98" transform="matrix(9.963397,0,0,-9.9626,82.77118,145.533)"/>
<path transform="matrix(1.00008,0,0,-1,73.91427,74.095)" stroke-width=".3985" stroke-linecap="butt" stroke-miterlimit="10" stroke-linejoin="miter" fill="none" stroke="#000000" d="M-7.97023 60.06592-45.35742 34.63406"/>
<path transform="matrix(1.00008,0,0,-1,73.91427,74.095)" stroke-width=".3985" stroke-linecap="butt" stroke-miterlimit="10" stroke-linejoin="miter" fill="none" stroke="#000000" d="M7.97023 60.06592 45.35742 34.63406"/>
<path transform="matrix(1.00008,0,0,-1,73.91427,74.095)" stroke-width=".3985" stroke-linecap="butt" stroke-miterlimit="10" stroke-linejoin="miter" fill="none" stroke="#000000" d="M-45.35742 10.72333V-10.72333"/>
<path transform="matrix(1.00008,0,0,-1,73.91427,74.095)" stroke-width=".3985" stroke-linecap="butt" stroke-miterlimit="10" stroke-linejoin="miter" fill="none" stroke="#000000" d="M21.44669 22.6787-21.44669-22.6787"/>
<path transform="matrix(1.00008,0,0,-1,73.91427,74.095)" stroke-width=".3985" stroke-linecap="butt" stroke-miterlimit="10" stroke-linejoin="miter" fill="none" stroke="#000000" d="M45.35742 10.72333V-10.72333"/>
<path transform="matrix(1.00008,0,0,-1,73.91427,74.095)" stroke-width=".3985" stroke-linecap="butt" stroke-miterlimit="10" stroke-linejoin="miter" fill="none" stroke="#000000" d="M-45.35742-38.61919-7.97023-60.06592"/>
<path transform="matrix(1.00008,0,0,-1,73.91427,74.095)" stroke-width=".3985" stroke-linecap="butt" stroke-miterlimit="10" stroke-linejoin="miter" fill="none" stroke="#000000" d="M45.35742-38.61919 7.97023-60.06592"/>
</svg>
