<svg xmlns="http://www.w3.org/2000/svg" xmlns:xlink="http://www.w3.org/1999/xlink" xmlns:inkscape="http://www.inkscape.org/namespaces/inkscape" version="1.1" width="157" height="161" viewBox="0 0 157 161">
<defs>
<path id="font_1_4" d="M.59298709 .06288147C.60598757 .04093933 .6459961 .0009918213 .6569977 .0009918213 .66600039 .0009918213 .66600039 .008987427 .66600039 .023986817V.19755554C.66600039 .23646546 .66999819 .24145508 .7350006 .24145508V.27246095C.69799807 .27145387 .6429901 .26945497 .61299136 .26945497 .57299807 .26945497 .48799134 .26945497 .45199586 .27246095V.24145508H.48399354C.57398989 .24145508 .57699587 .23048401 .57699587 .193573V.12973023C.57699587 .017532349 .44999696 .008529663 .42199708 .008529663 .35699464 .008529663 .15899658 .043518068 .15899658 .34155274 .15899658 .6410217 .35598756 .67407229 .41600038 .67407229 .522995 .67407229 .6139984 .5839386 .6339874 .43670655 .6359863 .42268373 .6359863 .41967774 .6499939 .41967774 .66600039 .41967774 .66600039 .42268373 .66600039 .44371034V.68107607C.66600039 .69807437 .66600039 .7050781 .6549988 .7050781 .651001 .7050781 .6469879 .7050781 .6389923 .69306948L.58898928 .61898806C.5569916 .6510315 .5029907 .7050781 .4039917 .7050781 .21798706 .7050781 .055999757 .546875 .055999757 .34155274 .055999757 .13648987 .21598816-.022460938 .4059906-.022460938 .47898866-.022003174 .5589905 .0039978029 .59298709 .06288147Z"/>
<path id="font_1_3" d="M.58200076 .6796112H.032989503V.64860537H.056991579C.13398743 .64860537 .13598633 .63760378 .13598633 .601593V.07791138C.13598633 .04197693 .13398743 .0309906 .056991579 .0309906H.032989503V0C.067993167 .0029907227 .1459961 .0029907227 .18499756 .0029907227 .22599793 .0029907227 .31698609 .0029907227 .35299684 0V.0309906H.31999208C.22499085 .0309906 .22499085 .04397583 .22499085 .0789032V.3244629H.31098939C.40699769 .3244629 .4169922 .29252626 .4169922 .20767212H.44198609V.47251893H.4169922C.4169922 .3884735 .40699769 .35546876 .31098939 .35546876H.22499085V.6085968C.22499085 .64160159 .22698975 .64860537 .27398683 .64860537H.3939972C.5439911 .64860537 .56900027 .5925751 .58499148 .45451356H.6100006L.58200076 .6796112Z"/>
<path id="font_1_1" d="M.33099366-.2400055C.33099366-.23701477 .33099366-.23500061 .31399537-.21800232 .18899536-.0920105 .15699768 .09700012 .15699768 .25 .15699768 .42399598 .19499207 .59799197 .31799317 .72299197 .33099366 .73498538 .33099366 .7369995 .33099366 .73999026 .33099366 .746994 .32699586 .75 .32099916 .75 .31098939 .75 .22099304 .6819916 .1619873 .5549927 .11099243 .44499208 .09899902 .33399964 .09899902 .25 .09899902 .17199707 .10998535 .050994874 .16499329-.06201172 .22499085-.18501282 .31098939-.25 .32099916-.25 .32699586-.25 .33099366-.24700928 .33099366-.2400055Z"/>
<path id="font_2_1" d="M.04499817-.122177127C.036987306-.15631104 .034988405-.16334534-.009002686-.16334534-.021011353-.16334534-.03201294-.16334534-.03201294-.18234253-.03201294-.19033814-.027008057-.19433594-.019012452-.19433594 .0079956059-.19433594 .036987306-.19134522 .06498718-.19134522 .09799194-.19134522 .13198853-.19433594 .1639862-.19433594 .16899109-.19433594 .18199158-.19433594 .18199158-.17434693 .18199158-.16334534 .17199707-.16334534 .1579895-.16334534 .10798645-.16334534 .10798645-.15631104 .10798645-.14727783 .10798645-.13523865 .1499939 .028259278 .15699768 .053268434 .16999817 .024261475 .19799805-.0107421879 .24899292-.0107421879 .36499024-.0107421879 .48999024 .13528443 .48999024 .28233338 .48999024 .37635804 .43299867 .4423828 .35699464 .4423828 .30699159 .4423828 .25898744 .40637208 .22599793 .36735536 .21598816 .42137147 .17298889 .4423828 .13598633 .4423828 .08999634 .4423828 .070999149 .4033661 .06199646 .38536073 .04399109 .35134889 .0309906 .29133607 .0309906 .28833009 .0309906 .27833558 .040985109 .27833558 .042999269 .27833558 .052993776 .27833558 .053985597 .2793274 .05999756 .30133058 .07699585 .37236024 .09700012 .42037965 .1329956 .42037965 .1499939 .42037965 .1639862 .41236878 .1639862 .37435914 .1639862 .35134889 .16099549 .3403473 .15699768 .323349L.04499817-.122177127M.22099304 .3123474C.22799683 .33935548 .25498963 .36735536 .272995 .38235475 .30799867 .41337586 .33699037 .42037965 .35398866 .42037965 .3939972 .42037965 .41799928 .38536073 .41799928 .32633973 .41799928 .26733399 .3849945 .15229798 .36698915 .11428833 .33299256 .044265748 .2849884 .011245728 .24798584 .011245728 .18199158 .011245728 .16899109 .0942688 .16899109 .10028076 .16899109 .10227966 .16899109 .104278568 .17199707 .11628723L.22099304 .3123474Z"/>
<path id="font_3_2" d="M.28199769 .20405579C.2979889 .21907044 .33999635 .2520752 .35598756 .26608277 .41799928 .32312013 .47698976 .3781433 .47698976 .46917726 .47698976 .588089 .3769989 .66503909 .2519989 .66503909 .13198853 .66503909 .052993776 .57411196 .052993776 .48516847 .052993776 .4361725 .09199524 .4291687 .10598755 .4291687 .1269989 .4291687 .1579895 .4441681 .1579895 .48217774 .1579895 .5341797 .10798645 .5341797 .09599304 .5341797 .125 .6070709 .19198609 .6320343 .24099732 .6320343 .33399964 .6320343 .38198854 .55314639 .38198854 .46917726 .38198854 .36514283 .30899049 .28910829 .19099427 .16804505L.06498718 .037994386C.052993776 .026992798 .052993776 .024993897 .052993776 0H.44799806L.47698976 .17904663H.44599916C.44299317 .1590271 .43499757 .10900879 .4229889 .08999634 .4169922 .08198547 .34098817 .08198547 .32499696 .08198547H.14698792L.28199769 .20405579Z"/>
<path id="font_3_4" d="M.3939972 .6468048C.3939972 .6667938 .3939972 .6748047 .37298585 .6748047 .3600006 .6748047 .35899354 .6737976 .34899903 .65979006L.02999878 .197052V.1640625H.31199647V.08100891C.31199647 .04399109 .30899049 .032989503 .23199463 .032989503H.20899964V0C.2939911 .0029907227 .29599 .0029907227 .35299684 .0029907227 .4099884 .0029907227 .4119873 .0029907227 .49699403 0V.032989503H.47399903C.39698792 .032989503 .3939972 .04399109 .3939972 .08100891V.1640625H.5V.197052H.3939972V.6468048M.31900025 .5658417V.197052H.06498718L.31900025 .5658417Z"/>
<path id="font_1_2" d="M.2889862 .25C.2889862 .32798768 .27799989 .44898988 .22299195 .56199648 .16299439 .68499758 .07699585 .75 .066986087 .75 .06098938 .75 .056991579 .74598696 .056991579 .73999026 .056991579 .7369995 .056991579 .73498538 .07598877 .71699526 .17399597 .6179962 .23098755 .45899964 .23098755 .25 .23098755 .07899475 .19400025-.09700012 .069992069-.2230072 .056991579-.23500061 .056991579-.23701477 .056991579-.2400055 .056991579-.2460022 .06098938-.25 .066986087-.25 .07699585-.25 .16699219-.18200684 .22599793-.055007936 .2769928 .054992677 .2889862 .16600037 .2889862 .25Z"/>
<path id="font_3_6" d="M.33198548 .36080934C.3880005 .38783265 .45599366 .4378662 .45599366 .5159302 .45599366 .6110077 .35899354 .66503909 .2659912 .66503909 .1599884 .66503909 .07398987 .59199526 .07398987 .49790956 .07398987 .46089173 .08699036 .42686463 .11199951 .39782716 .1289978 .3768158 .1329956 .3748169 .19499207 .3357849 .070999149 .2807312 .04399109 .20767212 .04399109 .15162659 .04399109 .041534425 .15499878-.021484375 .2639923-.021484375 .3869934-.021484375 .48599244 .061553956 .48599244 .16764832 .48599244 .23069763 .45199586 .2727356 .43598939 .28974916 .4189911 .30575563 .41799928 .3067627 .33198548 .36080934M.1769867 .45487977C.147995 .4718933 .12399292 .5009155 .12399292 .5359497 .12399292 .598999 .19299317 .6390381 .2639923 .6390381 .34199525 .6390381 .4059906 .5859833 .4059906 .5159302 .4059906 .45788575 .36099244 .408844 .3019867 .37982179L.1769867 .45487977M.22599793 .31776429C.22999573 .31576539 .34399415 .24571228 .36099244 .23469544 .3769989 .22569275 .42900086 .19366455 .42900086 .13360596 .42900086 .056549074 .34799195 .008514404 .2659912 .008514404 .1769867 .008514404 .100997928 .06956482 .100997928 .15162659 .100997928 .22668457 .15699768 .28573609 .22599793 .31776429Z"/>
<path id="font_3_1" d="M.31399537 .63708499C.31399537 .664032 .31199647 .66503909 .2849884 .66503909 .24398804 .6251831 .19099427 .6013489 .09599304 .6013489V.5683594C.12298584 .5683594 .1769867 .5683594 .23498535 .5953522V.08203125C.23498535 .04499817 .23199463 .032989503 .13699341 .032989503H.101989749V0C.14299011 .0029907227 .22898865 .0029907227 .27398683 .0029907227 .31900025 .0029907227 .4059906 .0029907227 .44699098 0V.032989503H.4119873C.31698609 .032989503 .31399537 .04499817 .31399537 .08203125V.63708499Z"/>
<path id="font_3_5" d="M.13798523 .33073426C.13798523 .41377259 .14498902 .4868164 .18099976 .54782107 .21099854 .5978241 .2619934 .6390381 .32499696 .6390381 .34498597 .6390381 .3909912 .63601687 .4139862 .60084536 .36898805 .5988312 .36499024 .5648346 .36499024 .553833 .36499024 .5238342 .3880005 .50683596 .4119873 .50683596 .42999269 .50683596 .45899964 .51782229 .45899964 .5558319 .45899964 .615921 .4139862 .66503909 .32398988 .66503909 .18499756 .66503909 .04399109 .53282168 .04399109 .31672669 .04399109 .045532228 .16999817-.021484375 .2669983-.021484375 .31498719-.021484375 .36698915-.0084991459 .4119873 .03453064 .45199586 .07354736 .48599244 .11558533 .48599244 .20263672 .48599244 .33372499 .3869934 .42578126 .27598573 .42578126 .20399475 .42578126 .16099549 .37976075 .13798523 .33073426M.2669983 .008514404C.21398926 .008514404 .18099976 .045532228 .1659851 .07354736 .14299011 .11859131 .14099121 .18663025 .14099121 .22465515 .14099121 .32373048 .19499207 .3977661 .27198792 .3977661 .32199098 .3977661 .35198976 .37176515 .37098695 .33673097 .3919983 .29971314 .3919983 .25468446 .3919983 .2036438 .3919983 .15260315 .3919983 .10858154 .37199403 .07255554 .34599305 .026519776 .31098939 .008514404 .2669983 .008514404Z"/>
<path id="font_3_3" d="M.25299073 .33370973C.33198548 .33370973 .38198854 .27557374 .38198854 .17037964 .38198854 .045440675 .31098939 .008514404 .2579956 .008514404 .20298767 .008514404 .12799073 .0284729 .09298706 .08137512 .1289978 .08137512 .1539917 .10437012 .1539917 .13737488 .1539917 .16937256 .1309967 .19238281 .09899902 .19238281 .07199097 .19238281 .04399109 .17536927 .04399109 .13537598 .04399109 .04045105 .1459961-.021484375 .2599945-.021484375 .3929901-.021484375 .48599244 .070388797 .48599244 .17037964 .48599244 .25352479 .41999818 .32969667 .31799317 .3517456 .39698792 .37982179 .45599366 .4479828 .45599366 .52804568 .45599366 .6080475 .3659973 .66503909 .2619934 .66503909 .15499878 .66503909 .07398987 .6070404 .07398987 .53105166 .07398987 .49404908 .09899902 .4780426 .125 .4780426 .1559906 .4780426 .17599488 .5000458 .17599488 .52905276 .17599488 .56604006 .14399719 .5800476 .12199402 .5810547 .1639862 .6360321 .24099732 .6390381 .25898744 .6390381 .2849884 .6390381 .36099244 .6310272 .36099244 .52804568 .36099244 .45799256 .33198548 .41589356 .31799317 .39985658 .28799439 .36878968 .2649994 .36679078 .20399475 .3627777 .18499756 .36177064 .1769867 .36076356 .1769867 .3477478 .1769867 .33370973 .18598938 .33370973 .20298767 .33370973H.25299073Z"/>
</defs>
<use data-text="G" xlink:href="#font_1_4" transform="matrix(10.909754,0,0,-10.9091,58.61998,10.729996)"/>
<use data-text="F" xlink:href="#font_1_3" transform="matrix(10.909754,0,0,-10.9091,67.173229,10.729996)"/>
<use data-text="(" xlink:href="#font_1_1" transform="matrix(10.909754,0,0,-10.9091,74.286388,10.729996)"/>
<use data-text="p" xlink:href="#font_2_1" transform="matrix(10.909754,0,0,-10.9091,78.54618,10.729996)"/>
<use data-text="2" xlink:href="#font_3_2" transform="matrix(7.9705779,0,0,-7.9701,84.03451,6.7719957)"/>
<use data-text="4" xlink:href="#font_3_4" transform="matrix(7.9705779,0,0,-7.9701,88.266887,6.7719957)"/>
<use data-text=")" xlink:href="#font_1_2" transform="matrix(10.909754,0,0,-10.9091,93.00204,10.729996)"/>
<use data-text="G" xlink:href="#font_1_4" transform="matrix(10.909754,0,0,-10.9091,1.2045364,44.462999)"/>
<use data-text="F" xlink:href="#font_1_3" transform="matrix(10.909754,0,0,-10.9091,9.757782,44.462999)"/>
<use data-text="(" xlink:href="#font_1_1" transform="matrix(10.909754,0,0,-10.9091,16.870942,44.462999)"/>
<use data-text="p" xlink:href="#font_2_1" transform="matrix(10.909754,0,0,-10.9091,21.130738,44.462999)"/>
<use data-text="8" xlink:href="#font_3_6" transform="matrix(7.9705779,0,0,-7.9701,26.619065,40.504999)"/>
<use data-text=")" xlink:href="#font_1_2" transform="matrix(10.909754,0,0,-10.9091,31.352356,44.462999)"/>
<use data-text="G" xlink:href="#font_1_4" transform="matrix(10.909754,0,0,-10.9091,118.15254,44.462999)"/>
<use data-text="F" xlink:href="#font_1_3" transform="matrix(10.909754,0,0,-10.9091,126.705799,44.462999)"/>
<use data-text="(" xlink:href="#font_1_1" transform="matrix(10.909754,0,0,-10.9091,133.81896,44.462999)"/>
<use data-text="p" xlink:href="#font_2_1" transform="matrix(10.909754,0,0,-10.9091,138.07875,44.462999)"/>
<use data-text="1" xlink:href="#font_3_1" transform="matrix(7.9705779,0,0,-7.9701,143.56708,40.504999)"/>
<use data-text="2" xlink:href="#font_3_2" transform="matrix(7.9705779,0,0,-7.9701,147.79946,40.504999)"/>
<use data-text=")" xlink:href="#font_1_2" transform="matrix(10.909754,0,0,-10.9091,152.5346,44.462999)"/>
<use data-text="G" xlink:href="#font_1_4" transform="matrix(10.909754,0,0,-10.9091,1.2045364,84.148998)"/>
<use data-text="F" xlink:href="#font_1_3" transform="matrix(10.909754,0,0,-10.9091,9.757782,84.148998)"/>
<use data-text="(" xlink:href="#font_1_1" transform="matrix(10.909754,0,0,-10.9091,16.870942,84.148998)"/>
<use data-text="p" xlink:href="#font_2_1" transform="matrix(10.909754,0,0,-10.9091,21.130738,84.148998)"/>
<use data-text="4" xlink:href="#font_3_4" transform="matrix(7.9705779,0,0,-7.9701,26.619065,80.190998)"/>
<use data-text=")" xlink:href="#font_1_2" transform="matrix(10.909754,0,0,-10.9091,31.352356,84.148998)"/>
<use data-text="G" xlink:href="#font_1_4" transform="matrix(10.909754,0,0,-10.9091,120.26967,84.148998)"/>
<use data-text="F" xlink:href="#font_1_3" transform="matrix(10.909754,0,0,-10.9091,128.82292,84.148998)"/>
<use data-text="(" xlink:href="#font_1_1" transform="matrix(10.909754,0,0,-10.9091,135.93608,84.148998)"/>
<use data-text="p" xlink:href="#font_2_1" transform="matrix(10.909754,0,0,-10.9091,140.19588,84.148998)"/>
<use data-text="6" xlink:href="#font_3_5" transform="matrix(7.9705779,0,0,-7.9701,145.6842,80.190998)"/>
<use data-text=")" xlink:href="#font_1_2" transform="matrix(10.909754,0,0,-10.9091,150.4175,84.148998)"/>
<use data-text="G" xlink:href="#font_1_4" transform="matrix(10.909754,0,0,-10.9091,1.2045364,123.83499)"/>
<use data-text="F" xlink:href="#font_1_3" transform="matrix(10.909754,0,0,-10.9091,9.757782,123.83499)"/>
<use data-text="(" xlink:href="#font_1_1" transform="matrix(10.909754,0,0,-10.9091,16.870942,123.83499)"/>
<use data-text="p" xlink:href="#font_2_1" transform="matrix(10.909754,0,0,-10.9091,21.130738,123.83499)"/>
<use data-text="2" xlink:href="#font_3_2" transform="matrix(7.9705779,0,0,-7.9701,26.619065,119.877)"/>
<use data-text=")" xlink:href="#font_1_2" transform="matrix(10.909754,0,0,-10.9091,31.352356,123.83499)"/>
<use data-text="G" xlink:href="#font_1_4" transform="matrix(10.909754,0,0,-10.9091,120.26967,123.83499)"/>
<use data-text="F" xlink:href="#font_1_3" transform="matrix(10.909754,0,0,-10.9091,128.82292,123.83499)"/>
<use data-text="(" xlink:href="#font_1_1" transform="matrix(10.909754,0,0,-10.9091,135.93608,123.83499)"/>
<use data-text="p" xlink:href="#font_2_1" transform="matrix(10.909754,0,0,-10.9091,140.19588,123.83499)"/>
<use data-text="3" xlink:href="#font_3_3" transform="matrix(7.9705779,0,0,-7.9701,145.6842,119.877)"/>
<use data-text=")" xlink:href="#font_1_2" transform="matrix(10.909754,0,0,-10.9091,150.4175,123.83499)"/>
<use data-text="G" xlink:href="#font_1_4" transform="matrix(10.909754,0,0,-10.9091,63.10325,157.112)"/>
<use data-text="F" xlink:href="#font_1_3" transform="matrix(10.909754,0,0,-10.9091,71.656497,157.112)"/>
<use data-text="(" xlink:href="#font_1_1" transform="matrix(10.909754,0,0,-10.9091,78.76965,157.112)"/>
<use data-text="p" xlink:href="#font_2_1" transform="matrix(10.909754,0,0,-10.9091,83.02945,157.112)"/>
<use data-text=")" xlink:href="#font_1_2" transform="matrix(10.909754,0,0,-10.9091,88.51778,157.112)"/>
<path transform="matrix(1.00006,0,0,-1,77.93214,80.965)" stroke-width=".3985" stroke-linecap="butt" stroke-miterlimit="10" stroke-linejoin="miter" fill="none" stroke="#000000" d="M-24.40868 73.41919-59.52911 50.14693"/>
<path transform="matrix(1.00006,0,0,-1,77.93214,80.965)" stroke-width=".3985" stroke-linecap="butt" stroke-miterlimit="10" stroke-linejoin="miter" fill="none" stroke="#000000" d="M24.40868 73.41919 59.52911 50.14693"/>
<path transform="matrix(1.00006,0,0,-1,77.93214,80.965)" stroke-width=".3985" stroke-linecap="butt" stroke-miterlimit="10" stroke-linejoin="miter" fill="none" stroke="#000000" d="M-59.52911 29.2252V10.46086"/>
<path transform="matrix(1.00006,0,0,-1,77.93214,80.965)" stroke-width=".3985" stroke-linecap="butt" stroke-miterlimit="10" stroke-linejoin="miter" fill="none" stroke="#000000" d="M59.52911 29.2252V10.46086"/>
<path transform="matrix(1.00006,0,0,-1,77.93214,80.965)" stroke-width=".3985" stroke-linecap="butt" stroke-miterlimit="10" stroke-linejoin="miter" fill="none" stroke="#000000" d="M35.12044 39.68607-35.12044 0"/>
<path transform="matrix(1.00006,0,0,-1,77.93214,80.965)" stroke-width=".3985" stroke-linecap="butt" stroke-miterlimit="10" stroke-linejoin="miter" fill="none" stroke="#000000" d="M-59.52911-10.46086V-29.2252"/>
<path transform="matrix(1.00006,0,0,-1,77.93214,80.965)" stroke-width=".3985" stroke-linecap="butt" stroke-miterlimit="10" stroke-linejoin="miter" fill="none" stroke="#000000" d="M59.52911-10.46086V-29.2252"/>
<path transform="matrix(1.00006,0,0,-1,77.93214,80.965)" stroke-width=".3985" stroke-linecap="butt" stroke-miterlimit="10" stroke-linejoin="miter" fill="none" stroke="#000000" d="M35.12044 0-35.12044-39.68607"/>
<path transform="matrix(1.00006,0,0,-1,77.93214,80.965)" stroke-width=".3985" stroke-linecap="butt" stroke-miterlimit="10" stroke-linejoin="miter" fill="none" stroke="#000000" d="M-59.52911-50.14693-24.40868-73.41919"/>
<path transform="matrix(1.00006,0,0,-1,77.93214,80.965)" stroke-width=".3985" stroke-linecap="butt" stroke-miterlimit="10" stroke-linejoin="miter" fill="none" stroke="#000000" d="M59.52911-50.14693 24.40868-73.41919"/>
</svg>
