<svg xmlns="http://www.w3.org/2000/svg" xmlns:xlink="http://www.w3.org/1999/xlink" xmlns:inkscape="http://www.inkscape.org/namespaces/inkscape" version="1.1" width="323" height="331" viewBox="0 0 323 331">
<defs>
<path id="font_1_1" d="M.47799684-.008560181C.61898806 .020431519 .7449951 .13237 .7449951 .3422699 .7449951 .59413149 .56799319 .70410159 .3889923 .70410159 .20599365 .70410159 .032989503 .58914187 .032989503 .34326173 .032989503 .12937927 .16099549 .027435303 .2789917-.0035552979 .32398988-.10656738 .4229889-.17855835 .5469971-.17855835 .5970001-.17855835 .6519928-.16856385 .70399478-.14855957 .7220001-.14155579 .7319946-.13755799 .7319946-.12556458 .7319946-.11355591 .72299197-.107559207 .71499636-.107559207 .71299746-.107559207 .71199038-.107559207 .7049866-.109558109 .6769867-.11656189 .66600039-.11656189 .6499939-.11656189 .55799868-.11656189 .5009918-.058563234 .47799684-.008560181M.25099183 .6411133C.18998719 .57014468 .17399597 .45321656 .17399597 .34326173 .17399597 .24531555 .18598938 .12037659 .2519989 .042419435 .18299866 .06840515 .067993167 .14837647 .067993167 .3422699 .067993167 .54615786 .19198609 .6201172 .25 .6421051L.25099183 .6411133M.5279999 .6421051C.59498599 .61712649 .70999148 .5371704 .70999148 .34326173 .70999148 .13937378 .58599856 .06541443 .526001 .042419435 .58799746 .11538696 .60398867 .23233032 .60398867 .3422699 .60398867 .44021607 .59199526 .565155 .5269928 .6411133L.5279999 .6421051M.3889923 .016433716C.22698975 .016433716 .20899964 .22833252 .20899964 .3422699 .20899964 .46220399 .22898865 .6690979 .3889923 .6690979 .5509949 .6690979 .56900027 .45721437 .56900027 .34326173 .56900027 .22332764 .548996 .016433716 .3889923 .016433716M.32299806-.0135650639C.35099793-.018554688 .3880005-.018554688 .3889923-.018554688 .3939972-.018554688 .4149933-.018554688 .44299317-.015563965 .46998597-.078567508 .5169983-.11656189 .5669861-.13656616 .57699587-.14056397 .5779877-.14056397 .5779877-.14155579 .5779877-.14355469 .55999758-.14355469 .5469971-.14355469 .46199037-.14355469 .375-.1035614 .32299806-.0135650639Z"/>
<path id="font_2_1" d="M.33099366-.2400055C.33099366-.23701477 .33099366-.23500061 .31399537-.21800232 .18899536-.0920105 .15699768 .09700012 .15699768 .25 .15699768 .42399598 .19499207 .59799197 .31799317 .72299197 .33099366 .73498538 .33099366 .7369995 .33099366 .73999026 .33099366 .746994 .32699586 .75 .32099916 .75 .31098939 .75 .22099304 .6819916 .1619873 .5549927 .11099243 .44499208 .09899902 .33399964 .09899902 .25 .09899902 .17199707 .10998535 .050994874 .16499329-.06201172 .22499085-.18501282 .31098939-.25 .32099916-.25 .32699586-.25 .33099366-.24700928 .33099366-.2400055Z"/>
<path id="font_3_1" d="M.56399539 .1640625V.2030487H.44699098V.6448059C.44699098 .6678009 .44699098 .6748047 .42199708 .6748047 .4039917 .6748047 .4019928 .6717987 .3929901 .65979006L.04598999 .2030487V.1640625H.35699464V.08401489C.35699464 .050994874 .35699464 .038986207 .272995 .038986207H.24398804V0C.2639923 .0009918213 .35798646 .0039978029 .4019928 .0039978029 .44599916 .0039978029 .5399933 .0009918213 .55999758 0V.038986207H.5309906C.44699098 .038986207 .44699098 .050994874 .44699098 .08401489V.1640625H.56399539M.3639984 .56585696V.2030487H.08898926L.3639984 .56585696Z"/>
<path id="font_4_4" d="M.3889923-.8549652 .21299744-.4659729C.20599365-.44996644 .20098877-.44996644 .19799805-.44996644 .19699097-.44996644 .19198609-.44996644 .18099976-.45796205L.085998538-.52996829C.07299805-.53996279 .07299805-.54296877 .07299805-.54597476 .07299805-.55096438 .07598877-.55696108 .08299255-.55696108 .08898926-.55696108 .10598755-.54296877 .116989139-.53497317 .12298584-.52996829 .13798523-.5189667 .14898682-.51097109L.34599305-.9439697C.35299684-.95996096 .35798646-.95996096 .36698915-.95996096 .38198854-.95996096 .3849945-.95396426 .3919983-.9399719L.84599307 .000030517579C.8529968 .014038086 .8529968 .018035889 .8529968 .02003479 .8529968 .030029297 .8450012 .040039064 .83299258 .040039064 .82499697 .040039064 .81799319 .03503418 .80999758 .01902771L.3889923-.8549652Z"/>
<path id="font_2_5" d="M.1269989 .07699585 .23298645 .18003845C.3889923 .31811524 .44898988 .3721466 .44898988 .47216798 .44898988 .5860901 .35899354 .6660156 .23699951 .6660156 .12399292 .6660156 .049987794 .57411196 .049987794 .48516847 .049987794 .4291687 .099990848 .4291687 .102996829 .4291687 .11999512 .4291687 .15499878 .44117738 .15499878 .48217774 .15499878 .5081787 .13699341 .5341797 .101989749 .5341797 .09399414 .5341797 .09199524 .5341797 .08898926 .5331726 .11199951 .59806826 .1659851 .63500979 .22399903 .63500979 .31498719 .63500979 .35798646 .5541382 .35798646 .47216798 .35798646 .39215089 .30799867 .31311036 .25299073 .25108338L.06098938 .036987306C.049987794 .025985718 .049987794 .023986817 .049987794 0H.42099L.44898988 .17404175H.42399598C.4189911 .14402771 .4119873 .1000061 .4019928 .084991458 .394989 .07699585 .32899476 .07699585 .30699159 .07699585H.1269989Z"/>
<path id="font_5_3" d="M.20298767 .0009918213C.20298767 .066986087 .17799378 .10598755 .13899231 .10598755 .10598755 .10598755 .085998538 .08099365 .085998538 .052993776 .085998538 .025985718 .10598755 0 .13899231 0 .15098572 0 .1639862 .0039978029 .17399597 .0129852299 .1769867 .01499939 .17799378 .015991211 .1789856 .015991211 .17999268 .015991211 .18099976 .01499939 .18099976 .0009918213 .18099976-.07316589 .1459961-.13328552 .11299133-.16635132 .101989749-.17736817 .101989749-.17936707 .101989749-.18237305 .101989749-.18936157 .10699463-.19335938 .11199951-.19335938 .12298584-.19335938 .20298767-.116256717 .20298767 .0009918213Z"/>
<path id="font_5_5" d="M.28399659 .6252594C.28399659 .6452637 .269989 .6612549 .24699402 .6612549 .21998596 .6612549 .19299317 .6352539 .19299317 .6082611 .19299317 .5892639 .20698548 .5722656 .23098755 .5722656 .2539978 .5722656 .28399659 .5952606 .28399659 .6252594M.20799256 .24932862C.21998596 .27833558 .21998596 .28033448 .22999573 .30734254 .23799134 .3273468 .24299622 .34135438 .24299622 .36035157 .24299622 .405365 .21099854 .4423828 .16099549 .4423828 .066986087 .4423828 .0289917 .29733277 .0289917 .28833009 .0289917 .27833558 .038986207 .27833558 .040985109 .27833558 .050994874 .27833558 .051986696 .28033448 .056991579 .29634095 .083999637 .3903656 .12399292 .42037965 .1579895 .42037965 .1659851 .42037965 .18299866 .42037965 .18299866 .3883667 .18299866 .36735536 .17599488 .346344 .17199707 .3363495 .1639862 .31033326 .11898804 .19430542 .102996829 .1512909 .09298706 .12528992 .07998657 .0922699 .07998657 .0712738 .07998657 .024261475 .11399841-.0107421879 .1619873-.0107421879 .2559967-.0107421879 .29299928 .1342926 .29299928 .14329529 .29299928 .1532898 .28399659 .1532898 .2809906 .1532898 .2709961 .1532898 .2709961 .15029907 .2659912 .13528443 .24798584 .072265628 .21499634 .011245728 .1639862 .011245728 .14698792 .011245728 .13999939 .021255494 .13999939 .044265748 .13999939 .0692749 .1459961 .08326721 .16899109 .14428711L.20799256 .24932862Z"/>
<path id="font_2_2" d="M.2889862 .25C.2889862 .32798768 .27799989 .44898988 .22299195 .56199648 .16299439 .68499758 .07699585 .75 .066986087 .75 .06098938 .75 .056991579 .74598696 .056991579 .73999026 .056991579 .7369995 .056991579 .73498538 .07598877 .71699526 .17399597 .6179962 .23098755 .45899964 .23098755 .25 .23098755 .07899475 .19400025-.09700012 .069992069-.2230072 .056991579-.23500061 .056991579-.23701477 .056991579-.2400055 .056991579-.2460022 .06098938-.25 .066986087-.25 .07699585-.25 .16699219-.18200684 .22599793-.055007936 .2769928 .054992677 .2889862 .16600037 .2889862 .25Z"/>
<path id="font_2_4" d="M.2939911 .64004519C.2939911 .66400149 .2939911 .6660156 .2709961 .6660156 .20899964 .60227969 .12098694 .60227969 .08898926 .60227969V.57128909C.10899353 .57128909 .16799927 .57128909 .21998596 .5972748V.07902527C.21998596 .042999269 .21699524 .0309906 .1269989 .0309906H.09498596V0C.12998963 .0029907227 .21699524 .0029907227 .25698854 .0029907227 .29699708 .0029907227 .38398744 .0029907227 .4189911 0V.0309906H.3869934C.29699708 .0309906 .2939911 .041992189 .2939911 .07902527V.64004519Z"/>
<path id="font_2_3" d="M.40899659 .23046875H.6879883C.70199587 .23046875 .72099307 .23046875 .72099307 .25045777 .72099307 .27046205 .70199587 .27046205 .6879883 .27046205H.40899659V.5500183C.40899659 .56399539 .40899659 .5830078 .3889923 .5830078 .36898805 .5830078 .36898805 .56399539 .36898805 .5500183V.27046205H.08898926C.07499695 .27046205 .055999757 .27046205 .055999757 .25045777 .055999757 .23046875 .07499695 .23046875 .08898926 .23046875H.36898805V-.05000305C.36898805-.06401062 .36898805-.08300781 .3889923-.08300781 .40899659-.08300781 .40899659-.06401062 .40899659-.05000305V.23046875Z"/>
<path id="font_4_1" d="M.6589966 .23046875C.6759949 .23046875 .69400027 .23046875 .69400027 .25045777 .69400027 .27046205 .6759949 .27046205 .6589966 .27046205H.117996219C.100997928 .27046205 .08299255 .27046205 .08299255 .25045777 .08299255 .23046875 .100997928 .23046875 .117996219 .23046875H.6589966Z"/>
<path id="font_6_85" d="M.33099366-.2400055C.33099366-.23701477 .33099366-.23500061 .31399537-.21800232 .18899536-.0920105 .15699768 .09700012 .15699768 .25 .15699768 .42399598 .19499207 .59799197 .31799317 .72299197 .33099366 .7350006 .33099366 .7369995 .33099366 .73999026 .33099366 .746994 .32699586 .75 .32099916 .75 .31098939 .75 .22099304 .6819916 .1619873 .5549927 .11099243 .44499208 .09899902 .33399964 .09899902 .25 .09899902 .17199707 .10998535 .050994874 .16499329-.06201172 .22499085-.18501282 .31098939-.25 .32099916-.25 .32699586-.25 .33099366-.24700928 .33099366-.2400055Z"/>
<path id="font_6_28" d="M.48298646 .08912659V.14511109H.45799256V.08912659C.45799256 .03112793 .43299867 .025131226 .42199708 .025131226 .3889923 .025131226 .3849945 .070129398 .3849945 .07511902V.27508546C.3849945 .31707765 .3849945 .3560791 .34899903 .39312745 .30999757 .43223573 .2599945 .4482422 .21199036 .4482422 .12998963 .4482422 .06098938 .40115357 .06098938 .335083 .06098938 .30508424 .08099365 .28808595 .10699463 .28808595 .1349945 .28808595 .15299988 .30807496 .15299988 .33407594 .15299988 .3460846 .147995 .37908937 .101989749 .38008119 .1289978 .41519166 .17799378 .426239 .20999146 .426239 .25898744 .426239 .31599427 .38710023 .31599427 .29808045V.26107789C.2649994 .25808717 .19499207 .25508119 .13198853 .22509766 .056991579 .19110108 .03199768 .13911438 .03199768 .09512329 .03199768 .014251709 .1289978-.0107421879 .19198609-.0107421879 .2579956-.0107421879 .3039856 .029251099 .32299806 .07624817 .32699586 .036132814 .35398866-.005859375 .40098573-.005859375 .42199708-.005859375 .48298646 .008132935 .48298646 .08912659M.31599427 .14013672C.31599427 .04525757 .24398804 .011245728 .19898987 .011245728 .1499939 .011245728 .10899353 .04624939 .10899353 .09625244 .10899353 .15124512 .15098572 .23425293 .31599427 .24024964V.14013672Z"/>
<path id="font_6_86" d="M.2889862 .25C.2889862 .32798768 .27799989 .44898988 .22299195 .56199648 .16299439 .68499758 .07699585 .75 .066986087 .75 .06098938 .75 .056991579 .74598696 .056991579 .73999026 .056991579 .7369995 .056991579 .7350006 .07598877 .71699526 .17399597 .6179962 .23098755 .45899964 .23098755 .25 .23098755 .07899475 .19400025-.09700012 .069992069-.2230072 .056991579-.23500061 .056991579-.23701477 .056991579-.2400055 .056991579-.2460022 .06098938-.25 .066986087-.25 .07699585-.25 .16699219-.18200684 .22599793-.055007936 .2769928 .054992677 .2889862 .16600037 .2889862 .25Z"/>
<path id="font_5_4" d="M.15899658 .07795715C.14898682 .038986207 .14698792 .0309906 .067993167 .0309906 .050994874 .0309906 .039993287 .0309906 .039993287 .011993408 .039993287 0 .04899597 0 .067993167 0H.39898683C.6069946 0 .80400088 .21087647 .80400088 .42974855 .80400088 .5706482 .71899417 .6826172 .56900027 .6826172H.23298645C.21398926 .6826172 .20298767 .6826172 .20298767 .66360476 .20298767 .6516113 .21199036 .6516113 .23199463 .6516113 .24499512 .6516113 .2630005 .65060427 .2749939 .6496124 .29100038 .6476135 .29699708 .64460757 .29699708 .6336212 .29699708 .6296234 .29599 .62661746 .29299928 .614624L.15899658 .07795715M.375 .6136322C.38398744 .64860537 .38598634 .6516113 .42900086 .6516113H.5359955C.6339874 .6516113 .71699526 .5986328 .71699526 .46672059 .71699526 .41775514 .69699099 .25386048 .6119995 .1439209 .58299258 .10694885 .5039978 .0309906 .3809967 .0309906H.2679901C.2539978 .0309906 .2519989 .0309906 .24598694 .03199768 .23599243 .032989503 .23298645 .033996583 .23298645 .041992189 .23298645 .04498291 .23298645 .04698181 .23799134 .064971927L.375 .6136322Z"/>
<path id="font_7_3" d="M.3939972 .6468048C.3939972 .6667938 .3939972 .6748047 .37298585 .6748047 .3600006 .6748047 .35899354 .6737976 .34899903 .65979006L.02999878 .197052V.1640625H.31199647V.08100891C.31199647 .04399109 .30899049 .032989503 .23199463 .032989503H.20899964V0C.2939911 .0029907227 .29599 .0029907227 .35299684 .0029907227 .4099884 .0029907227 .4119873 .0029907227 .49699403 0V.032989503H.47399903C.39698792 .032989503 .3939972 .04399109 .3939972 .08100891V.1640625H.5V.197052H.3939972V.6468048M.31900025 .5658417V.197052H.06498718L.31900025 .5658417Z"/>
<path id="font_4_2" d="M.2829895 .6169281C.2829895 .6569519 .30899049 .72099307 .41799928 .7279968 .4229889 .72898867 .4269867 .73298647 .4269867 .7389984 .4269867 .75 .4189911 .75 .4079895 .75 .30799867 .75 .21699524 .6989746 .21598816 .62493899V.3968048C.21598816 .3577881 .21598816 .32577516 .17599488 .29275514 .14099121 .2637329 .102996829 .261734 .08099365 .2607422 .07598877 .2597351 .07199097 .2557373 .07199097 .2497406 .07199097 .23973084 .07798767 .23973084 .08799744 .23873902 .1539917 .23474121 .20199585 .19876099 .21299744 .14978028 .21598816 .13879395 .21598816 .13679505 .21598816 .10081482V-.097076419C.21598816-.13905335 .21598816-.17103577 .2639923-.2090149 .30299378-.23901367 .36898805-.25 .4079895-.25 .4189911-.25 .4269867-.25 .4269867-.23901367 .4269867-.2290039 .42099-.2290039 .41099549-.22801209 .34799195-.22401428 .29899598-.19203186 .28599549-.14105225 .2829895-.13206482 .2829895-.13006592 .2829895-.09408569V.11579895C.2829895 .16177368 .2749939 .17877198 .24299622 .2107544 .22200012 .23173523 .19299317 .24172974 .16499329 .2497406 .24699402 .2727356 .2829895 .31877137 .2829895 .37680055V.6169281Z"/>
<path id="font_2_7" d="M.1769867 .4423828 .036987306 .43138124V.40037538C.101989749 .40037538 .11099243 .3943634 .11099243 .34532167V.076034549C.11099243 .0309906 .099990848 .0309906 .032989503 .0309906V0C.06498718 .0009918213 .11898804 .0029907227 .14299011 .0029907227 .17799378 .0029907227 .21299744 .0009918213 .24699402 0V.0309906C.18099976 .0309906 .1769867 .035995485 .1769867 .075042728V.4423828M.18099976 .6159363C.18099976 .64793398 .1559906 .6689453 .12799073 .6689453 .09700012 .6689453 .07499695 .64193728 .07499695 .6159363 .07499695 .5889435 .09700012 .5629425 .12799073 .5629425 .1559906 .5629425 .18099976 .5839386 .18099976 .6159363Z"/>
<path id="font_2_6" d="M.37998963 .055252077V-.0107421879L.5269928 .00024414063V.03125C.45700074 .03125 .44898988 .038253786 .44898988 .087265018V.69433596L.30499269 .68333438V.6523285C.375 .6523285 .3829956 .6453247 .3829956 .596344V.38035584C.35398866 .41636659 .31098939 .4423828 .25698854 .4423828 .13899231 .4423828 .033996583 .3443451 .033996583 .21531677 .033996583 .088272098 .13198853-.0107421879 .24598694-.0107421879 .30999757-.0107421879 .35499574 .023254395 .37998963 .055252077M.37998963 .323349V.118270877C.37998963 .1002655 .37998963 .0982666 .36898805 .08126831 .33898927 .0332489 .2939911 .011245728 .25099183 .011245728 .20599365 .011245728 .16999817 .037246705 .1459961 .07527161 .11999512 .11627197 .116989139 .17329407 .116989139 .21430969 .116989139 .25131227 .11898804 .31134034 .147995 .35635377 .16899109 .38735963 .20698548 .42037965 .26098634 .42037965 .29599 .42037965 .33799745 .405365 .36898805 .36035157 .37998963 .34335328 .37998963 .34135438 .37998963 .323349Z"/>
<path id="font_5_1" d="M.5179901 .37265016C.5309906 .37265016 .5669861 .37265016 .5669861 .406662 .5669861 .43066407 .54599 .43066407 .5279999 .43066407H.2999878C.14898682 .43066407 .037994386 .26583863 .037994386 .14703369 .037994386 .059173585 .09700012-.0107421879 .18798828-.0107421879 .30599977-.0107421879 .43899537 .11009216 .43899537 .26383973 .43899537 .2808075 .43899537 .32873536 .4079895 .37265016H.5179901M.18899536 .011245728C.13999939 .011245728 .099990848 .047195436 .099990848 .11907959 .099990848 .14901734 .11199951 .230896 .14698792 .28979493 .18899536 .3586731 .24899292 .37265016 .2829895 .37265016 .36698915 .37265016 .375 .3067627 .375 .27581788 .375 .2288971 .35499574 .14703369 .32099916 .09611511 .28199769 .037200929 .22799683 .011245728 .18899536 .011245728Z"/>
<path id="font_7_1" d="M.28199769 .20405579C.2979889 .21907044 .33999635 .2520752 .35598756 .26608277 .41799928 .32312013 .47698976 .3781433 .47698976 .46917726 .47698976 .588089 .3769989 .66503909 .2519989 .66503909 .13198853 .66503909 .052993776 .57411196 .052993776 .48516847 .052993776 .4361725 .09199524 .4291687 .10598755 .4291687 .1269989 .4291687 .1579895 .4441681 .1579895 .48217774 .1579895 .5341797 .10798645 .5341797 .09599304 .5341797 .125 .6070709 .19198609 .6320343 .24099732 .6320343 .33399964 .6320343 .38198854 .55314639 .38198854 .46917726 .38198854 .36514283 .30899049 .28910829 .19099427 .16804505L.06498718 .037994386C.052993776 .026992798 .052993776 .024993897 .052993776 0H.44799806L.47698976 .17904663H.44599916C.44299317 .1590271 .43499757 .10900879 .4229889 .08999634 .4169922 .08198547 .34098817 .08198547 .32499696 .08198547H.14698792L.28199769 .20405579Z"/>
<path id="font_5_2" d="M.2939911 .37265016H.46199037C.47499085 .37265016 .5109863 .37265016 .5109863 .406662 .5109863 .43066407 .48999024 .43066407 .47099305 .43066407H.19099427C.17098999 .43066407 .13198853 .43066407 .08799744 .38365174 .054992677 .34770204 .026992798 .29977418 .026992798 .29379273 .026992798 .29278565 .026992798 .28381349 .038986207 .28381349 .04699707 .28381349 .04899597 .28779603 .054992677 .29579164 .10398865 .37265016 .16099549 .37265016 .18199158 .37265016H.2649994L.16699219 .052200319C.16299439 .040222169 .15699768 .019256592 .15699768 .015258789 .15699768 .004272461 .1639862-.01171875 .18598938-.01171875 .21899414-.01171875 .22399903 .01626587 .22698975 .031234742L.2939911 .37265016Z"/>
<path id="font_4_3" d="M.21598816-.11706543C.21598816-.15704346 .18998719-.2210083 .08099365-.22801209 .07598877-.2290039 .07199097-.23300171 .07199097-.23901367 .07199097-.25 .08299255-.25 .09199524-.25 .18899536-.25 .28199769-.20101929 .2829895-.12506104V.10282898C.2829895 .14179993 .2829895 .17378235 .32299806 .20677185 .35798646 .23576355 .3959961 .23776245 .41799928 .23875427 .4229889 .23976135 .4269867 .24375916 .4269867 .24975586 .4269867 .25976563 .42099 .25976563 .41099549 .26075746 .34498597 .26475526 .29699708 .30078126 .28599549 .34980775 .2829895 .36080934 .2829895 .36280824 .2829895 .39883424V.5969238C.2829895 .63894656 .2829895 .6709595 .23498535 .7089844 .19499207 .73999026 .12599182 .75 .09199524 .75 .08299255 .75 .07199097 .75 .07199097 .7389984 .07199097 .72898867 .07798767 .72898867 .08799744 .72798159 .15098572 .72398379 .19999695 .6919708 .21299744 .64094546 .21598816 .63194277 .21598816 .62994387 .21598816 .59391787V.38381959C.21598816 .33779908 .22399903 .32078553 .2559967 .28877259 .2769928 .26776124 .30599977 .25775147 .33399964 .24975586 .2519989 .22676087 .21598816 .18078614 .21598816 .12281799V-.11706543Z"/>
<path id="font_7_2" d="M.25299073 .33370973C.33198548 .33370973 .38198854 .27557374 .38198854 .17037964 .38198854 .045440675 .31098939 .008514404 .2579956 .008514404 .20298767 .008514404 .12799073 .0284729 .09298706 .08137512 .1289978 .08137512 .1539917 .10437012 .1539917 .13737488 .1539917 .16937256 .1309967 .19238281 .09899902 .19238281 .07199097 .19238281 .04399109 .17536927 .04399109 .13537598 .04399109 .04045105 .1459961-.021484375 .2599945-.021484375 .3929901-.021484375 .48599244 .070388797 .48599244 .17037964 .48599244 .25352479 .41999818 .32969667 .31799317 .3517456 .39698792 .37982179 .45599366 .4479828 .45599366 .52804568 .45599366 .6080475 .3659973 .66503909 .2619934 .66503909 .15499878 .66503909 .07398987 .6070404 .07398987 .53105166 .07398987 .49404908 .09899902 .4780426 .125 .4780426 .1559906 .4780426 .17599488 .5000458 .17599488 .52905276 .17599488 .56604006 .14399719 .5800476 .12199402 .5810547 .1639862 .6360321 .24099732 .6390381 .25898744 .6390381 .2849884 .6390381 .36099244 .6310272 .36099244 .52804568 .36099244 .45799256 .33198548 .41589356 .31799317 .39985658 .28799439 .36878968 .2649994 .36679078 .20399475 .3627777 .18499756 .36177064 .1769867 .36076356 .1769867 .3477478 .1769867 .33370973 .18598938 .33370973 .20298767 .33370973H.25299073Z"/>
<path id="font_6_35" d="M.5209961 .2163086C.5209961 .34335328 .4229889 .4423828 .30899049 .4423828 .23098755 .4423828 .18798828 .39537049 .17199707 .3773651V.69433596L.027999878 .68333438V.6523285C.09799194 .6523285 .10598755 .6453247 .10598755 .596344V.00024414063H.1309967L.16699219 .06227112C.18199158 .039260866 .22399903-.0107421879 .2979889-.0107421879 .4169922-.0107421879 .5209961 .08728027 .5209961 .2163086M.43798829 .21731568C.43798829 .18029785 .43598939 .120285037 .40699769 .07527161 .38598634 .044265748 .34799195 .011245728 .2939911 .011245728 .24899292 .011260986 .21299744 .03526306 .18899536 .072265628 .1749878 .09326172 .1749878 .09625244 .1749878 .11425781V.32034303C.1749878 .3393402 .1749878 .3403473 .18598938 .35635377 .22499085 .41236878 .27999879 .42037965 .3039856 .42037965 .34899903 .42037965 .3849945 .3943634 .40899659 .35635377 .43499757 .31533814 .43798829 .25831605 .43798829 .21730042V.21731568Z"/>
</defs>
<use data-text="Q" xlink:href="#font_1_1" transform="matrix(10.909428,0,0,-10.909644,133.88524,10.528809)"/>
<use data-text="(" xlink:href="#font_2_1" transform="matrix(10.909428,0,0,-10.909644,142.3705,10.528809)"/>
<use data-text="4" xlink:href="#font_3_1" transform="matrix(5.97778,0,0,-5.9778988,149.64272,5.4585268)"/>
<use data-text="&#x221a;" xlink:href="#font_4_4" transform="matrix(10.909428,0,0,-10.909644,147.23566,1.5033569)"/>
<path transform="matrix(1.00003,0,0,-1.00005,-61.37462,-298.94868)" stroke-width=".4364" stroke-linecap="butt" stroke-miterlimit="10" stroke-linejoin="miter" fill="none" stroke="#000000" d="M217.695-300.219H223.149"/>
<use data-text="2" xlink:href="#font_2_5" transform="matrix(10.909428,0,0,-10.909644,156.32694,10.528809)"/>
<use data-text="," xlink:href="#font_5_3" transform="matrix(10.909428,0,0,-10.909644,161.78108,10.528809)"/>
<use data-text="i" xlink:href="#font_5_5" transform="matrix(10.909428,0,0,-10.909644,166.61397,10.528809)"/>
<use data-text=")" xlink:href="#font_2_2" transform="matrix(10.909428,0,0,-10.909644,170.38834,10.528809)"/>
<use data-text="Q" xlink:href="#font_1_1" transform="matrix(10.909428,0,0,-10.909644,1.2032623,55.88806)"/>
<use data-text="(" xlink:href="#font_2_1" transform="matrix(10.909428,0,0,-10.909644,9.688522,55.88806)"/>
<use data-text="4" xlink:href="#font_3_1" transform="matrix(5.97778,0,0,-5.9778988,16.96074,50.81778)"/>
<use data-text="&#x221a;" xlink:href="#font_4_4" transform="matrix(10.909428,0,0,-10.909644,14.55368,46.86261)"/>
<path transform="matrix(1.00003,0,0,-1.00005,-194.0566,-253.58942)" stroke-width=".4364" stroke-linecap="butt" stroke-miterlimit="10" stroke-linejoin="miter" fill="none" stroke="#000000" d="M217.695-300.219H223.149"/>
<use data-text="2" xlink:href="#font_2_5" transform="matrix(10.909428,0,0,-10.909644,23.644959,55.88806)"/>
<use data-text=")" xlink:href="#font_2_2" transform="matrix(10.909428,0,0,-10.909644,30.91063,55.88806)"/>
<use data-text="Q" xlink:href="#font_1_1" transform="matrix(10.909428,0,0,-10.909644,67.36224,55.88806)"/>
<use data-text="(" xlink:href="#font_2_1" transform="matrix(10.909428,0,0,-10.909644,75.8475,55.88806)"/>
<use data-text="4" xlink:href="#font_3_1" transform="matrix(5.97778,0,0,-5.9778988,83.11972,50.81778)"/>
<use data-text="&#x221a;" xlink:href="#font_4_4" transform="matrix(10.909428,0,0,-10.909644,80.71266,46.86261)"/>
<path transform="matrix(1.00003,0,0,-1.00005,-127.89761,-253.58942)" stroke-width=".4364" stroke-linecap="butt" stroke-miterlimit="10" stroke-linejoin="miter" fill="none" stroke="#000000" d="M217.695-300.219H223.149"/>
<use data-text="2" xlink:href="#font_2_5" transform="matrix(10.909428,0,0,-10.909644,89.80394,55.88806)"/>
<use data-text="i" xlink:href="#font_5_5" transform="matrix(10.909428,0,0,-10.909644,97.07616,55.88806)"/>
<use data-text=")" xlink:href="#font_2_2" transform="matrix(10.909428,0,0,-10.909644,100.835269,55.88806)"/>
<use data-text="Q" xlink:href="#font_1_1" transform="matrix(10.909428,0,0,-10.909644,134.19725,55.88806)"/>
<use data-text="(" xlink:href="#font_2_1" transform="matrix(10.909428,0,0,-10.909644,142.68251,55.88806)"/>
<use data-text="&#x221a;" xlink:href="#font_4_4" transform="matrix(10.909428,0,0,-10.909644,146.92464,46.86261)"/>
<path transform="matrix(1.00003,0,0,-1.00005,-61.06261,-253.58942)" stroke-width=".4364" stroke-linecap="butt" stroke-miterlimit="10" stroke-linejoin="miter" fill="none" stroke="#000000" d="M217.072-300.219H222.527"/>
<use data-text="2" xlink:href="#font_2_5" transform="matrix(10.909428,0,0,-10.909644,156.01592,55.88806)"/>
<use data-text="," xlink:href="#font_5_3" transform="matrix(10.909428,0,0,-10.909644,161.47109,55.88806)"/>
<use data-text="i" xlink:href="#font_5_5" transform="matrix(10.909428,0,0,-10.909644,166.30397,55.88806)"/>
<use data-text=")" xlink:href="#font_2_2" transform="matrix(10.909428,0,0,-10.909644,170.07735,55.88806)"/>
<use data-text="Q" xlink:href="#font_1_1" transform="matrix(10.909428,0,0,-10.909644,189.80191,55.88806)"/>
<use data-text="(" xlink:href="#font_2_1" transform="matrix(10.909428,0,0,-10.909644,198.28717,55.88806)"/>
<use data-text="(" xlink:href="#font_2_1" transform="matrix(10.909428,0,0,-10.909644,202.52002,55.88806)"/>
<use data-text="1" xlink:href="#font_2_4" transform="matrix(10.909428,0,0,-10.909644,206.7529,55.88806)"/>
<use data-text="+" xlink:href="#font_2_3" transform="matrix(10.909428,0,0,-10.909644,214.62949,55.88806)"/>
<use data-text="i" xlink:href="#font_5_5" transform="matrix(10.909428,0,0,-10.909644,225.56,55.88806)"/>
<use data-text=")" xlink:href="#font_2_2" transform="matrix(10.909428,0,0,-10.909644,229.31912,55.88806)"/>
<use data-text="4" xlink:href="#font_3_1" transform="matrix(5.97778,0,0,-5.9778988,236.59134,50.81778)"/>
<use data-text="&#x221a;" xlink:href="#font_4_4" transform="matrix(10.909428,0,0,-10.909644,234.18427,46.86261)"/>
<path transform="matrix(1.00003,0,0,-1.00005,-5.457939,-253.58942)" stroke-width=".4364" stroke-linecap="butt" stroke-miterlimit="10" stroke-linejoin="miter" fill="none" stroke="#000000" d="M248.726-300.219H254.18"/>
<use data-text="2" xlink:href="#font_2_5" transform="matrix(10.909428,0,0,-10.909644,243.27555,55.88806)"/>
<use data-text=")" xlink:href="#font_2_2" transform="matrix(10.909428,0,0,-10.909644,250.5412,55.88806)"/>
<use data-text="Q" xlink:href="#font_1_1" transform="matrix(10.909428,0,0,-10.909644,257.83998,55.88806)"/>
<use data-text="(" xlink:href="#font_2_1" transform="matrix(10.909428,0,0,-10.909644,266.32524,55.88806)"/>
<use data-text="(" xlink:href="#font_2_1" transform="matrix(10.909428,0,0,-10.909644,270.55809,55.88806)"/>
<use data-text="1" xlink:href="#font_2_4" transform="matrix(10.909428,0,0,-10.909644,274.79096,55.88806)"/>
<use data-text="&#x2212;" xlink:href="#font_4_1" transform="matrix(10.909428,0,0,-10.909644,282.68873,55.88806)"/>
<use data-text="i" xlink:href="#font_5_5" transform="matrix(10.909428,0,0,-10.909644,293.59806,55.88806)"/>
<use data-text=")" xlink:href="#font_2_2" transform="matrix(10.909428,0,0,-10.909644,297.35719,55.88806)"/>
<use data-text="4" xlink:href="#font_3_1" transform="matrix(5.97778,0,0,-5.9778988,304.6294,50.81778)"/>
<use data-text="&#x221a;" xlink:href="#font_4_4" transform="matrix(10.909428,0,0,-10.909644,302.22233,46.86261)"/>
<path transform="matrix(1.00003,0,0,-1.00005,62.58011,-253.58942)" stroke-width=".4364" stroke-linecap="butt" stroke-miterlimit="10" stroke-linejoin="miter" fill="none" stroke="#000000" d="M248.726-300.219H254.18"/>
<use data-text="2" xlink:href="#font_2_5" transform="matrix(10.909428,0,0,-10.909644,311.3136,55.88806)"/>
<use data-text=")" xlink:href="#font_2_2" transform="matrix(10.909428,0,0,-10.909644,318.57926,55.88806)"/>
<use data-text="Q" xlink:href="#font_1_1" transform="matrix(10.909428,0,0,-10.909644,69.5533,101.24834)"/>
<use data-text="(" xlink:href="#font_2_1" transform="matrix(10.909428,0,0,-10.909644,78.03856,101.24834)"/>
<use data-text="&#x221a;" xlink:href="#font_4_4" transform="matrix(10.909428,0,0,-10.909644,82.280689,92.222888)"/>
<path transform="matrix(1.00003,0,0,-1.00005,-125.70656,-208.22914)" stroke-width=".4364" stroke-linecap="butt" stroke-miterlimit="10" stroke-linejoin="miter" fill="none" stroke="#000000" d="M217.072-300.219H222.527"/>
<use data-text="2" xlink:href="#font_2_5" transform="matrix(10.909428,0,0,-10.909644,91.37196,101.24834)"/>
<use data-text=")" xlink:href="#font_2_2" transform="matrix(10.909428,0,0,-10.909644,98.63765,101.24834)"/>
<use data-text="Q" xlink:href="#font_1_1" transform="matrix(10.909428,0,0,-10.909644,143.89453,100.390308)"/>
<use data-text="(" xlink:href="#font_2_1" transform="matrix(10.909428,0,0,-10.909644,152.37979,100.390308)"/>
<use data-text="i" xlink:href="#font_5_5" transform="matrix(10.909428,0,0,-10.909644,156.62192,100.390308)"/>
<use data-text=")" xlink:href="#font_2_2" transform="matrix(10.909428,0,0,-10.909644,160.38004,100.390308)"/>
<use data-text="Q" xlink:href="#font_1_1" transform="matrix(10.909428,0,0,-10.909644,203.75034,101.24834)"/>
<use data-text="(" xlink:href="#font_2_1" transform="matrix(10.909428,0,0,-10.909644,212.2356,101.24834)"/>
<use data-text="&#x221a;" xlink:href="#font_4_4" transform="matrix(10.909428,0,0,-10.909644,216.47772,92.222888)"/>
<path transform="matrix(1.00003,0,0,-1.00005,8.490482,-208.22914)" stroke-width=".4364" stroke-linecap="butt" stroke-miterlimit="10" stroke-linejoin="miter" fill="none" stroke="#000000" d="M217.072-300.219H222.527"/>
<use data-text="2" xlink:href="#font_2_5" transform="matrix(10.909428,0,0,-10.909644,225.569,101.24834)"/>
<use data-text="i" xlink:href="#font_5_5" transform="matrix(10.909428,0,0,-10.909644,232.84223,101.24834)"/>
<use data-text=")" xlink:href="#font_2_2" transform="matrix(10.909428,0,0,-10.909644,236.60033,101.24834)"/>
<use data-text="Q" xlink:href="#font_1_1" transform="matrix(10.909428,0,0,-10.909644,150.01673,145.87157)"/>
<use data-text="(" xlink:href="#font_6_85" transform="matrix(10.909428,0,0,-10.909644,283.3637,145.75057)"/>
<use data-text="a" xlink:href="#font_6_28" transform="matrix(10.909428,0,0,-10.909644,287.60749,145.75057)"/>
<use data-text=")" xlink:href="#font_6_86" transform="matrix(10.909428,0,0,-10.909644,293.0622,145.75057)"/>
<path transform="matrix(1.00003,0,0,-1.00005,154.25885,324.4615)" stroke-width=".3985" stroke-linecap="butt" stroke-miterlimit="10" stroke-linejoin="miter" fill="none" stroke="#000000" d="M-15.94048 309.5319-136.07234 280.11497"/>
<path transform="matrix(1.00003,0,0,-1.00005,154.25885,324.4615)" stroke-width=".3985" stroke-linecap="butt" stroke-miterlimit="10" stroke-linejoin="miter" fill="none" stroke="#000000" d="M-7.97023 309.5319-68.03616 280.11497"/>
<path transform="matrix(1.00003,0,0,-1.00005,154.25885,324.4615)" stroke-width=".3985" stroke-linecap="butt" stroke-miterlimit="10" stroke-linejoin="miter" fill="none" stroke="#000000" d="M0 309.5319V280.11497"/>
<path transform="matrix(1.00003,0,0,-1.00005,154.25885,324.4615)" stroke-width=".3985" stroke-linecap="butt" stroke-miterlimit="10" stroke-linejoin="miter" fill="none" stroke="#000000" d="M7.97023 309.5319 68.03616 280.11497"/>
<path transform="matrix(1.00003,0,0,-1.00005,154.25885,324.4615)" stroke-width=".3985" stroke-linecap="butt" stroke-miterlimit="10" stroke-linejoin="miter" fill="none" stroke="#000000" d="M15.94048 309.5319 136.07234 280.11497"/>
<path transform="matrix(1.00003,0,0,-1.00005,154.25885,324.4615)" stroke-width=".3985" stroke-linecap="butt" stroke-miterlimit="10" stroke-linejoin="miter" fill="none" stroke="#000000" d="M-136.07234 264.17448-76.00641 234.75749"/>
<path transform="matrix(1.00003,0,0,-1.00005,154.25885,324.4615)" stroke-width=".3985" stroke-linecap="butt" stroke-miterlimit="10" stroke-linejoin="miter" fill="none" stroke="#000000" d="M-68.03616 264.17448V234.75749"/>
<path transform="matrix(1.00003,0,0,-1.00005,154.25885,324.4615)" stroke-width=".3985" stroke-linecap="butt" stroke-miterlimit="10" stroke-linejoin="miter" fill="none" stroke="#000000" d="M-7.97023 264.17448-60.06592 234.75749"/>
<path transform="matrix(1.00003,0,0,-1.00005,154.25885,324.4615)" stroke-width=".3985" stroke-linecap="butt" stroke-miterlimit="10" stroke-linejoin="miter" fill="none" stroke="#000000" d="M0 264.17448V234.75749"/>
<path transform="matrix(1.00003,0,0,-1.00005,154.25885,324.4615)" stroke-width=".3985" stroke-linecap="butt" stroke-miterlimit="10" stroke-linejoin="miter" fill="none" stroke="#000000" d="M7.97023 264.17448 60.06592 234.75749"/>
<path transform="matrix(1.00003,0,0,-1.00005,154.25885,324.4615)" stroke-width=".3985" stroke-linecap="butt" stroke-miterlimit="10" stroke-linejoin="miter" fill="none" stroke="#000000" d="M68.03616 264.17448V234.75749"/>
<path transform="matrix(1.00003,0,0,-1.00005,154.25885,324.4615)" stroke-width=".3985" stroke-linecap="butt" stroke-miterlimit="10" stroke-linejoin="miter" fill="none" stroke="#000000" d="M144.04259 264.17448 76.00641 234.75749"/>
<path transform="matrix(1.00003,0,0,-1.00005,154.25885,324.4615)" stroke-width=".3985" stroke-linecap="butt" stroke-miterlimit="10" stroke-linejoin="miter" fill="none" stroke="#000000" d="M-68.03616 218.817-7.97023 189.40006"/>
<path transform="matrix(1.00003,0,0,-1.00005,154.25885,324.4615)" stroke-width=".3985" stroke-linecap="butt" stroke-miterlimit="10" stroke-linejoin="miter" fill="none" stroke="#000000" d="M0 218.817V189.40006"/>
<path transform="matrix(1.00003,0,0,-1.00005,154.25885,324.4615)" stroke-width=".3985" stroke-linecap="butt" stroke-miterlimit="10" stroke-linejoin="miter" fill="none" stroke="#000000" d="M68.03616 218.817 7.97023 189.40006"/>
<use data-text="D" xlink:href="#font_5_4" transform="matrix(10.909428,0,0,-10.909644,147.37665,191.29184)"/>
<use data-text="4" xlink:href="#font_7_3" transform="matrix(7.9703395,0,0,-7.970498,156.40892,192.92789)"/>
<use data-text="{" xlink:href="#font_4_2" transform="matrix(10.909428,0,0,-10.909644,51.88878,236.92612)"/>
<use data-text="i" xlink:href="#font_2_7" transform="matrix(10.909428,0,0,-10.909644,57.34294,236.92612)"/>
<use data-text="d" xlink:href="#font_2_6" transform="matrix(10.909428,0,0,-10.909644,60.364854,236.92612)"/>
<use data-text="," xlink:href="#font_5_3" transform="matrix(10.909428,0,0,-10.909644,66.43422,236.92612)"/>
<use data-text="&#x03c3;" xlink:href="#font_5_1" transform="matrix(10.909428,0,0,-10.909644,71.267108,236.92612)"/>
<use data-text="2" xlink:href="#font_7_1" transform="matrix(7.9703395,0,0,-7.970498,77.90857,232.96689)"/>
<use data-text="," xlink:href="#font_5_3" transform="matrix(10.909428,0,0,-10.909644,82.6407,236.92612)"/>
<use data-text="&#x03c4;" xlink:href="#font_5_2" transform="matrix(10.909428,0,0,-10.909644,87.47357,236.92612)"/>
<use data-text="," xlink:href="#font_5_3" transform="matrix(10.909428,0,0,-10.909644,92.87373,236.92612)"/>
<use data-text="&#x03c3;" xlink:href="#font_5_1" transform="matrix(10.909428,0,0,-10.909644,97.70662,236.92612)"/>
<use data-text="2" xlink:href="#font_7_1" transform="matrix(7.9703395,0,0,-7.970498,104.36136,232.96689)"/>
<use data-text="&#x03c4;" xlink:href="#font_5_2" transform="matrix(10.909428,0,0,-10.909644,109.09349,236.92612)"/>
<use data-text="}" xlink:href="#font_4_3" transform="matrix(10.909428,0,0,-10.909644,115.09767,236.92612)"/>
<use data-text="{" xlink:href="#font_4_2" transform="matrix(10.909428,0,0,-10.909644,122.617908,236.92612)"/>
<use data-text="i" xlink:href="#font_2_7" transform="matrix(10.909428,0,0,-10.909644,128.07207,236.92612)"/>
<use data-text="d" xlink:href="#font_2_6" transform="matrix(10.909428,0,0,-10.909644,131.09398,236.92612)"/>
<use data-text="," xlink:href="#font_5_3" transform="matrix(10.909428,0,0,-10.909644,137.16335,236.92612)"/>
<use data-text="&#x03c3;" xlink:href="#font_5_1" transform="matrix(10.909428,0,0,-10.909644,141.99623,236.92612)"/>
<use data-text="," xlink:href="#font_5_3" transform="matrix(10.909428,0,0,-10.909644,148.02913,236.92612)"/>
<use data-text="&#x03c3;" xlink:href="#font_5_1" transform="matrix(10.909428,0,0,-10.909644,152.8511,236.92612)"/>
<use data-text="2" xlink:href="#font_7_1" transform="matrix(7.9703395,0,0,-7.970498,159.50502,232.96689)"/>
<use data-text="," xlink:href="#font_5_3" transform="matrix(10.909428,0,0,-10.909644,164.23715,236.92612)"/>
<use data-text="&#x03c3;" xlink:href="#font_5_1" transform="matrix(10.909428,0,0,-10.909644,169.07004,236.92612)"/>
<use data-text="3" xlink:href="#font_7_2" transform="matrix(7.9703395,0,0,-7.970498,175.7115,232.96689)"/>
<use data-text="}" xlink:href="#font_4_3" transform="matrix(10.909428,0,0,-10.909644,180.44364,236.92612)"/>
<use data-text="{" xlink:href="#font_4_2" transform="matrix(10.909428,0,0,-10.909644,184.65177,236.92612)"/>
<use data-text="i" xlink:href="#font_2_7" transform="matrix(10.909428,0,0,-10.909644,190.10593,236.92612)"/>
<use data-text="d" xlink:href="#font_2_6" transform="matrix(10.909428,0,0,-10.909644,193.12784,236.92612)"/>
<use data-text="," xlink:href="#font_5_3" transform="matrix(10.909428,0,0,-10.909644,199.1972,236.92612)"/>
<use data-text="&#x03c3;" xlink:href="#font_5_1" transform="matrix(10.909428,0,0,-10.909644,204.03009,236.92612)"/>
<use data-text="2" xlink:href="#font_7_1" transform="matrix(7.9703395,0,0,-7.970498,210.67156,232.96689)"/>
<use data-text="," xlink:href="#font_5_3" transform="matrix(10.909428,0,0,-10.909644,215.40369,236.92612)"/>
<use data-text="&#x03c3;" xlink:href="#font_5_1" transform="matrix(10.909428,0,0,-10.909644,220.23656,236.92612)"/>
<use data-text="&#x03c4;" xlink:href="#font_5_2" transform="matrix(10.909428,0,0,-10.909644,226.85858,236.92612)"/>
<use data-text="," xlink:href="#font_5_3" transform="matrix(10.909428,0,0,-10.909644,232.25875,236.92612)"/>
<use data-text="&#x03c3;" xlink:href="#font_5_1" transform="matrix(10.909428,0,0,-10.909644,237.09163,236.92612)"/>
<use data-text="3" xlink:href="#font_7_2" transform="matrix(7.9703395,0,0,-7.970498,243.74954,232.96689)"/>
<use data-text="&#x03c4;" xlink:href="#font_5_2" transform="matrix(10.909428,0,0,-10.909644,248.48169,236.92612)"/>
<use data-text="}" xlink:href="#font_4_3" transform="matrix(10.909428,0,0,-10.909644,254.48587,236.92612)"/>
<use data-text="{" xlink:href="#font_4_2" transform="matrix(10.909428,0,0,-10.909644,2.75531,281.82936)"/>
<use data-text="i" xlink:href="#font_2_7" transform="matrix(10.909428,0,0,-10.909644,8.209473,281.82936)"/>
<use data-text="d" xlink:href="#font_2_6" transform="matrix(10.909428,0,0,-10.909644,11.231384,281.82936)"/>
<use data-text="," xlink:href="#font_5_3" transform="matrix(10.909428,0,0,-10.909644,17.30075,281.82936)"/>
<use data-text="&#x03c4;" xlink:href="#font_5_2" transform="matrix(10.909428,0,0,-10.909644,22.133637,281.82936)"/>
<use data-text="}" xlink:href="#font_4_3" transform="matrix(10.909428,0,0,-10.909644,28.154068,281.82936)"/>
<use data-text="{" xlink:href="#font_4_2" transform="matrix(10.909428,0,0,-10.909644,65.11517,282.28639)"/>
<use data-text="i" xlink:href="#font_2_7" transform="matrix(10.909428,0,0,-10.909644,70.569339,282.28639)"/>
<use data-text="d" xlink:href="#font_2_6" transform="matrix(10.909428,0,0,-10.909644,73.59125,282.28639)"/>
<use data-text="," xlink:href="#font_5_3" transform="matrix(10.909428,0,0,-10.909644,79.660617,282.28639)"/>
<use data-text="&#x03c3;" xlink:href="#font_5_1" transform="matrix(10.909428,0,0,-10.909644,84.4935,282.28639)"/>
<use data-text="2" xlink:href="#font_7_1" transform="matrix(7.9703395,0,0,-7.970498,91.134967,278.32716)"/>
<use data-text="&#x03c4;" xlink:href="#font_5_2" transform="matrix(10.909428,0,0,-10.909644,95.867099,282.28639)"/>
<use data-text="}" xlink:href="#font_4_3" transform="matrix(10.909428,0,0,-10.909644,101.87128,282.28639)"/>
<use data-text="{" xlink:href="#font_4_2" transform="matrix(10.909428,0,0,-10.909644,136.1553,282.28639)"/>
<use data-text="i" xlink:href="#font_2_7" transform="matrix(10.909428,0,0,-10.909644,141.60947,282.28639)"/>
<use data-text="d" xlink:href="#font_2_6" transform="matrix(10.909428,0,0,-10.909644,144.63138,282.28639)"/>
<use data-text="," xlink:href="#font_5_3" transform="matrix(10.909428,0,0,-10.909644,150.70075,282.28639)"/>
<use data-text="&#x03c3;" xlink:href="#font_5_1" transform="matrix(10.909428,0,0,-10.909644,155.53363,282.28639)"/>
<use data-text="2" xlink:href="#font_7_1" transform="matrix(7.9703395,0,0,-7.970498,162.1751,278.32716)"/>
<use data-text="}" xlink:href="#font_4_3" transform="matrix(10.909428,0,0,-10.909644,166.90723,282.28639)"/>
<use data-text="{" xlink:href="#font_4_2" transform="matrix(10.909428,0,0,-10.909644,203.55733,281.82936)"/>
<use data-text="i" xlink:href="#font_2_7" transform="matrix(10.909428,0,0,-10.909644,209.01149,281.82936)"/>
<use data-text="d" xlink:href="#font_2_6" transform="matrix(10.909428,0,0,-10.909644,212.0334,281.82936)"/>
<use data-text="," xlink:href="#font_5_3" transform="matrix(10.909428,0,0,-10.909644,218.10277,281.82936)"/>
<use data-text="&#x03c3;" xlink:href="#font_5_1" transform="matrix(10.909428,0,0,-10.909644,222.93566,281.82936)"/>
<use data-text="&#x03c4;" xlink:href="#font_5_2" transform="matrix(10.909428,0,0,-10.909644,229.55768,281.82936)"/>
<use data-text="}" xlink:href="#font_4_3" transform="matrix(10.909428,0,0,-10.909644,235.58129,281.82936)"/>
<use data-text="{" xlink:href="#font_4_2" transform="matrix(10.909428,0,0,-10.909644,269.2293,282.28639)"/>
<use data-text="i" xlink:href="#font_2_7" transform="matrix(10.909428,0,0,-10.909644,274.68348,282.28639)"/>
<use data-text="d" xlink:href="#font_2_6" transform="matrix(10.909428,0,0,-10.909644,277.70539,282.28639)"/>
<use data-text="," xlink:href="#font_5_3" transform="matrix(10.909428,0,0,-10.909644,283.77476,282.28639)"/>
<use data-text="&#x03c3;" xlink:href="#font_5_1" transform="matrix(10.909428,0,0,-10.909644,288.60765,282.28639)"/>
<use data-text="3" xlink:href="#font_7_2" transform="matrix(7.9703395,0,0,-7.970498,295.24909,278.32716)"/>
<use data-text="&#x03c4;" xlink:href="#font_5_2" transform="matrix(10.909428,0,0,-10.909644,299.98124,282.28639)"/>
<use data-text="}" xlink:href="#font_4_3" transform="matrix(10.909428,0,0,-10.909644,305.9854,282.28639)"/>
<use data-text="{" xlink:href="#font_4_2" transform="matrix(10.909428,0,0,-10.909644,144.25855,327.18864)"/>
<use data-text="i" xlink:href="#font_2_7" transform="matrix(10.909428,0,0,-10.909644,149.7127,327.18864)"/>
<use data-text="d" xlink:href="#font_2_6" transform="matrix(10.909428,0,0,-10.909644,152.73462,327.18864)"/>
<use data-text="}" xlink:href="#font_4_3" transform="matrix(10.909428,0,0,-10.909644,158.80399,327.18864)"/>
<use data-text="(" xlink:href="#font_6_85" transform="matrix(10.909428,0,0,-10.909644,283.05873,327.18864)"/>
<use data-text="b" xlink:href="#font_6_35" transform="matrix(10.909428,0,0,-10.909644,287.3025,327.18864)"/>
<use data-text=")" xlink:href="#font_6_86" transform="matrix(10.909428,0,0,-10.909644,293.36817,327.18864)"/>
<path transform="matrix(1.00003,0,0,-1.00005,154.25885,324.4615)" stroke-width=".3985" stroke-linecap="butt" stroke-miterlimit="10" stroke-linejoin="miter" fill="none" stroke="#000000" d="M-7.97023 128.1021-68.03616 98.68512"/>
<path transform="matrix(1.00003,0,0,-1.00005,154.25885,324.4615)" stroke-width=".3985" stroke-linecap="butt" stroke-miterlimit="10" stroke-linejoin="miter" fill="none" stroke="#000000" d="M0 128.1021V98.68512"/>
<path transform="matrix(1.00003,0,0,-1.00005,154.25885,324.4615)" stroke-width=".3985" stroke-linecap="butt" stroke-miterlimit="10" stroke-linejoin="miter" fill="none" stroke="#000000" d="M7.97023 128.1021 68.03616 98.68512"/>
<path transform="matrix(1.00003,0,0,-1.00005,154.25885,324.4615)" stroke-width=".3985" stroke-linecap="butt" stroke-miterlimit="10" stroke-linejoin="miter" fill="none" stroke="#000000" d="M-76.00641 82.74463-136.07234 53.32767"/>
<path transform="matrix(1.00003,0,0,-1.00005,154.25885,324.4615)" stroke-width=".3985" stroke-linecap="butt" stroke-miterlimit="10" stroke-linejoin="miter" fill="none" stroke="#000000" d="M-68.03616 82.74463V53.32767"/>
<path transform="matrix(1.00003,0,0,-1.00005,154.25885,324.4615)" stroke-width=".3985" stroke-linecap="butt" stroke-miterlimit="10" stroke-linejoin="miter" fill="none" stroke="#000000" d="M-60.06592 82.74463-7.97023 53.32767"/>
<path transform="matrix(1.00003,0,0,-1.00005,154.25885,324.4615)" stroke-width=".3985" stroke-linecap="butt" stroke-miterlimit="10" stroke-linejoin="miter" fill="none" stroke="#000000" d="M0 82.74463V53.32767"/>
<path transform="matrix(1.00003,0,0,-1.00005,154.25885,324.4615)" stroke-width=".3985" stroke-linecap="butt" stroke-miterlimit="10" stroke-linejoin="miter" fill="none" stroke="#000000" d="M60.06592 82.74463 7.97023 53.32767"/>
<path transform="matrix(1.00003,0,0,-1.00005,154.25885,324.4615)" stroke-width=".3985" stroke-linecap="butt" stroke-miterlimit="10" stroke-linejoin="miter" fill="none" stroke="#000000" d="M68.03616 82.74463V53.32767"/>
<path transform="matrix(1.00003,0,0,-1.00005,154.25885,324.4615)" stroke-width=".3985" stroke-linecap="butt" stroke-miterlimit="10" stroke-linejoin="miter" fill="none" stroke="#000000" d="M76.00641 82.74463 136.07234 53.32767"/>
<path transform="matrix(1.00003,0,0,-1.00005,154.25885,324.4615)" stroke-width=".3985" stroke-linecap="butt" stroke-miterlimit="10" stroke-linejoin="miter" fill="none" stroke="#000000" d="M-136.07234 37.38718-15.94048 7.97023"/>
<path transform="matrix(1.00003,0,0,-1.00005,154.25885,324.4615)" stroke-width=".3985" stroke-linecap="butt" stroke-miterlimit="10" stroke-linejoin="miter" fill="none" stroke="#000000" d="M-68.03616 37.38718-7.97023 7.97023"/>
<path transform="matrix(1.00003,0,0,-1.00005,154.25885,324.4615)" stroke-width=".3985" stroke-linecap="butt" stroke-miterlimit="10" stroke-linejoin="miter" fill="none" stroke="#000000" d="M0 37.38718V7.97023"/>
<path transform="matrix(1.00003,0,0,-1.00005,154.25885,324.4615)" stroke-width=".3985" stroke-linecap="butt" stroke-miterlimit="10" stroke-linejoin="miter" fill="none" stroke="#000000" d="M68.03616 37.38718 7.97023 7.97023"/>
<path transform="matrix(1.00003,0,0,-1.00005,154.25885,324.4615)" stroke-width=".3985" stroke-linecap="butt" stroke-miterlimit="10" stroke-linejoin="miter" fill="none" stroke="#000000" d="M136.07234 37.38718 15.94048 7.97023"/>
</svg>
