<svg xmlns="http://www.w3.org/2000/svg" xmlns:xlink="http://www.w3.org/1999/xlink" xmlns:inkscape="http://www.inkscape.org/namespaces/inkscape" version="1.1" width="196" height="208" viewBox="0 0 196 208">
<defs>
<path id="font_1_66" d="M.34098817 .14329529C.34098817 .1552887 .32798768 .1552887 .32398988 .1552887 .30999757 .1552887 .30899049 .15229798 .30299378 .13128662 .29299928 .09527588 .2649994 .014251709 .21099854 .014251709 .20298767 .014251709 .18998719 .01524353 .18998719 .042251588 .18998719 .059265138 .19599915 .08227539 .20698548 .11328125 .22099304 .15029907 .22099304 .15229798 .23799134 .19430542L.27198792 .28833009C.2809906 .31134034 .2919922 .34135438 .2919922 .36036683 .2919922 .40937806 .2579956 .4423828 .21299744 .4423828 .117996219 .4423828 .08099365 .29733277 .08099365 .28833009 .08099365 .27633668 .09298706 .27633668 .09799194 .27633668 .11199951 .27633668 .11299133 .28134156 .116989139 .29333497 .12399292 .3193512 .15098572 .41737367 .20999146 .41737367 .21998596 .41737367 .23098755 .41537477 .23098755 .38937379 .23098755 .36535646 .22399903 .34535218 .20698548 .29833985L.17199707 .205307 .14698792 .1362915C.13899231 .11528015 .12998963 .091278079 .12998963 .0712738 .12998963 .01725769 .16799927-.0107421879 .20899964-.0107421879 .3039856-.0107421879 .34098817 .1362915 .34098817 .14329529M.3619995 .6102905C.3619995 .6382904 .33999635 .6542969 .31698609 .6542969 .28599549 .6542969 .2519989 .62628176 .2519989 .59028628 .2519989 .5622864 .27398683 .54629519 .29699708 .54629519 .32798768 .54629519 .3619995 .57429507 .3619995 .6102905Z"/>
<path id="font_1_47" d="M.5509949 .14329529C.5509949 .1552887 .5379944 .1552887 .5339966 .1552887 .5189972 .1552887 .5179901 .1512909 .5139923 .1322937 .49699403 .06626892 .47898866 .014251709 .44599916 .014251709 .4269867 .014251709 .41999818 .030258179 .41999818 .055267335 .41999818 .06427002 .4229889 .08627319 .42799378 .106277469L.5669861 .66230776C.56999209 .6753082 .57099917 .6773071 .57099917 .68029788 .57099917 .69329836 .56199648 .6953125 .54499819 .69329836L.44099427 .6843109C.42599488 .68330386 .41600038 .682312 .41600038 .66529849 .41600038 .652298 .42599488 .652298 .44299317 .652298 .48999024 .652298 .48999024 .64430239 .48999024 .63531497 .48999024 .62931826 .48999024 .62731936 .48599244 .61331179L.42900086 .3863678C.4189911 .40637208 .3929901 .4423828 .34298707 .4423828 .23098755 .4423828 .10998535 .29733277 .10998535 .14628601 .10998535 .044265748 .16899109-.0107421879 .23498535-.0107421879 .29499818-.0107421879 .33898927 .037261964 .35798646 .058258058 .36898805 .014251709 .4039917-.0107421879 .44499208-.0107421879 .4909973-.0107421879 .5119934 .029251099 .519989 .04626465 .5379944 .08326721 .5509949 .1402893 .5509949 .14329529M.3639984 .12528992C.35499574 .091278079 .2919922 .014251709 .23799134 .014251709 .18299866 .014251709 .17999268 .088272098 .17999268 .103271488 .17999268 .15429688 .20999146 .264328 .22499085 .30233766 .25099183 .36535646 .29899598 .41737367 .34298707 .41737367 .4039917 .41737367 .41299439 .3333435 .41299439 .32635499 .41299439 .3213501 .41299439 .32034303 .4099884 .3103485L.3639984 .12528992Z"/>
<path id="font_1_50" d="M.48199464 .10134888C.47799684 .114364627 .46899415 .12036133 .46299745 .12036133 .45799256 .12036133 .45599366 .11836243 .44898988 .10935974 .3919983 .03627014 .31098939 .014251709 .2649994 .014251709 .19699097 .014251709 .18699646 .09033203 .18699646 .12536621 .18699646 .13337708 .18699646 .16542053 .20298767 .22949219H.23199463C.30699159 .22949219 .35899354 .2374878 .394989 .2514801 .46499635 .27946473 .47399903 .33543397 .47399903 .3564148 .47399903 .40138246 .43598939 .4423828 .36799623 .4423828 .2659912 .4423828 .115997318 .3484192 .115997318 .16741944 .115997318 .05529785 .1789856-.0107421879 .2639923-.0107421879 .35598756-.0107421879 .44400025 .039276124 .48199464 .10134888M.43299867 .35742188C.43299867 .25448609 .27398683 .25448609 .20899964 .25448609 .25498963 .41438294 .35398866 .41737367 .36799623 .41737367 .4119873 .41737367 .43299867 .38739015 .43299867 .35742188Z"/>
<path id="font_1_77" d="M.6029968 .14329529C.6029968 .1552887 .58999636 .1552887 .58599856 .1552887 .57199099 .1552887 .57099917 .15229798 .5649872 .13128662 .5549927 .09527588 .5269928 .014251709 .47299195 .014251709 .46499635 .014251709 .45199586 .01524353 .45199586 .042251588 .45199586 .06626892 .46398927 .09828186 .47200013 .120285037 .48999024 .16830445 .5309906 .2793274 .5309906 .3363495 .5309906 .4033661 .4909973 .4423828 .42099 .4423828 .34899903 .4423828 .30099488 .39837647 .2749939 .36636354 .2659912 .41638185 .22898865 .4423828 .18699646 .4423828 .1539917 .4423828 .1289978 .42237855 .11099243 .3843689 .09498596 .34934999 .08099365 .29333497 .08099365 .28933717 .08099365 .27633668 .09199524 .27633668 .09799194 .27633668 .11299133 .27633668 .11299133 .28033448 .117996219 .30033876 .13798523 .3803711 .15699768 .41737367 .18499756 .41737367 .20098877 .41737367 .21099854 .40837098 .21099854 .3773651 .21099854 .35635377 .20498657 .33035279 .20399475 .32635499L.13198853 .038253786C.12799073 .024246216 .12799073 .022247315 .12799073 .01725769 .12799073-.00074768069 .14199829-.0107421879 .15699768-.0107421879 .18899536-.0107421879 .19400025 .009246826 .20698548 .06427002L.22898865 .15029907 .26098634 .28033448C.2649994 .29333497 .29299928 .34535218 .31698609 .3693695 .33198548 .3843689 .36499024 .41737367 .4189911 .41737367 .45700074 .41737367 .46598817 .3843689 .46598817 .35235597 .46598817 .29434205 .4229889 .17630005 .4059906 .13128662 .3939972 .09828186 .3919983 .0922699 .3919983 .0712738 .3919983 .01725769 .42999269-.0107421879 .47099305-.0107421879 .56599429-.0107421879 .6029968 .1362915 .6029968 .14329529Z"/>
<path id="font_1_105" d="M.3659973 .14405823C.3659973 .1550293 .35299684 .1550293 .34999085 .1550293 .33699037 .1550293 .33599855 .15203858 .32998658 .13806153 .3019867 .06816101 .2599945 .014251709 .21199036 .014251709 .20098877 .014251709 .18399048 .01625061 .18399048 .05519104 .18399048 .06417847 .18699646 .086135867 .19198609 .10610962L.2649994 .3996582H.35099793C.36799623 .3996582 .3789978 .3996582 .3789978 .41766358 .3789978 .43066407 .36898805 .43066407 .35299684 .43066407H.272995L.30999757 .5778961C.31399537 .59191897 .31399537 .59391787 .31399537 .59791567 .31399537 .61494448 .30099488 .62597659 .2849884 .62597659 .2579956 .62597659 .24699402 .6039276 .24299622 .5868988L.20399475 .43066407H.11898804C.101989749 .43066407 .09098816 .43066407 .09098816 .4126587 .09098816 .3996582 .100997928 .3996582 .116989139 .3996582H.19599915L.125 .114089969C.125 .114089969 .11999512 .09512329 .11999512 .08015442 .11999512 .035217287 .15098572-.0107421879 .20999146-.0107421879 .31098939-.0107421879 .3659973 .13406372 .3659973 .14405823Z"/>
<path id="font_1_118" d="M.42599488-.003753662 .5219879 .38237C.526001 .39736939 .526001 .3993683 .526001 .4033661 .526001 .42137147 .5119934 .43138124 .49699403 .43138124 .47999574 .43138124 .46299745 .42237855 .45599366 .3943634L.3829956 .104278568C.37298585 .06326294 .32798768 .014251709 .2769928 .014251709 .22698975 .014251709 .22200012 .06427002 .22200012 .091278079 .22200012 .14428711 .24499512 .21331787 .2789917 .30633546 .28799439 .3293457 .2919922 .3403473 .2919922 .36036683 .2919922 .40937806 .2579956 .4423828 .21299744 .4423828 .117996219 .4423828 .08099365 .29733277 .08099365 .28833009 .08099365 .27633668 .09298706 .27633668 .09799194 .27633668 .11199951 .27633668 .11299133 .28134156 .116989139 .29333497 .12399292 .3193512 .15098572 .41737367 .20999146 .41737367 .21998596 .41737367 .23098755 .41537477 .23098755 .38937379 .23098755 .36436463 .21998596 .3343506 .21299744 .31533814 .16699219 .19230652 .15699768 .1512909 .15699768 .107284549 .15699768 .0012512207 .23999024-.0107421879 .272995-.0107421879 .2919922-.0107421879 .32699586-.007751465 .36299134 .024246216 .32998658-.12471008 .25698854-.1796875 .20098877-.1796875 .17399597-.1796875 .14698792-.16569519 .13899231-.13670349 .18598938-.13171387 .18699646-.09172058 .18699646-.08872986 .18699646-.068725589 .17098999-.056732179 .15299988-.056732179 .13598633-.056732179 .102996829-.067733768 .102996829-.11772156 .102996829-.17070008 .14498902-.20469666 .20098877-.20469666 .31098939-.20469666 .40299989-.096725467 .42599488-.003753662Z"/>
<path id="font_2_2" d="M.16299439 .07595825C.1539917 .039993287 .1519928 .0309906 .07699585 .0309906 .057998659 .0309906 .04699707 .0309906 .04699707 .0129852299 .04699707 0 .056991579 0 .07499695 0H.43899537C.6009979 0 .7200012 .11793518 .7200012 .21485901 .7200012 .28581239 .6609955 .34576417 .56199648 .35676576 .6759949 .37875367 .772995 .4547119 .772995 .54367068 .772995 .6216278 .70098879 .6826172 .58200076 .6826172H.23999024C.22200012 .6826172 .20999146 .6826172 .20999146 .6646118 .20999146 .6516113 .21899414 .6516113 .23999024 .6516113 .24398804 .6516113 .2619934 .6516113 .27799989 .6496124 .29499818 .6476135 .3019867 .6456146 .3019867 .63461306 .3019867 .6296234 .30099488 .6256256 .2979889 .614624L.16299439 .07595825M.31900025 .36776734 .37998963 .6126251C.3889923 .64860537 .3909912 .6516113 .43299867 .6516113H.56799319C.6719971 .6516113 .68099978 .5726471 .68099978 .54766848 .68099978 .45870973 .58799746 .36776734 .47499085 .36776734H.31900025M.2709961 .0309906C.25698854 .0309906 .25498963 .0309906 .25099183 .03199768 .24099732 .032989503 .23799134 .033996583 .23799134 .040985109 .23799134 .04397583 .23799134 .04597473 .24299622 .063964847L.31199647 .34277345H.5C.56199648 .34277345 .625 .31578065 .625 .22485352 .625 .12593079 .5339966 .0309906 .4139862 .0309906H.2709961Z"/>
<path id="font_2_3" d="M.7739868 .67807009C.7769928 .6900635 .7769928 .69207766 .7769928 .69407656 .7769928 .69506838 .776001 .7050781 .7649994 .7050781 .7589874 .7050781 .7559967 .70207217 .7489929 .69407656L.6879883 .6270294C.6839905 .62202456 .6799927 .61802676 .67900088 .61802676 .6779938 .61802676 .6769867 .61901858 .67099 .62602236 .6559906 .64604189 .61099246 .7050781 .5069885 .7050781 .27799989 .7050781 .050994874 .48291017 .050994874 .25473023 .050994874 .09159851 .16999817-.022460938 .33099366-.022460938 .43499757-.022460938 .5169983 .031555177 .55599978 .0665741 .6469879 .14764405 .6639862 .23571778 .6639862 .23971558 .6639862 .24372864 .6619873 .25073243 .6499939 .25073243 .6389923 .25073243 .6369934 .24472046 .6359863 .24072266 .58699038 .079589847 .44400025 .008529663 .34399415 .008529663 .24699402 .008529663 .14399719 .06758118 .14399719 .21870423 .14399719 .2637329 .15899658 .42185975 .2599945 .54496768 .31999208 .61701968 .41799928 .67407229 .5139923 .67407229 .625 .67407229 .6839905 .5890045 .6839905 .47891236 .6839905 .44488526 .68099978 .43788148 .68099978 .4298706 .68099978 .41886903 .69299319 .41886903 .69599917 .41886903 .70899966 .41886903 .70899966 .42086793 .71398928 .43988038L.7739868 .67807009Z"/>
<path id="font_2_1" d="M.18199158 .116867069C.1329956 .036987306 .08898926 .033981325 .04899597 .0309906 .041992189 .02999878 .036987306 .021987915 .036987306 .0129852299 .036987306 .0069885256 .040985109 0 .050994874 0 .069992069 0 .116989139 .0029907227 .13598633 .0029907227 .1579895 .0029907227 .21199036 0 .23399353 0 .23999024 0 .25299073 0 .25299073 .017990113 .25299073 .02999878 .24099732 .0309906 .23799134 .0309906 .22898865 .03199768 .19099427 .033981325 .19099427 .063949588 .19099427 .077926639 .20199585 .09689331 .20498657 .101882938L.28399659 .23068238H.54499819C.5479889 .2077179 .5509949 .17378235 .55400088 .14881897 .55799868 .10987854 .56399539 .06593323 .56399539 .062942508 .56399539 .047973634 .5499878 .0309906 .49198915 .0309906 .48199464 .0309906 .46899415 .0309906 .46899415 .0129852299 .46899415 .0019989014 .47698976 0 .48399354 0 .5029907 0 .5269928 .0019989014 .5469971 .0019989014 .5669861 .0019989014 .59098818 .0029907227 .6069946 .0029907227 .6399994 .0029907227 .6419983 .0029907227 .66600039 .0019989014 .6819916 .0009918213 .7049866 0 .72099307 0 .72698977 0 .73999026 0 .73999026 .017990113 .73999026 .0309906 .72898867 .0309906 .71699526 .0309906 .6569977 .0309906 .6559906 .037979127 .6529999 .06694031L.58299258 .68881228C.58099368 .7108154 .5799866 .7158203 .5629883 .7158203 .548996 .7158203 .54299929 .7088165 .5349884 .69581606L.18199158 .116867069M.30299378 .26168824 .5049896 .5917816 .5419922 .26168824H.30299378Z"/>
<path id="font_2_4" d="M.16099549 .07595825C.1519928 .039993287 .1499939 .0309906 .07499695 .0309906 .055999757 .0309906 .04499817 .0309906 .04499817 .0129852299 .04499817 0 .054992677 0 .07299805 0H.4099884C.6239929 0 .82299807 .21188355 .82299807 .42774964 .82299807 .56466677 .7369995 .6826172 .58099368 .6826172H.23799134C.21998596 .6826172 .20799256 .6826172 .20799256 .6646118 .20799256 .6516113 .21699524 .6516113 .23799134 .6516113 .24198914 .6516113 .2599945 .6516113 .27598573 .6496124 .29299928 .6476135 .2999878 .6456146 .2999878 .63461306 .2999878 .6296234 .29899598 .6256256 .29599 .614624L.16099549 .07595825M.3809967 .6126251C.3899994 .64860537 .3919983 .6516113 .43399049 .6516113H.5469971C.651001 .6516113 .73399356 .5936432 .73399356 .46472169 .73399356 .40675355 .70899966 .24685669 .6309967 .1479187 .58499148 .09095764 .5019989 .0309906 .3919983 .0309906H.27198792C.2579956 .0309906 .2559967 .0309906 .2519989 .03199768 .24198914 .032989503 .23899842 .033996583 .23899842 .040985109 .23899842 .04399109 .23899842 .04598999 .24398804 .063964847L.3809967 .6126251Z"/>
<path id="font_3_2" d="M.3039856 .6392822C.3039856 .6642761 .30299378 .666275 .27799989 .666275 .21598816 .60227969 .12399292 .60227969 .09298706 .60227969V.57128909C.11199951 .57128909 .17298889 .57128909 .22698975 .5972748V.08001709C.22698975 .042999269 .22399903 .0309906 .1309967 .0309906H.09899902V0C.1349945 .0029907227 .22399903 .0029907227 .2649994 .0029907227 .30599977 .0029907227 .3959961 .0029907227 .43199159 0V.0309906H.3999939C.30699159 .0309906 .3039856 .042999269 .3039856 .08001709V.6392822Z"/>
<path id="font_3_3" d="M.17199707 .45387269C.14199829 .47288514 .11898804 .4998932 .11898804 .53692629 .11898804 .6019745 .18899536 .64100649 .25498963 .64100649 .33198548 .64100649 .3939972 .58695986 .3939972 .51690676 .3939972 .44685365 .33399964 .40083314 .2939911 .37780763L.17199707 .45387269M.31900025 .36180116C.36898805 .38581849 .44198609 .43585206 .44198609 .51690676 .44198609 .6109772 .34799195 .6660156 .2579956 .6660156 .15299988 .6660156 .070999149 .5909729 .070999149 .49890138 .070999149 .46087647 .084991458 .42485047 .10899353 .39582826 .12599182 .3768158 .13198853 .37280274 .18998719 .3357849 .101989749 .29374696 .042999269 .23269654 .042999269 .15063477 .042999269 .044555665 .147995-.022460938 .2559967-.022460938 .37199403-.022460938 .46998597 .059570314 .46998597 .16764832 .46998597 .26472474 .3959961 .3127594 .37098695 .32876588 .3600006 .33677674 .33099366 .35479737 .31900025 .36180116M.21699524 .31877137 .34298707 .2407074C.3659973 .22569275 .41600038 .19366455 .41600038 .1326294 .41600038 .05357361 .33599855 .0055389406 .25698854 .0055389406 .16999817 .0055389406 .09700012 .06758118 .09700012 .15063477 .09700012 .22268677 .14698792 .28274537 .21699524 .31877137Z"/>
<path id="font_3_1" d="M.47299195 .31976319C.47299195 .38682557 .46998597 .47288514 .43499757 .5479431 .3909912 .64201357 .31498719 .6660156 .25698854 .6660156 .19699097 .6660156 .12098694 .64201357 .07699585 .5459442 .04499817 .47688294 .039993287 .39582826 .039993287 .31976319 .039993287 .25471498 .041992189 .15765381 .084991458 .07858276 .13198853-.0064697267 .20999146-.022460938 .2559967-.022460938 .32099916-.022460938 .394989 .0055389406 .43699647 .097595218 .46699525 .1646576 .47299195 .23971558 .47299195 .31976319M.25698854 .002532959C.22698975 .002532959 .15499878 .016540528 .13598633 .12962342 .12599182 .18867493 .12599182 .2747345 .12599182 .33177186 .12599182 .39982606 .12599182 .47888185 .13798523 .53393557 .1579895 .6230011 .22200012 .64100649 .2559967 .64100649 .2939911 .64100649 .35699464 .62098696 .37599183 .5279236 .3869934 .47288514 .3869934 .39482118 .3869934 .33177186 .3869934 .2697296 .3869934 .18566895 .3769989 .12661743 .35598756 .012542725 .28199769 .002532959 .25698854 .002532959Z"/>
<path id="font_4_1" d="M.54499819 .25C.54499819 .3768463 .44299317 .47679139 .31900025 .47679139 .19499207 .47679139 .09298706 .3758545 .09298706 .25 .09298706 .12313843 .19499207 .02319336 .31900025 .02319336 .44299317 .02319336 .54499819 .12413025 .54499819 .25M.31900025 .07519531C.22299195 .07519531 .14498902 .15209961 .14498902 .25 .14498902 .34788514 .22299195 .4248047 .31900025 .4248047 .4149933 .4248047 .49299623 .34788514 .49299623 .25 .49299623 .15209961 .4149933 .07519531 .31900025 .07519531Z"/>
<path id="font_1_96" d="M.49899293 .3773651C.49899293 .41937257 .45199586 .4423828 .397995 .4423828 .33799745 .4423828 .2979889 .40637208 .27398683 .37236024 .2630005 .41737367 .22799683 .4423828 .18699646 .4423828 .1539917 .4423828 .1289978 .42237855 .11099243 .3843689 .09498596 .34934999 .08099365 .29333497 .08099365 .28933717 .08099365 .27633668 .09199524 .27633668 .09799194 .27633668 .11299133 .27633668 .11299133 .28033448 .117996219 .30033876 .13798523 .38035584 .15699768 .41737367 .18499756 .41737367 .20098877 .41737367 .21099854 .40837098 .21099854 .3773651 .21099854 .35635377 .20498657 .33035279 .20399475 .32633973L.13198853 .038269044C.12799073 .024261475 .12799073 .022262574 .12799073 .01725769 .12799073-.00074768069 .14199829-.0107421879 .15699768-.0107421879 .17098999-.0107421879 .18998719-.0047454836 .19799805 .026260376L.2630005 .28733827C.2649994 .29434205 .30899049 .41737367 .3959961 .41737367 .4019928 .41737367 .42999269 .41737367 .45098878 .40237428 .42099 .3923645 .41600038 .36836244 .41600038 .35635377 .41600038 .3363495 .43099977 .32434083 .44999696 .32434083 .47599793 .32434083 .49899293 .34635926 .49899293 .3773651Z"/>
<path id="font_1_81" d="M.5209961 .2753296C.5209961 .37036134 .46099855 .4423828 .36898805 .4423828 .24198914 .4423828 .11099243 .30134584 .11099243 .1552887 .11099243 .06227112 .16899109-.0107421879 .2630005-.0107421879 .3929901-.0107421879 .5209961 .1342926 .5209961 .2753296M.44799806 .31333924C.44799806 .27833558 .42900086 .16429138 .38398744 .09527588 .35198976 .04626465 .30499269 .014251709 .2630005 .014251709 .22799683 .014251709 .18399048 .038253786 .18399048 .119277957 .18399048 .15829468 .20399475 .26333619 .24299622 .32835389 .27598573 .38536073 .32699586 .41737367 .36898805 .41737367 .41299439 .41737367 .44799806 .38136292 .44799806 .31333924Z"/>
<path id="font_1_28" d="M.54100039 .14329529C.54100039 .1552887 .5279999 .1552887 .5239868 .1552887 .5089874 .1552887 .5079956 .1512909 .5039978 .1322937 .4869995 .06626892 .46899415 .014251709 .43598939 .014251709 .4169922 .014251709 .4099884 .030258179 .4099884 .055267335 .4099884 .06427002 .41299439 .08627319 .41799928 .106277469L.4850006 .37435914C.4889984 .3883667 .4889984 .3903656 .4889984 .3943634 .4889984 .41137696 .47599793 .42237855 .45999146 .42237855 .44699098 .42237855 .4249878 .41438294 .4189911 .3863678 .40899659 .40637208 .3829956 .4423828 .33299256 .4423828 .22099304 .4423828 .099990848 .29733277 .099990848 .14628601 .099990848 .044265748 .15899658-.0107421879 .22499085-.0107421879 .2849884-.0107421879 .32899476 .037261964 .34799195 .058258058 .35899354 .014251709 .3939972-.0107421879 .43499757-.0107421879 .48098756-.0107421879 .5019989 .029251099 .5099945 .04626465 .5279999 .08326721 .54100039 .1402893 .54100039 .14329529M.35398866 .12528992C.34498597 .091278079 .28199769 .014251709 .22799683 .014251709 .17298889 .014251709 .16999817 .088272098 .16999817 .103271488 .16999817 .15429688 .19999695 .264328 .21499634 .30233766 .24099732 .36535646 .2889862 .41737367 .33299256 .41737367 .3939972 .41737367 .40299989 .3333435 .40299989 .32635499 .40299989 .3213501 .40299989 .32034303 .3999939 .3103485L.35398866 .12528992Z"/>
<path id="font_1_126" d="M.6289978 .14305115C.6289978 .1550293 .6159973 .1550293 .6119995 .1550293 .5970001 .1550293 .59599307 .15104676 .59199526 .13206482 .57499697 .06617737 .5569916 .014251709 .5239868 .014251709 .5049896 .014251709 .49798585 .030227662 .49798585 .05519104 .49798585 .06417847 .5009918 .086135867 .5059967 .10610962L.6469879 .6689911C.647995 .6720123 .6499939 .6820679 .6499939 .6820679 .6499939 .69407656 .6399994 .69407656 .6239929 .69407656H.6069946C.58499148 .69407656 .58399966 .69306948 .57899478 .6740265 .57199099 .6469574 .57598879 .6639557 .56999209 .6399536H.56900027C.56799319 .69407656 .5029907 .7050781 .44198609 .7050781 .33699037 .7050781 .2649994 .66496279 .23899842 .5318451L.21998596 .43066407H.1519928C.1349945 .43066407 .12399292 .43066407 .12399292 .4126587 .12399292 .3996582 .1349945 .3996582 .15098572 .3996582H.21398926L.14199829 .026229859C.1309967-.033737184 .1289978-.037734987 .11399841-.097717288 .10598755-.12771607 .09298706-.1796875 .057998659-.1796875 .054992677-.1796875 .032989503-.1796875 .018997193-.16369629 .054992677-.15370178 .057998659-.12271118 .057998659-.11671448 .057998659-.096725467 .041992189-.084732059 .023986817-.084732059 .0019989014-.084732059-.025009156-.10171509-.025009156-.1387024-.025009156-.18269348 .016998291-.20469666 .056991579-.20469666 .15098572-.20469666 .19599915-.053741456 .22200012 .08314514L.2829895 .3996582H.5099945L.43899537 .114089969C.43899537 .114089969 .43399049 .09512329 .43399049 .08015442 .43399049 .032226564 .46798707-.0107421879 .522995-.0107421879 .56900027-.0107421879 .58999636 .029220581 .59799197 .046203615 .6159973 .08314514 .6289978 .14006043 .6289978 .14305115M.5179901 .43066407H.2889862C.31399537 .56791689 .31799317 .5809479 .32699586 .60694888 .33399964 .628952 .35099793 .68006899 .44299317 .68006899 .45498658 .68006899 .49299623 .6790619 .519989 .6639557 .5 .6569519 .48599244 .6379547 .48599244 .6169586 .48599244 .59695437 .5019989 .58496096 .519989 .58496096 .54299929 .58496096 .5569916 .60095217 .5609894 .60795596H.56199648L.5179901 .43066407Z"/>
<path id="font_1_43" d="M.48199464 .10127258C.47799684 .11428833 .46899415 .120285037 .46299745 .120285037 .45799256 .120285037 .45599366 .11828613 .44898988 .10928345 .3919983 .036254884 .31098939 .014251709 .2649994 .014251709 .21499634 .014251709 .18399048 .052261354 .18399048 .11828613 .18399048 .16029358 .20399475 .2603302 .23999024 .32434083 .2689972 .3753662 .31999208 .41737367 .36999513 .41737367 .38198854 .41737367 .4249878 .41537477 .44198609 .37635804 .397995 .3713684 .3959961 .3333435 .3959961 .3293457 .3959961 .30033876 .4229889 .29634095 .42999269 .29634095 .44898988 .29634095 .47999574 .31134034 .47999574 .35635377 .47999574 .4033661 .43699647 .4423828 .36898805 .4423828 .24099732 .4423828 .11099243 .30033876 .11099243 .1552887 .11099243 .06726074 .1639862-.0107421879 .2639923-.0107421879 .35598756-.0107421879 .44400025 .039260866 .48199464 .10127258Z"/>
<path id="font_1_112" d="M.5029907 .3733673C.5029907 .42938233 .47599793 .4423828 .45999146 .4423828 .43899537 .4423828 .4119873 .42137147 .4119873 .39637757 .4119873 .3863678 .4139862 .38136292 .42199708 .37236024 .43299867 .35935975 .45199586 .33735658 .45199586 .29034425 .45199586 .2603302 .4039917 .014251709 .2889862 .014251709 .22799683 .014251709 .22299195 .0712738 .22299195 .09727478 .22299195 .14529419 .24398804 .21131897 .2789917 .30734254 .28799439 .3293457 .2919922 .3403473 .2919922 .36036683 .2919922 .40937806 .2579956 .4423828 .21299744 .4423828 .117996219 .4423828 .08099365 .29733277 .08099365 .28833009 .08099365 .27633668 .09298706 .27633668 .09799194 .27633668 .11199951 .27633668 .11299133 .28134156 .116989139 .29333497 .12399292 .3193512 .15098572 .41737367 .20999146 .41737367 .21998596 .41737367 .23098755 .41537477 .23098755 .38937379 .23098755 .36436463 .21998596 .3343506 .21299744 .31533814 .1579895 .16729737 .1579895 .14329529 .1579895 .11227417 .1579895 .09727478 .1579895 .051254274 .19198609 .021255494 .22299195-.0067443849 .2649994-.0107421879 .28599549-.0107421879 .45199586-.0107421879 .5029907 .33035279 .5029907 .3733673Z"/>
<path id="font_1_72" d="M.28799439 .14326477C.28799439 .15525818 .2749939 .15525818 .2709961 .15525818 .2559967 .15525818 .25498963 .15126038 .25099183 .13226319 .22799683 .040252687 .20899964 .014251709 .18399048 .014251709 .16499329 .014251709 .1579895 .030258179 .1579895 .055252077 .1579895 .06425476 .16099549 .086257938 .1659851 .10626221L.30499269 .66230776C.30799867 .6753082 .30899049 .6773071 .30899049 .68029788 .30899049 .69329836 .2999878 .6953125 .2829895 .69329836L.1789856 .6843109C.1639862 .68330386 .1539917 .682312 .1539917 .66529849 .1539917 .652298 .1639862 .652298 .18099976 .652298 .22799683 .652298 .22799683 .64430239 .22799683 .6352997 .22799683 .6352997 .22799683 .62831118 .22399903 .61331179L.09899902 .11425781C.09899902 .11425781 .09399414 .09526062 .09399414 .08026123 .09399414 .03225708 .12799073-.0107421879 .18299866-.0107421879 .22799683-.0107421879 .24798584 .026245118 .25698854 .04525757 .2749939 .08125305 .28799439 .14025879 .28799439 .14326477Z"/>
<path id="font_1_116" d="M.5 .14329529C.5 .1552887 .4869995 .1552887 .48298646 .1552887 .46899415 .1552887 .46798707 .1512909 .46398927 .1382904 .43598939 .04826355 .3809967 .014251709 .34399415 .014251709 .30999757 .014251709 .29499818 .042251588 .29499818 .07727051 .29499818 .09828186 .29899598 .11227417 .31498719 .18029785L.34999085 .3163452C.36698915 .3843689 .40098573 .41737367 .43499757 .41737367 .45599366 .41737367 .47399903 .40937806 .48098756 .4033661 .45599366 .39537049 .44400025 .3753662 .44400025 .35635377 .44400025 .3363495 .45899964 .32434083 .47799684 .32434083 .5039978 .32434083 .5269928 .34635926 .5269928 .3773651 .5269928 .41937257 .48399354 .4423828 .43598939 .4423828 .3849945 .4423828 .35198976 .4013672 .33799745 .37635804 .31799317 .42437745 .27598573 .4423828 .23899842 .4423828 .13598633 .4423828 .08099365 .31134034 .08099365 .28833009 .08099365 .27633668 .09298706 .27633668 .09799194 .27633668 .11199951 .27633668 .11299133 .28033448 .116989139 .29434205 .13899231 .36836244 .18998719 .41737367 .23699951 .41737367 .269989 .41737367 .2849884 .3883667 .2849884 .35536195 .2849884 .3343506 .2789917 .31134034 .2659912 .2563324L.23098755 .120285037C.21398926 .051254274 .18399048 .014251709 .14498902 .014251709 .117996219 .014251709 .100997928 .028259278 .100997928 .028259278 .12599182 .036254884 .13699341 .058258058 .13699341 .07527161 .13699341 .09527588 .12098694 .107284549 .102996829 .107284549 .07899475 .107284549 .053985597 .08728027 .053985597 .054260255 .053985597 .009246826 .101989749-.0107421879 .14399719-.0107421879 .19299317-.0107421879 .22599793 .027252198 .24198914 .054260255 .2579956 .01524353 .29499818-.0107421879 .34098817-.0107421879 .44599916-.0107421879 .5 .122283939 .5 .14329529Z"/>
<path id="font_1_98" d="M.40299989 .15620423C.40299989 .18418885 .3929901 .21018982 .37298585 .23118592 .34700013 .25717164 .32398988 .2621765 .2789917 .27116395 .24899292 .27816773 .21299744 .28515626 .21299744 .32815553 .21299744 .3461609 .22898865 .41737367 .31599427 .41737367 .34599305 .41737367 .38198854 .4053192 .3919983 .37016297 .35499574 .36315919 .35499574 .33015443 .35499574 .33015443 .35499574 .32115174 .36099244 .30215455 .3849945 .30215455 .40699769 .30215455 .42799378 .31915284 .42799378 .3561554 .42799378 .40130616 .3880005 .4423828 .31599427 .4423828 .19898987 .4423828 .15499878 .3491516 .15499878 .29415895 .15499878 .21618653 .22200012 .20219422 .2519989 .19519043 .29899598 .18519593 .34399415 .17520142 .34399415 .12321472 .34399415 .09422302 .31999208 .014251709 .21099854 .014251709 .18499756 .014251709 .1289978 .021255494 .11299133 .068237308 .1599884 .07322693 .1599884 .115219119 .1599884 .115219119 .1599884 .14221192 .13699341 .14820862 .12599182 .14820862 .11999512 .14820862 .07598877 .14520264 .07598877 .08622742 .07598877 .03024292 .1289978-.0107421879 .21099854-.0107421879 .3639984-.0107421879 .40299989 .11122131 .40299989 .15620423Z"/>
<path id="font_1_63" d="M.5509949 .14329529C.5509949 .1552887 .5379944 .1552887 .5339966 .1552887 .519989 .1552887 .5189972 .15229798 .5130005 .13128662 .5029907 .09527588 .47499085 .014251709 .42099 .014251709 .41299439 .014251709 .3999939 .01524353 .3999939 .042251588 .3999939 .06626892 .4119873 .09828186 .41999818 .120285037 .43798829 .16830445 .47898866 .2793274 .47898866 .3363495 .47898866 .4033661 .43899537 .4423828 .36898805 .4423828 .31399537 .4423828 .269989 .41737367 .23498535 .3803711L.30499269 .66230776C.30799867 .67630007 .30899049 .6773071 .30899049 .68029788 .30899049 .69329836 .2999878 .6953125 .2829895 .69329836L.1789856 .6843109C.1639862 .68330386 .1539917 .682312 .1539917 .66529849 .1539917 .652298 .1639862 .652298 .18099976 .652298 .22799683 .652298 .22799683 .64430239 .22799683 .63531497 .22799683 .63531497 .22799683 .62831118 .22399903 .61331179L.07998657 .037261964C.07598877 .023254395 .07598877 .021255494 .07598877 .01725769 .07598877 .002243042 .08699036-.0107421879 .10598755-.0107421879 .13699341-.0107421879 .14299011 .014251709 .1499939 .044265748 .1619873 .08728027 .1619873 .089279178 .17199707 .13027954L.20399475 .2603302C.21499634 .30134584 .23498535 .33935548 .2649994 .3693695 .27999879 .3843689 .31298829 .41737367 .36698915 .41737367 .40499879 .41737367 .4139862 .3843689 .4139862 .35235597 .4139862 .29434205 .37098695 .17630005 .35398866 .13128662 .34199525 .09828186 .33999635 .0922699 .33999635 .0712738 .33999635 .01725769 .37799073-.0107421879 .4189911-.0107421879 .5139923-.0107421879 .5509949 .1362915 .5509949 .14329529Z"/>
<path id="font_1_120" d="M.44599916 .14424134C.44599916 .15625 .43399049 .15625 .42900086 .15625 .41600038 .15625 .4149933 .15324402 .40899659 .13624573 .3929901 .09223938 .34498597 .057250978 .2999878 .057250978 .28199769 .057250978 .2659912 .06225586 .24699402 .070251468 .22499085 .07923889 .20199585 .08824158 .1769867 .08824158 .16699219 .08824158 .16499329 .08824158 .16099549 .087249759 .18299866 .11424255 .20799256 .13923645 .23298645 .16325379L.32998658 .2532959C.45599366 .3763733 .47399903 .42837525 .47399903 .43138124 .47399903 .4423828 .46199037 .4423828 .45799256 .4423828 .44699098 .4423828 .44599916 .44137574 .43399049 .42337037 .4099884 .38237 .394989 .3683777 .37599183 .3683777 .35598756 .3683777 .34098817 .3863678 .32598878 .40538026 .31199647 .42337037 .29499818 .4423828 .2639923 .4423828 .18598938 .4423828 .14299011 .34635926 .14299011 .32633973 .14299011 .3143463 .15499878 .3143463 .15899658 .3143463 .17298889 .3143463 .17399597 .31834413 .1769867 .3273468 .19099427 .3633728 .23199463 .3743744 .2539978 .3743744 .2749939 .3743744 .29499818 .36636354 .31098939 .35935975 .34199525 .34736634 .35299684 .34535218 .37399293 .34335328 .34899903 .31333924 .33198548 .29733277 .2669983 .2362976 .1769867 .15124512 .17599488 .15023804 .14299011 .11424255 .10899353 .07723999 .06199646 .012252808 .06199646 .00024414063 .06199646-.0107421879 .07199097-.0107421879 .07798767-.0107421879 .08999634-.0107421879 .09098816-.009750366 .09700012 .0012512207 .11099243 .025253296 .14099121 .06324768 .17599488 .06324768 .19699097 .06324768 .20999146 .04725647 .22799683 .025253296 .24499512 .003250122 .26098634-.0107421879 .2899933-.0107421879 .3880005-.0107421879 .44599916 .11824036 .44599916 .14424134Z"/>
</defs>
<path transform="matrix(1.00002,0,0,-1.00003,97.936779,203.13062)" stroke-width=".3985" stroke-linecap="butt" stroke-miterlimit="10" stroke-linejoin="miter" fill="none" stroke="#000000" d="M-85.04042 170.08086V198.42766H-35.43349V170.08086ZM-35.43349 198.42766"/>
<path transform="matrix(1.00002,0,0,-1.00003,97.936779,203.13062)" stroke-width=".3985" stroke-linecap="butt" stroke-miterlimit="10" stroke-linejoin="miter" fill="none" stroke="#000000" d="M35.43349 170.08086V198.42766H85.04042V170.08086ZM85.04042 198.42766"/>
<path transform="matrix(1.00002,0,0,-1.00003,97.936779,203.13062)" stroke-width=".3985" stroke-linecap="butt" stroke-miterlimit="10" stroke-linejoin="miter" fill="none" stroke="#000000" d="M-28.3468 184.25424H27.88852"/>
<path transform="matrix(1.00002,0,0,-1.00003,125.82585,18.870835)" stroke-width=".31879" stroke-linecap="round" stroke-linejoin="round" fill="none" stroke="#000000" d="M-1.19551 1.59401C-1.09587 .99626 0 .09961 .29886 0 0-.09961-1.09587-.99626-1.19551-1.59401"/>
<use data-text="i" xlink:href="#font_1_66" transform="matrix(8.966579,0,0,-8.966669,82.639469,13.196915)"/>
<use data-text="d" xlink:href="#font_1_47" transform="matrix(8.966579,0,0,-8.966669,85.46394,13.196915)"/>
<use data-text="e" xlink:href="#font_1_50" transform="matrix(8.966579,0,0,-8.966669,90.1714,13.196915)"/>
<use data-text="n" xlink:href="#font_1_77" transform="matrix(8.966579,0,0,-8.966669,94.40364,13.196915)"/>
<use data-text="t" xlink:href="#font_1_105" transform="matrix(8.966579,0,0,-8.966669,99.57736,13.196915)"/>
<use data-text="i" xlink:href="#font_1_66" transform="matrix(8.966579,0,0,-8.966669,102.634967,13.196915)"/>
<use data-text="t" xlink:href="#font_1_105" transform="matrix(8.966579,0,0,-8.966669,105.45943,13.196915)"/>
<use data-text="y" xlink:href="#font_1_118" transform="matrix(8.966579,0,0,-8.966669,108.51703,13.196915)"/>
<use data-text="B" xlink:href="#font_2_2" transform="matrix(8.966579,0,0,-8.966669,66.33814,7.760742)"/>
<use data-text="C" xlink:href="#font_2_3" transform="matrix(8.966579,0,0,-8.966669,66.33814,36.108598)"/>
<use data-text="A" xlink:href="#font_2_1" transform="matrix(8.966579,0,0,-8.966669,2.1488648,7.760742)"/>
<use data-text="D" xlink:href="#font_2_4" transform="matrix(8.966579,0,0,-8.966669,1.2038269,36.108598)"/>
<use data-text="B" xlink:href="#font_2_2" transform="matrix(8.966579,0,0,-8.966669,186.81455,7.760742)"/>
<use data-text="C" xlink:href="#font_2_3" transform="matrix(8.966579,0,0,-8.966669,186.81455,36.108598)"/>
<use data-text="A" xlink:href="#font_2_1" transform="matrix(8.966579,0,0,-8.966669,122.62527,7.760742)"/>
<use data-text="D" xlink:href="#font_2_4" transform="matrix(8.966579,0,0,-8.966669,121.68025,36.108598)"/>
<path transform="matrix(1.00002,0,0,-1.00003,97.936779,203.13062)" stroke-width=".3985" stroke-linecap="butt" stroke-miterlimit="10" stroke-linejoin="miter" fill="none" stroke="#000000" d="M-85.04042 113.38724V141.73404H-35.43349V113.38724ZM-35.43349 141.73404"/>
<path transform="matrix(1.00002,0,0,-1.00003,97.936779,203.13062)" stroke-width=".3985" stroke-linecap="butt" stroke-miterlimit="10" stroke-linejoin="miter" fill="none" stroke="#000000" d="M35.43349 113.38724V141.73404H85.04042V113.38724ZM85.04042 141.73404"/>
<path transform="matrix(1.00002,0,0,-1.00003,97.936779,203.13062)" stroke-width=".3985" stroke-linecap="butt" stroke-miterlimit="10" stroke-linejoin="miter" fill="none" stroke="#000000" d="M-28.3468 127.56062H27.88852"/>
<path transform="matrix(1.00002,0,0,-1.00003,125.82585,75.56616)" stroke-width=".31879" stroke-linecap="round" stroke-linejoin="round" fill="none" stroke="#000000" d="M-1.19551 1.59401C-1.09587 .99626 0 .09961 .29886 0 0-.09961-1.09587-.99626-1.19551-1.59401"/>
<use data-text="1" xlink:href="#font_3_2" transform="matrix(8.966579,0,0,-8.966669,88.86659,71.73067)"/>
<use data-text="8" xlink:href="#font_3_3" transform="matrix(8.966579,0,0,-8.966669,93.466449,71.73067)"/>
<use data-text="0" xlink:href="#font_3_1" transform="matrix(8.966579,0,0,-8.966669,98.0663,71.73067)"/>
<use data-text="&#x25e6;" xlink:href="#font_4_1" transform="matrix(5.97772,0,0,-5.97778,102.689868,67.921558)"/>
<use data-text="r" xlink:href="#font_1_96" transform="matrix(8.966579,0,0,-8.966669,81.99445,85.266078)"/>
<use data-text="o" xlink:href="#font_1_81" transform="matrix(8.966579,0,0,-8.966669,85.41073,85.266078)"/>
<use data-text="t" xlink:href="#font_1_105" transform="matrix(8.966579,0,0,-8.966669,90.11819,85.266078)"/>
<use data-text="a" xlink:href="#font_1_28" transform="matrix(8.966579,0,0,-8.966669,93.17579,85.266078)"/>
<use data-text="t" xlink:href="#font_1_105" transform="matrix(8.966579,0,0,-8.966669,97.88325,85.266078)"/>
<use data-text="i" xlink:href="#font_1_66" transform="matrix(8.966579,0,0,-8.966669,100.94085,85.266078)"/>
<use data-text="o" xlink:href="#font_1_81" transform="matrix(8.966579,0,0,-8.966669,103.76533,85.266078)"/>
<use data-text="n" xlink:href="#font_1_77" transform="matrix(8.966579,0,0,-8.966669,108.472789,85.266078)"/>
<use data-text="B" xlink:href="#font_2_2" transform="matrix(8.966579,0,0,-8.966669,66.33814,64.455448)"/>
<use data-text="C" xlink:href="#font_2_3" transform="matrix(8.966579,0,0,-8.966669,66.33814,92.80331)"/>
<use data-text="A" xlink:href="#font_2_1" transform="matrix(8.966579,0,0,-8.966669,2.1488648,64.455448)"/>
<use data-text="D" xlink:href="#font_2_4" transform="matrix(8.966579,0,0,-8.966669,1.2038269,92.80331)"/>
<use data-text="D" xlink:href="#font_2_4" transform="matrix(8.966579,0,0,-8.966669,186.81455,64.455448)"/>
<use data-text="A" xlink:href="#font_2_1" transform="matrix(8.966579,0,0,-8.966669,186.81455,92.80331)"/>
<use data-text="C" xlink:href="#font_2_3" transform="matrix(8.966579,0,0,-8.966669,122.31926,64.455448)"/>
<use data-text="B" xlink:href="#font_2_2" transform="matrix(8.966579,0,0,-8.966669,122.11526,92.80331)"/>
<path transform="matrix(1.00002,0,0,-1.00003,97.936779,203.13062)" stroke-width=".3985" stroke-linecap="butt" stroke-miterlimit="10" stroke-linejoin="miter" fill="none" stroke="#000000" d="M-85.04042 56.69362V85.04042H-35.43349V56.69362ZM-35.43349 85.04042"/>
<path transform="matrix(1.00002,0,0,-1.00003,97.936779,203.13062)" stroke-width=".3985" stroke-linecap="butt" stroke-miterlimit="10" stroke-linejoin="miter" fill="none" stroke="#000000" d="M35.43349 56.69362V85.04042H85.04042V56.69362ZM85.04042 85.04042"/>
<path transform="matrix(1.00002,0,0,-1.00003,97.936779,203.13062)" stroke-width=".3985" stroke-linecap="butt" stroke-miterlimit="10" stroke-linejoin="miter" fill="none" stroke="#000000" d="M-28.3468 70.867H27.88852"/>
<path transform="matrix(1.00002,0,0,-1.00003,125.82585,132.26149)" stroke-width=".31879" stroke-linecap="round" stroke-linejoin="round" fill="none" stroke="#000000" d="M-1.19551 1.59401C-1.09587 .99626 0 .09961 .29886 0 0-.09961-1.09587-.99626-1.19551-1.59401"/>
<use data-text="r" xlink:href="#font_1_96" transform="matrix(8.966579,0,0,-8.966669,79.41141,126.58832)"/>
<use data-text="e" xlink:href="#font_1_50" transform="matrix(8.966579,0,0,-8.966669,82.82768,126.58832)"/>
<use data-text="f" xlink:href="#font_1_126" transform="matrix(8.966579,0,0,-8.966669,87.059909,126.58832)"/>
<use data-text="e" xlink:href="#font_1_50" transform="matrix(8.966579,0,0,-8.966669,92.46675,126.58832)"/>
<use data-text="c" xlink:href="#font_1_43" transform="matrix(8.966579,0,0,-8.966669,96.23273,126.58832)"/>
<use data-text="t" xlink:href="#font_1_105" transform="matrix(8.966579,0,0,-8.966669,100.464969,126.58832)"/>
<use data-text="i" xlink:href="#font_1_66" transform="matrix(8.966579,0,0,-8.966669,103.52257,126.58832)"/>
<use data-text="o" xlink:href="#font_1_81" transform="matrix(8.966579,0,0,-8.966669,106.347049,126.58832)"/>
<use data-text="n" xlink:href="#font_1_77" transform="matrix(8.966579,0,0,-8.966669,111.054508,126.58832)"/>
<use data-text="v" xlink:href="#font_1_112" transform="matrix(8.966579,0,0,-8.966669,73.95529,142.3288)"/>
<use data-text="e" xlink:href="#font_1_50" transform="matrix(8.966579,0,0,-8.966669,78.18753,142.3288)"/>
<use data-text="r" xlink:href="#font_1_96" transform="matrix(8.966579,0,0,-8.966669,82.419757,142.3288)"/>
<use data-text="t" xlink:href="#font_1_105" transform="matrix(8.966579,0,0,-8.966669,86.30229,142.3288)"/>
<use data-text="i" xlink:href="#font_1_66" transform="matrix(8.966579,0,0,-8.966669,89.35989,142.3288)"/>
<use data-text="c" xlink:href="#font_1_43" transform="matrix(8.966579,0,0,-8.966669,92.18436,142.3288)"/>
<use data-text="a" xlink:href="#font_1_28" transform="matrix(8.966579,0,0,-8.966669,95.95033,142.3288)"/>
<use data-text="l" xlink:href="#font_1_72" transform="matrix(8.966579,0,0,-8.966669,100.65779,142.3288)"/>
<use data-text="a" xlink:href="#font_1_28" transform="matrix(8.966579,0,0,-8.966669,106.28882,142.3288)"/>
<use data-text="x" xlink:href="#font_1_116" transform="matrix(8.966579,0,0,-8.966669,110.99628,142.3288)"/>
<use data-text="i" xlink:href="#font_1_66" transform="matrix(8.966579,0,0,-8.966669,115.246448,142.3288)"/>
<use data-text="s" xlink:href="#font_1_98" transform="matrix(8.966579,0,0,-8.966669,118.07091,142.3288)"/>
<use data-text="B" xlink:href="#font_2_2" transform="matrix(8.966579,0,0,-8.966669,66.33814,121.15115)"/>
<use data-text="C" xlink:href="#font_2_3" transform="matrix(8.966579,0,0,-8.966669,66.33814,149.49901)"/>
<use data-text="A" xlink:href="#font_2_1" transform="matrix(8.966579,0,0,-8.966669,2.1488648,121.15115)"/>
<use data-text="D" xlink:href="#font_2_4" transform="matrix(8.966579,0,0,-8.966669,1.2038269,149.49901)"/>
<use data-text="A" xlink:href="#font_2_1" transform="matrix(8.966579,0,0,-8.966669,186.81455,121.15115)"/>
<use data-text="D" xlink:href="#font_2_4" transform="matrix(8.966579,0,0,-8.966669,186.81455,149.49901)"/>
<use data-text="B" xlink:href="#font_2_2" transform="matrix(8.966579,0,0,-8.966669,122.11526,121.15115)"/>
<use data-text="C" xlink:href="#font_2_3" transform="matrix(8.966579,0,0,-8.966669,122.31926,149.49901)"/>
<path transform="matrix(1.00002,0,0,-1.00003,97.936779,203.13062)" stroke-width=".3985" stroke-linecap="butt" stroke-miterlimit="10" stroke-linejoin="miter" fill="none" stroke="#000000" d="M-85.04042 0V28.3468H-35.43349V0ZM-35.43349 28.3468"/>
<path transform="matrix(1.00002,0,0,-1.00003,97.936779,203.13062)" stroke-width=".3985" stroke-linecap="butt" stroke-miterlimit="10" stroke-linejoin="miter" fill="none" stroke="#000000" d="M35.43349 0V28.3468H85.04042V0ZM85.04042 28.3468"/>
<path transform="matrix(1.00002,0,0,-1.00003,97.936779,203.13062)" stroke-width=".3985" stroke-linecap="butt" stroke-miterlimit="10" stroke-linejoin="miter" fill="none" stroke="#000000" d="M-28.3468 14.17339H27.88852"/>
<path transform="matrix(1.00002,0,0,-1.00003,125.82585,188.9568)" stroke-width=".31879" stroke-linecap="round" stroke-linejoin="round" fill="none" stroke="#000000" d="M-1.19551 1.59401C-1.09587 .99626 0 .09961 .29886 0 0-.09961-1.09587-.99626-1.19551-1.59401"/>
<use data-text="r" xlink:href="#font_1_96" transform="matrix(8.966579,0,0,-8.966669,79.41141,183.28302)"/>
<use data-text="e" xlink:href="#font_1_50" transform="matrix(8.966579,0,0,-8.966669,82.82768,183.28302)"/>
<use data-text="f" xlink:href="#font_1_126" transform="matrix(8.966579,0,0,-8.966669,87.059909,183.28302)"/>
<use data-text="e" xlink:href="#font_1_50" transform="matrix(8.966579,0,0,-8.966669,92.46675,183.28302)"/>
<use data-text="c" xlink:href="#font_1_43" transform="matrix(8.966579,0,0,-8.966669,96.23273,183.28302)"/>
<use data-text="t" xlink:href="#font_1_105" transform="matrix(8.966579,0,0,-8.966669,100.464969,183.28302)"/>
<use data-text="i" xlink:href="#font_1_66" transform="matrix(8.966579,0,0,-8.966669,103.52257,183.28302)"/>
<use data-text="o" xlink:href="#font_1_81" transform="matrix(8.966579,0,0,-8.966669,106.347049,183.28302)"/>
<use data-text="n" xlink:href="#font_1_77" transform="matrix(8.966579,0,0,-8.966669,111.054508,183.28302)"/>
<use data-text="h" xlink:href="#font_1_63" transform="matrix(8.966579,0,0,-8.966669,68.539188,199.02449)"/>
<use data-text="o" xlink:href="#font_1_81" transform="matrix(8.966579,0,0,-8.966669,73.24666,199.02449)"/>
<use data-text="r" xlink:href="#font_1_96" transform="matrix(8.966579,0,0,-8.966669,77.95412,199.02449)"/>
<use data-text="i" xlink:href="#font_1_66" transform="matrix(8.966579,0,0,-8.966669,81.83664,199.02449)"/>
<use data-text="z" xlink:href="#font_1_120" transform="matrix(8.966579,0,0,-8.966669,84.66112,199.02449)"/>
<use data-text="o" xlink:href="#font_1_81" transform="matrix(8.966579,0,0,-8.966669,88.42706,199.02449)"/>
<use data-text="n" xlink:href="#font_1_77" transform="matrix(8.966579,0,0,-8.966669,93.13454,199.02449)"/>
<use data-text="t" xlink:href="#font_1_105" transform="matrix(8.966579,0,0,-8.966669,98.30824,199.02449)"/>
<use data-text="a" xlink:href="#font_1_28" transform="matrix(8.966579,0,0,-8.966669,101.365848,199.02449)"/>
<use data-text="l" xlink:href="#font_1_72" transform="matrix(8.966579,0,0,-8.966669,106.07332,199.02449)"/>
<use data-text="a" xlink:href="#font_1_28" transform="matrix(8.966579,0,0,-8.966669,111.70433,199.02449)"/>
<use data-text="x" xlink:href="#font_1_116" transform="matrix(8.966579,0,0,-8.966669,116.41179,199.02449)"/>
<use data-text="i" xlink:href="#font_1_66" transform="matrix(8.966579,0,0,-8.966669,120.66196,199.02449)"/>
<use data-text="s" xlink:href="#font_1_98" transform="matrix(8.966579,0,0,-8.966669,123.48642,199.02449)"/>
<use data-text="B" xlink:href="#font_2_2" transform="matrix(8.966579,0,0,-8.966669,66.33814,177.84687)"/>
<use data-text="C" xlink:href="#font_2_3" transform="matrix(8.966579,0,0,-8.966669,66.33814,206.1947)"/>
<use data-text="A" xlink:href="#font_2_1" transform="matrix(8.966579,0,0,-8.966669,2.1488648,177.84687)"/>
<use data-text="D" xlink:href="#font_2_4" transform="matrix(8.966579,0,0,-8.966669,1.2038269,206.1947)"/>
<use data-text="C" xlink:href="#font_2_3" transform="matrix(8.966579,0,0,-8.966669,186.81455,177.84687)"/>
<use data-text="B" xlink:href="#font_2_2" transform="matrix(8.966579,0,0,-8.966669,186.81455,206.1947)"/>
<use data-text="D" xlink:href="#font_2_4" transform="matrix(8.966579,0,0,-8.966669,121.68025,177.84687)"/>
<use data-text="A" xlink:href="#font_2_1" transform="matrix(8.966579,0,0,-8.966669,122.62527,206.1947)"/>
</svg>
